<svg xmlns="http://www.w3.org/2000/svg" viewBox="0 0 12.87 12.87"><defs><style>.cls-1{fill:#0abff2;}</style></defs><g id="Layer_2" data-name="Layer 2"><g id="Layer_1-2" data-name="Layer 1"><path class="cls-1" d="M12.87,6.43A6.44,6.44,0,1,1,6.43,0,6.44,6.44,0,0,1,12.87,6.43ZM7.64,2.36a.19.19,0,0,0-.08-.15.35.35,0,0,0-.21-.07H5.51a.35.35,0,0,0-.2.07.17.17,0,0,0-.08.15l.14,5.2c0,.12.13.21.28.21H7.2a.27.27,0,0,0,.29-.21ZM7.51,8.85a.27.27,0,0,0-.26-.27H5.64a.28.28,0,0,0-.28.27v1.6a.28.28,0,0,0,.28.27H7.25a.27.27,0,0,0,.26-.27Z"/></g></g></svg>