<svg xmlns="http://www.w3.org/2000/svg" viewBox="0 0 14.86 10.29"><defs><style>.cls-1{fill:#fff;}</style></defs><g id="Layer_2" data-name="Layer 2"><g id="Layer_1-2" data-name="Layer 1"><path class="cls-1" d="M14.86,1.71V6.29a.59.59,0,0,1-.51.57L5,8a1.3,1.3,0,0,0,0,.19c0,.08,0,.16,0,.23a1.68,1.68,0,0,1,0,.2,1.67,1.67,0,0,1-.21.57h8.21a.54.54,0,0,1,.4.17.54.54,0,0,1,.17.4.58.58,0,0,1-.57.58H4a.54.54,0,0,1-.4-.17.58.58,0,0,1-.17-.41.9.9,0,0,1,.1-.35,5,5,0,0,1,.26-.53L4,8.49,2.39,1.14H.57A.52.52,0,0,1,.17,1,.54.54,0,0,1,0,.57.56.56,0,0,1,.17.17.56.56,0,0,1,.57,0H2.86a.51.51,0,0,1,.25.06A.44.44,0,0,1,3.29.2a.86.86,0,0,1,.12.22,1.58,1.58,0,0,1,.06.23c0,.07,0,.16,0,.27a2.19,2.19,0,0,1,0,.22H14.29a.58.58,0,0,1,.57.57Z"/></g></g></svg>