<svg xmlns="http://www.w3.org/2000/svg" viewBox="0 0 14 14"><defs><style>.cls-1{fill:#24263d;}</style></defs><g id="Layer_2" data-name="Layer 2"><g id="Layer_1-2" data-name="Layer 1"><path class="cls-1" d="M11.59,10.27a3.73,3.73,0,0,0-3-1.46A8.31,8.31,0,0,1,7,9.08a8.63,8.63,0,0,1-1.63-.27,3.72,3.72,0,0,0-3,1.46A5.64,5.64,0,1,1,12.64,7a5.59,5.59,0,0,1-1.05,3.27M7,12.64a5.61,5.61,0,0,1-3.67-1.36,2.44,2.44,0,0,1,2-1.12A5.8,5.8,0,0,0,7,10.43a5.49,5.49,0,0,0,1.71-.27,2.44,2.44,0,0,1,2,1.12A5.61,5.61,0,0,1,7,12.64ZM7,0a7,7,0,1,0,7,7A7,7,0,0,0,7,0ZM7,6.77A1.36,1.36,0,1,1,8.35,5.42,1.35,1.35,0,0,1,7,6.77ZM7,2.71A2.71,2.71,0,1,0,9.71,5.42,2.71,2.71,0,0,0,7,2.71Z"/></g></g></svg>