<svg xmlns="http://www.w3.org/2000/svg" viewBox="0 0 16.01 16.01"><defs><style>.cls-1{fill:#24263d;}</style></defs><g id="Layer_2" data-name="Layer 2"><g id="Layer_1-2" data-name="Layer 1"><path class="cls-1" d="M14.94,4A7.76,7.76,0,0,1,16,8a7.81,7.81,0,0,1-1.07,4A8.12,8.12,0,0,1,12,14.94,7.81,7.81,0,0,1,8,16a7.76,7.76,0,0,1-4-1.07A8.07,8.07,0,0,1,1.07,12,7.91,7.91,0,0,1,0,8,7.85,7.85,0,0,1,1.07,4,8,8,0,0,1,4,1.07,7.85,7.85,0,0,1,8,0a7.91,7.91,0,0,1,4,1.07A8.07,8.07,0,0,1,14.94,4ZM10.85,3.1a5.64,5.64,0,0,0-5.69,0A5.65,5.65,0,0,0,2.34,8a5.49,5.49,0,0,0,.76,2.84,5.68,5.68,0,0,0,7.75,2.07,5.71,5.71,0,0,0,2.07-2.07A5.49,5.49,0,0,0,13.68,8a5.53,5.53,0,0,0-.76-2.85A5.6,5.6,0,0,0,10.85,3.1Z"/></g></g></svg>