<svg xmlns="http://www.w3.org/2000/svg" viewBox="0 0 46.43 39.29"><defs><style>.cls-1{fill:#fff;}</style></defs><g id="Layer_2" data-name="Layer 2"><g id="Layer_1-2" data-name="Layer 1"><path class="cls-1" d="M46.43,5.36V19.64a1.81,1.81,0,0,1-1.59,1.79l-29.13,3.4q0,.2.12.6c.07.27.13.52.17.74a2.87,2.87,0,0,1,.07.62,5.33,5.33,0,0,1-.67,1.78H41.07a1.81,1.81,0,0,1,1.79,1.79,1.81,1.81,0,0,1-1.79,1.78H12.5a1.81,1.81,0,0,1-1.79-1.78A3.24,3.24,0,0,1,11,29.25c.21-.47.48-1,.82-1.66l.58-1.06-4.94-23H1.79A1.69,1.69,0,0,1,.53,3,1.72,1.72,0,0,1,0,1.79,1.72,1.72,0,0,1,.53.53,1.72,1.72,0,0,1,1.79,0H8.93a1.67,1.67,0,0,1,.79.18,1.81,1.81,0,0,1,.56.43,2.22,2.22,0,0,1,.36.69,3.56,3.56,0,0,1,.21.74c0,.2.09.48.16.82s.1.58.12.71H44.64a1.81,1.81,0,0,1,1.79,1.79ZM16.81,33.19a3.58,3.58,0,0,1-2.52,6.1,3.58,3.58,0,1,1,2.52-6.1Zm25,0a3.56,3.56,0,1,1-2.52-1A3.44,3.44,0,0,1,41.81,33.19Z"/></g></g></svg>