<svg xmlns="http://www.w3.org/2000/svg" viewBox="0 0 18.08 19.14"><defs><style>.cls-1{fill:#00c0f2;}</style></defs><g id="Layer_2" data-name="Layer 2"><g id="Layer_1-2" data-name="Layer 1"><path class="cls-1" d="M17.63,10.69l-8,8a1.66,1.66,0,0,1-1.12.46,1.59,1.59,0,0,1-1.1-.46l-.92-.92a1.56,1.56,0,0,1,0-2.23l3.59-3.6H1.44A1.47,1.47,0,0,1,0,10.35V8.78A1.47,1.47,0,0,1,1.44,7.21h8.64L6.49,3.6a1.53,1.53,0,0,1,0-2.21L7.41.47A1.52,1.52,0,0,1,8.51,0,1.58,1.58,0,0,1,9.63.47l8,8a1.57,1.57,0,0,1,.45,1.11A1.61,1.61,0,0,1,17.63,10.69Z"/></g></g></svg>