<svg xmlns="http://www.w3.org/2000/svg" viewBox="0 0 15.43 15.43"><defs><style>.cls-1{fill:#00c0f2;}</style></defs><g id="Layer_2" data-name="Layer 2"><g id="Layer_1-2" data-name="Layer 1"><path class="cls-1" d="M14.39,3.84a7.53,7.53,0,0,1,1,3.87,7.6,7.6,0,0,1-1,3.88,7.67,7.67,0,0,1-2.8,2.8,7.6,7.6,0,0,1-3.88,1,7.53,7.53,0,0,1-3.87-1A7.7,7.7,0,0,1,1,11.59,7.59,7.59,0,0,1,0,7.71,7.53,7.53,0,0,1,1,3.84,7.73,7.73,0,0,1,3.84,1,7.62,7.62,0,0,1,7.71,0a7.65,7.65,0,0,1,6.68,3.84ZM12.9,6.09a.62.62,0,0,0-.18-.46l-.92-.91a.6.6,0,0,0-.45-.19.61.61,0,0,0-.45.19L6.8,8.81,4.53,6.54a.61.61,0,0,0-.45-.19.58.58,0,0,0-.45.19l-.92.9a.64.64,0,0,0-.18.47.61.61,0,0,0,.18.45L6.35,12a.61.61,0,0,0,.45.19A.62.62,0,0,0,7.26,12l5.46-5.45A.61.61,0,0,0,12.9,6.09Z"/></g></g></svg>