<svg xmlns="http://www.w3.org/2000/svg" viewBox="0 0 13.2 13.7"><defs><style>.cls-1{isolation:isolate;}.cls-2{fill:#0abff2;}</style></defs><g id="Layer_2" data-name="Layer 2"><g id="Layer_1-2" data-name="Layer 1"><g class="cls-1"><path class="cls-2" d="M13.2,6.8a1.14,1.14,0,0,1-.3.8L7.1,13.4a1.22,1.22,0,0,1-1.6,0l-.7-.7a1.22,1.22,0,0,1,0-1.6L7.4,8.5H1.1a1.14,1.14,0,0,1-.8-.3A1.14,1.14,0,0,1,0,7.4V6.3a1.14,1.14,0,0,1,.3-.8,1,1,0,0,1,.8-.3H7.4L4.8,2.6a1.14,1.14,0,0,1-.3-.8A1.14,1.14,0,0,1,4.8,1L5.5.3A1.22,1.22,0,0,1,7.1.3l5.8,5.8A.78.78,0,0,1,13.2,6.8Z"/></g></g></g></svg>