<svg xmlns="http://www.w3.org/2000/svg" viewBox="0 0 14.8 12.4"><defs><style>.cls-1{isolation:isolate;}.cls-2{fill:#0abff2;}</style></defs><g id="Layer_2" data-name="Layer 2"><g id="Layer_1-2" data-name="Layer 1"><g class="cls-1"><path class="cls-2" d="M14.8,1.6V6.2a.6.6,0,0,1-.1.4.52.52,0,0,1-.4.2L5,7.9v.2c0,.1,0,.2.1.2s0,.1,0,.2a3.93,3.93,0,0,1-.2.6h8.2a.57.57,0,0,1,.4,1,.52.52,0,0,1-.4.2H4a.52.52,0,0,1-.4-.2.52.52,0,0,1-.2-.4.76.76,0,0,1,.1-.4c.1-.2.2-.3.3-.5A1.24,1.24,0,0,1,4,8.5L2.4,1.2H.6A.52.52,0,0,1,.2,1,.52.52,0,0,1,0,.6.52.52,0,0,1,.2.2.52.52,0,0,1,.6,0H2.9a.37.37,0,0,1,.3.1c.1,0,.1.1.2.1s.1.1.1.2a.35.35,0,0,0,.1.2v.5H14.3a.52.52,0,0,1,.4.2C14.8,1.3,14.8,1.5,14.8,1.6ZM5.4,10.5a1.22,1.22,0,0,1,0,1.6,1.14,1.14,0,0,1-.8.3,1.14,1.14,0,0,1-.8-.3,1.22,1.22,0,0,1,0-1.6,1.14,1.14,0,0,1,.8-.3A1.33,1.33,0,0,1,5.4,10.5Zm8,0a1.22,1.22,0,1,1-.8-.3A1.33,1.33,0,0,1,13.4,10.5Z"/></g></g></g></svg>