<svg xmlns="http://www.w3.org/2000/svg" viewBox="0 0 11.5 12.17"><defs><style>.cls-1{fill:#00c0f2;}</style></defs><g id="Layer_2" data-name="Layer 2"><g id="Layer_1-2" data-name="Layer 1"><path class="cls-1" d="M11.5,6.09a1,1,0,0,1-.29.71L6.13,11.88a1,1,0,0,1-.72.29,1,1,0,0,1-.7-.29l-.58-.58a1,1,0,0,1-.3-.71.94.94,0,0,1,.3-.71L6.41,7.59H.91a.83.83,0,0,1-.66-.3A1,1,0,0,1,0,6.59v-1a1,1,0,0,1,.25-.71.82.82,0,0,1,.66-.29h5.5L4.13,2.29a.92.92,0,0,1-.3-.7.93.93,0,0,1,.3-.71L4.71.3a1,1,0,0,1,.7-.3,1,1,0,0,1,.72.3l5.08,5.08A1,1,0,0,1,11.5,6.09Z"/></g></g></svg>