<svg xmlns="http://www.w3.org/2000/svg" viewBox="0 0 13.73 15.14"><defs><style>.cls-1{fill:#ec1651;}</style></defs><g id="Layer_2" data-name="Layer 2"><g id="Layer_1-2" data-name="Layer 1"><path class="cls-1" d="M12.14,2.13a4.32,4.32,0,0,0-1.54-.41H9.39A1.58,1.58,0,0,0,8.47.23,2.22,2.22,0,0,0,7.6,0H6.13a2.22,2.22,0,0,0-.87.23,1.58,1.58,0,0,0-.92,1.48H3.13a4.32,4.32,0,0,0-1.54.41A2.7,2.7,0,0,0,0,4.69a.44.44,0,0,0,.45.43H.84l1.73,9.67a.43.43,0,0,0,.44.35h7.71a.43.43,0,0,0,.44-.35l1.73-9.67h.39a.44.44,0,0,0,.45-.43,2.7,2.7,0,0,0-1.59-2.56ZM.93,4.26A1.83,1.83,0,0,1,2,2.9a3.28,3.28,0,0,1,1.18-.32h7.41a3.34,3.34,0,0,1,1.16.31A1.85,1.85,0,0,1,12.8,4.26Zm4.3-2.55A.72.72,0,0,1,5.65,1,1.31,1.31,0,0,1,6.16.86H7.57A1.48,1.48,0,0,1,8.08,1a.72.72,0,0,1,.42.71H5.23Zm5.12,12.58h-7L1.75,5.12H12Z"/><path class="cls-1" d="M6.87,12.86a.44.44,0,0,0,.44-.43v-6a.45.45,0,0,0-.89,0v6.05a.44.44,0,0,0,.45.43Z"/><path class="cls-1" d="M4.23,12.47a.45.45,0,0,0,.45.39h0a.44.44,0,0,0,.4-.47L4.57,6.34A.46.46,0,0,0,4.08,6a.44.44,0,0,0-.4.47Z"/><path class="cls-1" d="M9,12.86h0a.45.45,0,0,0,.45-.39l.55-6.05A.44.44,0,0,0,9.65,6a.46.46,0,0,0-.49.39l-.55,6.05a.44.44,0,0,0,.4.47Z"/></g></g></svg>