<svg xmlns="http://www.w3.org/2000/svg" xmlns:xlink="http://www.w3.org/1999/xlink" viewBox="0 0 1431.14 1762.74"><defs><style>.cls-1{fill:url(#linear-gradient);}.cls-2{clip-path:url(#clip-path);}.cls-3{fill:url(#linear-gradient-3);}</style><linearGradient id="linear-gradient" y1="9.3" x2="18.57" y2="9.3" gradientUnits="userSpaceOnUse"><stop offset="0" stop-color="#00d3a7"/><stop offset="1" stop-color="#0ac0f2"/></linearGradient><clipPath id="clip-path" transform="translate(445.2 604.58)"><path class="cls-1" d="M18.1,12.22a9.36,9.36,0,0,1-1.3,2.56,10.73,10.73,0,0,1-2,2,10,10,0,0,1-2.56,1.32,10.44,10.44,0,0,1-2.92.48,10.53,10.53,0,0,1-3-.48A9.72,9.72,0,0,1,3.81,16.8a9.39,9.39,0,0,1-2-2A9.36,9.36,0,0,1,0,9.3a9.26,9.26,0,0,1,.48-3A9.16,9.16,0,0,1,1.8,3.81a8.72,8.72,0,0,1,2-2A9.43,9.43,0,0,1,6.35.48,9.26,9.26,0,0,1,9.3,0a9.17,9.17,0,0,1,2.92.48A9.7,9.7,0,0,1,14.78,1.8a9.86,9.86,0,0,1,2,2,9.38,9.38,0,0,1,1.3,2.54,9,9,0,0,1,.47,3A8.89,8.89,0,0,1,18.1,12.22ZM15.34,6.74a6.24,6.24,0,0,0-1.4-2.1,6.83,6.83,0,0,0-2.08-1.41A6.69,6.69,0,0,0,9.3,2.71a6.5,6.5,0,0,0-2.56.52A6.56,6.56,0,0,0,3.23,6.74,6.23,6.23,0,0,0,2.71,9.3a6.34,6.34,0,0,0,.52,2.56,6.6,6.6,0,0,0,1.41,2.08,6.8,6.8,0,0,0,2.1,1.43,6.67,6.67,0,0,0,2.56.49,6.86,6.86,0,0,0,2.56-.49,7.08,7.08,0,0,0,2.08-1.43,6.26,6.26,0,0,0,1.4-2.08,6.34,6.34,0,0,0,.52-2.56A6.23,6.23,0,0,0,15.34,6.74Zm-4.5,3.71a.4.4,0,0,1-.11.28.46.46,0,0,1-.28.11H6.59a.38.38,0,0,1-.28-.11.36.36,0,0,1-.11-.28V9.69a.38.38,0,0,1,.11-.28.35.35,0,0,1,.28-.11H9.3V5a.28.28,0,0,1,.11-.26.28.28,0,0,1,.26-.11h.78a.34.34,0,0,1,.28.11.37.37,0,0,1,.11.26Z"/></clipPath><linearGradient id="linear-gradient-3" x1="-549.56" y1="682.46" x2="-547.41" y2="682.46" gradientTransform="translate(-13453.27 8641.69) rotate(180) scale(25.42 12.26)" xlink:href="#linear-gradient"/></defs><g id="Layer_2" data-name="Layer 2"><g id="Layer_1-2" data-name="Layer 1"><path class="cls-1" d="M18.1,12.22a9.36,9.36,0,0,1-1.3,2.56,10.73,10.73,0,0,1-2,2,10,10,0,0,1-2.56,1.32,10.44,10.44,0,0,1-2.92.48,10.53,10.53,0,0,1-3-.48A9.72,9.72,0,0,1,3.81,16.8a9.39,9.39,0,0,1-2-2A9.36,9.36,0,0,1,0,9.3a9.26,9.26,0,0,1,.48-3A9.16,9.16,0,0,1,1.8,3.81a8.72,8.72,0,0,1,2-2A9.43,9.43,0,0,1,6.35.48,9.26,9.26,0,0,1,9.3,0a9.17,9.17,0,0,1,2.92.48A9.7,9.7,0,0,1,14.78,1.8a9.86,9.86,0,0,1,2,2,9.38,9.38,0,0,1,1.3,2.54,9,9,0,0,1,.47,3A8.89,8.89,0,0,1,18.1,12.22ZM15.34,6.74a6.24,6.24,0,0,0-1.4-2.1,6.83,6.83,0,0,0-2.08-1.41A6.69,6.69,0,0,0,9.3,2.71a6.5,6.5,0,0,0-2.56.52A6.56,6.56,0,0,0,3.23,6.74,6.23,6.23,0,0,0,2.71,9.3a6.34,6.34,0,0,0,.52,2.56,6.6,6.6,0,0,0,1.41,2.08,6.8,6.8,0,0,0,2.1,1.43,6.67,6.67,0,0,0,2.56.49,6.86,6.86,0,0,0,2.56-.49,7.08,7.08,0,0,0,2.08-1.43,6.26,6.26,0,0,0,1.4-2.08,6.34,6.34,0,0,0,.52-2.56A6.23,6.23,0,0,0,15.34,6.74Zm-4.5,3.71a.4.4,0,0,1-.11.28.46.46,0,0,1-.28.11H6.59a.38.38,0,0,1-.28-.11.36.36,0,0,1-.11-.28V9.69a.38.38,0,0,1,.11-.28.35.35,0,0,1,.28-.11H9.3V5a.28.28,0,0,1,.11-.26.28.28,0,0,1,.26-.11h.78a.34.34,0,0,1,.28.11.37.37,0,0,1,.11.26Z" transform="translate(445.2 604.58)"/><g class="cls-2"><rect class="cls-3" x="-528.8" y="-324.06" width="1598.35" height="1201.7" transform="translate(400.83 1106.43) rotate(-81.24)"/></g></g></g></svg>