<svg xmlns="http://www.w3.org/2000/svg" viewBox="0 0 490.39 60.83"><defs><style>.cls-1,.cls-2{fill:red;}.cls-2{fill-rule:evenodd;}</style></defs><g id="Layer_2" data-name="Layer 2"><g id="Layer_1-2" data-name="Layer 1"><path class="cls-1" d="M75.31,45.64v15H68.59v-15Zm0-8.56v7.76H68.59V37.08Zm0-8.95V36H68.59V28.13Zm25,32.51H94.6V27.45A3.67,3.67,0,0,0,94.33,26a4,4,0,0,0-.83-1.21A3.78,3.78,0,0,0,92.29,24a3.4,3.4,0,0,0-1.36-.27H75.31v2.94H68.59V16.91H90.93a10.47,10.47,0,0,1,9.64,6.47h0a11,11,0,0,1,.76,4.08V60.64Z"/><path class="cls-2" d="M137.15,54.88l-.06,4.76v1h-21.3a11.07,11.07,0,0,1-4.07-.75,10.26,10.26,0,0,1-3.38-2.25,10,10,0,0,1-2.26-3.4h0a11.13,11.13,0,0,1-.75-4.14V27.46a11.22,11.22,0,0,1,.75-4.15h0a10,10,0,0,1,2.26-3.4,10.21,10.21,0,0,1,3.38-2.25,11.07,11.07,0,0,1,4.07-.75h21.31v6.8H115.78a3.78,3.78,0,0,0-1.42.26,3.69,3.69,0,0,0-1.21.83h0a3.67,3.67,0,0,0-.82,1.2,3.85,3.85,0,0,0-.27,1.47v7.41h23.46v6.8H112.05v8.41a3.85,3.85,0,0,0,.27,1.47,3.58,3.58,0,0,0,.81,1.21,3.74,3.74,0,0,0,1.19.82,3.78,3.78,0,0,0,1.42.26h21.42Z"/><polygon class="cls-2" points="171.9 23.71 160.42 23.71 160.42 59.62 160.42 60.64 159.4 60.64 154.72 60.64 153.7 60.64 153.7 59.62 153.7 23.71 142.16 23.71 141.15 23.71 141.15 22.69 141.15 17.93 141.15 16.91 142.16 16.91 171.9 16.91 172.91 16.91 172.91 17.93 172.91 22.69 172.91 23.71 171.9 23.71"/><path class="cls-2" d="M208.49,51.55a9.33,9.33,0,0,1-.81,4,8.34,8.34,0,0,1-2.43,3h0A9.92,9.92,0,0,1,202,60.27a13.17,13.17,0,0,1-3.92.56H177.58V54h20.51c2.45,0,3.67-.82,3.67-2.48V44.16a2.1,2.1,0,0,0-.76-1.81h0a5,5,0,0,0-2.91-.66H187.31a12.89,12.89,0,0,1-3.92-.57,9.93,9.93,0,0,1-3.24-1.74,8.24,8.24,0,0,1-2.43-3,9.41,9.41,0,0,1-.81-4h0V26.22h0a9.41,9.41,0,0,1,.81-4,8.24,8.24,0,0,1,2.43-3,9.67,9.67,0,0,1,3.24-1.74h0a12.89,12.89,0,0,1,3.92-.57h20.57v6.8H187.31a4.92,4.92,0,0,0-2.91.67,2.13,2.13,0,0,0-.76,1.83v6.17a2.14,2.14,0,0,0,.76,1.83,4.92,4.92,0,0,0,2.91.67h10.78a12.85,12.85,0,0,1,3.92.57,9.75,9.75,0,0,1,3.23,1.72h0a8.14,8.14,0,0,1,2.44,3,9.28,9.28,0,0,1,.81,3.94Z"/><path class="cls-2" d="M244.32,54.88l-.07,4.76v1H223a11,11,0,0,1-4.07-.75,10.16,10.16,0,0,1-3.38-2.25,9.88,9.88,0,0,1-2.26-3.4h0a11.22,11.22,0,0,1-.75-4.15V27.46a11.14,11.14,0,0,1,.75-4.15h0a10.33,10.33,0,0,1,5.64-5.65,11,11,0,0,1,4.07-.75h21.31v6.8H223a3.78,3.78,0,0,0-1.42.26h0a3.73,3.73,0,0,0-1.22.83h0a3.39,3.39,0,0,0-.82,1.2,3.85,3.85,0,0,0-.27,1.47v7.41h23.45v6.8H219.22v8.41a4.14,4.14,0,0,0,.26,1.48h0a3.64,3.64,0,0,0,.81,1.2,3.74,3.74,0,0,0,1.19.82,3.82,3.82,0,0,0,1.42.26h21.43Z"/><path class="cls-2" d="M292.81,58.61h2.66V27.46a9.15,9.15,0,0,0-.6-3.4,8,8,0,0,0-1.81-2.71,8.19,8.19,0,0,0-2.7-1.8,8.82,8.82,0,0,0-3.31-.6h-36.7V58.61H253V21.67h18.55V58.61h2.66V21.67h12.88a5.52,5.52,0,0,1,2.19.43h0a5.66,5.66,0,0,1,1.85,1.25h0a5.74,5.74,0,0,1,1.25,1.87h0a5.71,5.71,0,0,1,.42,2.23Z"/><path class="cls-2" d="M296.49,59.62h-4.7V27.45a4.59,4.59,0,0,0-1.37-3.38,4.54,4.54,0,0,0-3.33-1.38H275.23V59.62h-4.69V22.69H254V59.62h-4.69V17.93h37.72a9.26,9.26,0,0,1,9.44,9.53Z"/><path class="cls-2" d="M371.49,60.64h-5.72V27.45h0a3.65,3.65,0,0,0-.27-1.41,4.07,4.07,0,0,0-.83-1.22,3.78,3.78,0,0,0-1.21-.84,3.45,3.45,0,0,0-1.37-.27H346.48V60.64h-6.72V16.91H362.1a10.47,10.47,0,0,1,9.64,6.47h0a10.77,10.77,0,0,1,.76,4.08h0V60.64Z"/><polygon class="cls-2" points="407.25 23.71 395.78 23.71 395.78 59.62 395.78 60.64 394.76 60.64 390.07 60.64 389.05 60.64 389.05 59.62 389.05 23.71 377.52 23.71 376.5 23.71 376.5 22.69 376.5 17.93 376.5 16.91 377.52 16.91 407.25 16.91 408.26 16.91 408.26 17.93 408.26 22.69 408.26 23.71 407.25 23.71"/><polygon class="cls-1" points="413.28 16.91 417.97 16.91 418.99 16.91 418.99 17.93 418.99 59.62 418.99 60.64 417.97 60.64 413.28 60.64 412.26 60.64 412.26 59.62 412.26 17.93 412.26 16.91 413.28 16.91"/><path class="cls-2" d="M454.81,54.88l-.06,4.76,0,1H433.44a11.07,11.07,0,0,1-4.07-.75A10.22,10.22,0,0,1,426,57.65a10,10,0,0,1-2.27-3.4A11.22,11.22,0,0,1,423,50.1h0V27.46h0a11.14,11.14,0,0,1,.75-4.15h0a9.78,9.78,0,0,1,2.26-3.4,10.07,10.07,0,0,1,3.37-2.25,11.07,11.07,0,0,1,4.07-.75h21.31v6.8H433.44a3.49,3.49,0,0,0-2.63,1.09A3.55,3.55,0,0,0,430,26a3.76,3.76,0,0,0-.27,1.46V50.1a3.81,3.81,0,0,0,.27,1.47,3.46,3.46,0,0,0,.8,1.2h0a3.44,3.44,0,0,0,2.6,1.08h21.43Z"/><path class="cls-2" d="M490.39,51.55a9.33,9.33,0,0,1-.81,4,8.24,8.24,0,0,1-2.45,3h0a9.84,9.84,0,0,1-3.23,1.72,13.05,13.05,0,0,1-3.91.56H459.48V54H480c2.44,0,3.67-.82,3.67-2.48V44.16a2.1,2.1,0,0,0-.76-1.81,4.92,4.92,0,0,0-2.91-.67H469.2a12.83,12.83,0,0,1-3.91-.57,10,10,0,0,1-3.23-1.73h0a8.22,8.22,0,0,1-2.44-3.05,9.41,9.41,0,0,1-.81-4V26.22a9.41,9.41,0,0,1,.81-4,8.22,8.22,0,0,1,2.44-3.05h0a9.78,9.78,0,0,1,3.23-1.73h0a12.83,12.83,0,0,1,3.91-.57h20.58v6.8H469.2a4.86,4.86,0,0,0-2.9.67,2.13,2.13,0,0,0-.76,1.83v6.17a2.14,2.14,0,0,0,.76,1.83,4.86,4.86,0,0,0,2.9.67H480a12.85,12.85,0,0,1,3.92.57,9.62,9.62,0,0,1,3.22,1.72h0a8.09,8.09,0,0,1,2.45,3,9.28,9.28,0,0,1,.81,3.94Z"/><path class="cls-1" d="M255.74,3.15l-3.05,8.4s0,0,0,0a9.06,9.06,0,0,1-1,2.28,1.88,1.88,0,0,1-1.66.88,3.37,3.37,0,0,1-.88-.16L249,13.28a2.58,2.58,0,0,0,.77.12,1.16,1.16,0,0,0,1-.42,7.11,7.11,0,0,0,.65-1.55l-3-8.28h1.45l1.88,5.41c.11.34.22.76.35,1.28h0a14.22,14.22,0,0,1,.48-1.71l1.75-5Z"/><path class="cls-1" d="M260.12,3a3.57,3.57,0,0,1,2.68,1.09,4.27,4.27,0,0,1,1.06,3.09,4.38,4.38,0,0,1-1.15,3.45,3.83,3.83,0,0,1-2.59,1,3.69,3.69,0,0,1-2.61-1,4.24,4.24,0,0,1-1.12-3.28A4.42,4.42,0,0,1,257.47,4,3.61,3.61,0,0,1,260.12,3m0,7.49a2,2,0,0,0,1.76-.89,4.12,4.12,0,0,0,.6-2.34,3.48,3.48,0,0,0-.68-2.33,2.18,2.18,0,0,0-3.37,0,3.65,3.65,0,0,0-.66,2.38,3.59,3.59,0,0,0,.67,2.36A2.12,2.12,0,0,0,260.12,10.46Z"/><path class="cls-1" d="M271.88,11.41h-1.2V10.2h0a2.86,2.86,0,0,1-2.5,1.41,3,3,0,0,1-1.54-.41,1.93,1.93,0,0,1-1-1.1,5.83,5.83,0,0,1-.23-1.83V3.16h1.35V7.73a8.23,8.23,0,0,0,.1,1.57,1.26,1.26,0,0,0,.52.78,1.69,1.69,0,0,0,1,.31,2.27,2.27,0,0,0,1.45-.54,2.91,2.91,0,0,0,.67-2.28V3.16h1.35Z"/><path class="cls-1" d="M278.26,3.41,277.8,4.7a1.89,1.89,0,0,0-1-.3,1.24,1.24,0,0,0-1.15.7,4.12,4.12,0,0,0-.39,2v4.34h-1.35V3.15h1.23V4.4h0c.43-1,1-1.43,1.69-1.43a2.58,2.58,0,0,1,1.38.44"/><path class="cls-1" d="M284.71,11.41h-1.35V3.16h1.35Zm0-9.82h-1.35V0h1.35Z"/><path class="cls-1" d="M293.28,11.41h-1.36v-5a2.67,2.67,0,0,0-.43-1.74,1.59,1.59,0,0,0-1.23-.48,2.16,2.16,0,0,0-1.13.31,1.7,1.7,0,0,0-.77.86,4.46,4.46,0,0,0-.22,1.56v4.51h-1.35V3.16H288V4.32h0a2.81,2.81,0,0,1,1-1A3,3,0,0,1,290.54,3a3.63,3.63,0,0,1,1.25.23,2.11,2.11,0,0,1,1,.7,2.23,2.23,0,0,1,.44,1,8.83,8.83,0,0,1,.09,1.43Z"/><path class="cls-1" d="M301.83,11.41h-1.36v-5A2.55,2.55,0,0,0,300,4.65a1.55,1.55,0,0,0-1.21-.48,2.17,2.17,0,0,0-1.14.31,1.7,1.7,0,0,0-.77.86,4.46,4.46,0,0,0-.22,1.56v4.51h-1.35V3.16h1.22V4.32h0a2.81,2.81,0,0,1,1.05-1A2.93,2.93,0,0,1,299.09,3a3.58,3.58,0,0,1,1.24.23,2.09,2.09,0,0,1,1,.7,2.35,2.35,0,0,1,.44,1,8.83,8.83,0,0,1,.09,1.43Z"/><path class="cls-1" d="M307.11,3a3.54,3.54,0,0,1,2.67,1.09,4.19,4.19,0,0,1,1.07,3.09,4.38,4.38,0,0,1-1.15,3.45,3.84,3.84,0,0,1-2.59,1,3.73,3.73,0,0,1-2.62-1,4.28,4.28,0,0,1-1.11-3.28A4.38,4.38,0,0,1,304.46,4,3.61,3.61,0,0,1,307.11,3m0,7.49a2,2,0,0,0,1.76-.89,4.12,4.12,0,0,0,.6-2.34,3.48,3.48,0,0,0-.68-2.33,2.14,2.14,0,0,0-1.68-.79,2.11,2.11,0,0,0-1.69.8,3.65,3.65,0,0,0-.66,2.38,3.54,3.54,0,0,0,.67,2.36A2.1,2.1,0,0,0,307.11,10.46Z"/><path class="cls-1" d="M318.88,3.15l-3,8.26h-1.26l-3-8.26H313l1.64,4.78a13.93,13.93,0,0,1,.55,1.84h0a13.55,13.55,0,0,1,.41-1.34l1.85-5.28Z"/><path class="cls-1" d="M327,11.41h-1.42a3.12,3.12,0,0,1-.28-1,4.3,4.3,0,0,1-2.93,1.21,2.82,2.82,0,0,1-2-.65,2.18,2.18,0,0,1-.73-1.72,2.24,2.24,0,0,1,.7-1.7,4.33,4.33,0,0,1,2.43-.88l1.26-.2a6.23,6.23,0,0,0,1.17-.29,6.24,6.24,0,0,0,0-.89,1.34,1.34,0,0,0-.22-.54,1.28,1.28,0,0,0-.59-.45,2.93,2.93,0,0,0-1.09-.17,2.4,2.4,0,0,0-1.37.34,1.83,1.83,0,0,0-.69,1.24l-1.33-.18A2.81,2.81,0,0,1,321,3.61,4.2,4.2,0,0,1,323.49,3a3.86,3.86,0,0,1,2.1.44,1.8,1.8,0,0,1,.83,1.06,7,7,0,0,1,.15,1.6V8a22.82,22.82,0,0,0,.07,2.3,2.77,2.77,0,0,0,.37,1.15m-1.79-3.63V7.27a14.15,14.15,0,0,1-2.59.58q-1.53.21-1.53,1.35a1.22,1.22,0,0,0,.41.93,1.71,1.71,0,0,0,1.19.37,2.69,2.69,0,0,0,1.76-.62A2.58,2.58,0,0,0,325.22,7.78Z"/><path class="cls-1" d="M331.75,11.4a5.16,5.16,0,0,1-1,.12,2.11,2.11,0,0,1-1.29-.32,1.33,1.33,0,0,1-.49-.82A8.37,8.37,0,0,1,328.87,9V4.24h-1V3.15h1v-2l1.35-.85v2.9h1.35V4.24h-1.35V9.07a2.29,2.29,0,0,0,.12.88q.12.27.63.27a3.26,3.26,0,0,0,.6-.07Z"/><path class="cls-1" d="M334.27,11.41h-1.35V3.16h1.35Zm0-9.82h-1.35V0h1.35Z"/><path class="cls-1" d="M342.8,3.15l-3,8.26h-1.26l-3-8.26h1.42l1.65,4.78a18.13,18.13,0,0,1,.55,1.84h0c.08-.33.22-.78.41-1.34l1.85-5.28Z"/><path class="cls-1" d="M350.93,7.64h-6a3.28,3.28,0,0,0,.75,2.09,2.22,2.22,0,0,0,1.68.73,2,2,0,0,0,1.3-.43,2.59,2.59,0,0,0,.8-1.28l1.39.18a3.52,3.52,0,0,1-1.24,2,3.59,3.59,0,0,1-2.25.69,3.51,3.51,0,0,1-2.8-1.14,4.46,4.46,0,0,1-1-3.11,4.92,4.92,0,0,1,1-3.17A3.33,3.33,0,0,1,347.32,3a3.68,3.68,0,0,1,1.68.4,3.26,3.26,0,0,1,1.37,1.34,5.91,5.91,0,0,1,.56,2.93m-1.38-1.16a2.47,2.47,0,0,0-.76-1.81,2.27,2.27,0,0,0-1.47-.56,2,2,0,0,0-1.56.66,2.74,2.74,0,0,0-.71,1.71Z"/><path class="cls-1" d="M359.94,11.4a5.34,5.34,0,0,1-1,.12,2.14,2.14,0,0,1-1.3-.32,1.33,1.33,0,0,1-.49-.82A8.37,8.37,0,0,1,357.05,9V4.24h-1V3.15h1v-2L358.4.25v2.9h1.35V4.24H358.4V9.07a2.29,2.29,0,0,0,.12.88c.09.18.29.27.63.27a3.07,3.07,0,0,0,.6-.07Z"/><path class="cls-1" d="M368,7.64h-6a3.28,3.28,0,0,0,.76,2.09,2.2,2.2,0,0,0,1.68.73,2,2,0,0,0,1.3-.43,2.66,2.66,0,0,0,.8-1.28l1.38.18a3.45,3.45,0,0,1-1.23,2,3.63,3.63,0,0,1-2.25.69,3.52,3.52,0,0,1-2.81-1.14,4.51,4.51,0,0,1-1-3.11,4.92,4.92,0,0,1,1-3.17A3.36,3.36,0,0,1,364.41,3a3.64,3.64,0,0,1,1.67.4,3.33,3.33,0,0,1,1.38,1.34A6,6,0,0,1,368,7.64m-1.39-1.16a2.42,2.42,0,0,0-.75-1.81,2.27,2.27,0,0,0-1.47-.56,2.06,2.06,0,0,0-1.57.66,2.8,2.8,0,0,0-.71,1.71Z"/><path class="cls-1" d="M376.17,8.56a3.49,3.49,0,0,1-1.2,2.31,3.36,3.36,0,0,1-2.13.73,3.24,3.24,0,0,1-2.67-1.17,4.87,4.87,0,0,1-.95-3.13,5.32,5.32,0,0,1,.54-2.58,3.2,3.2,0,0,1,1.37-1.36A3.92,3.92,0,0,1,372.84,3a3.38,3.38,0,0,1,2.11.66A2.92,2.92,0,0,1,376,5.57l-1.31.21a2.37,2.37,0,0,0-.66-1.25,1.63,1.63,0,0,0-1.15-.42,2,2,0,0,0-1.72.83,4,4,0,0,0-.59,2.33,4.08,4.08,0,0,0,.58,2.36,1.89,1.89,0,0,0,1.65.83,1.85,1.85,0,0,0,1.37-.52,2.74,2.74,0,0,0,.63-1.56Z"/><path class="cls-1" d="M383.84,11.41h-1.36V6.2a2.34,2.34,0,0,0-.42-1.52,1.56,1.56,0,0,0-1.25-.51,2.14,2.14,0,0,0-1.48.6,2.82,2.82,0,0,0-.65,2.13v4.51h-1.35V0h1.35V4.1A3,3,0,0,1,381.09,3a3.57,3.57,0,0,1,1.47.32,1.91,1.91,0,0,1,1,1,5,5,0,0,1,.29,1.88Z"/><path class="cls-1" d="M392.38,11.41H391v-5a2.6,2.6,0,0,0-.44-1.74,1.58,1.58,0,0,0-1.22-.48,2.22,2.22,0,0,0-1.14.31,1.68,1.68,0,0,0-.76.86,4.2,4.2,0,0,0-.23,1.56v4.51h-1.35V3.16h1.22V4.32h0a2.89,2.89,0,0,1,1.05-1A3,3,0,0,1,389.65,3a3.62,3.62,0,0,1,1.24.23,2.14,2.14,0,0,1,1.4,1.7,8.83,8.83,0,0,1,.09,1.43Z"/><path class="cls-1" d="M397.67,3a3.57,3.57,0,0,1,2.67,1.09,4.23,4.23,0,0,1,1.07,3.09,4.42,4.42,0,0,1-1.15,3.45,3.84,3.84,0,0,1-2.59,1,3.71,3.71,0,0,1-2.62-1,4.28,4.28,0,0,1-1.11-3.28A4.42,4.42,0,0,1,395,4,3.65,3.65,0,0,1,397.67,3m0,7.49a2,2,0,0,0,1.75-.89,4.12,4.12,0,0,0,.6-2.34,3.48,3.48,0,0,0-.67-2.33,2.17,2.17,0,0,0-1.68-.79,2.1,2.1,0,0,0-1.69.8,3.65,3.65,0,0,0-.66,2.38A3.54,3.54,0,0,0,396,9.65,2.1,2.1,0,0,0,397.67,10.46Z"/><rect class="cls-1" x="402.97" width="1.35" height="11.41"/><path class="cls-1" d="M409.63,3a3.54,3.54,0,0,1,2.67,1.09,4.23,4.23,0,0,1,1.07,3.09,4.38,4.38,0,0,1-1.15,3.45,3.84,3.84,0,0,1-2.59,1,3.73,3.73,0,0,1-2.62-1,4.28,4.28,0,0,1-1.11-3.28A4.42,4.42,0,0,1,407,4,3.65,3.65,0,0,1,409.63,3m0,7.49a2,2,0,0,0,1.76-.89,4.2,4.2,0,0,0,.6-2.34,3.48,3.48,0,0,0-.68-2.33,2.16,2.16,0,0,0-1.68-.79,2.1,2.1,0,0,0-1.69.8,3.65,3.65,0,0,0-.66,2.38A3.54,3.54,0,0,0,408,9.65,2.1,2.1,0,0,0,409.63,10.46Z"/><path class="cls-1" d="M421.46,10.3a7.84,7.84,0,0,1-.34,2.63,2.67,2.67,0,0,1-1.2,1.35,4.22,4.22,0,0,1-2.07.48,3.9,3.9,0,0,1-2.25-.62,2.31,2.31,0,0,1-.89-2l1.31.21a1.3,1.3,0,0,0,.53,1,2.16,2.16,0,0,0,1.29.33,2.22,2.22,0,0,0,1.53-.45,1.81,1.81,0,0,0,.6-1.08,10.22,10.22,0,0,0,.11-1.76,2.72,2.72,0,0,1-2.21,1.08,3,3,0,0,1-2.5-1.19,4.72,4.72,0,0,1-.94-3,4.84,4.84,0,0,1,.92-3A3,3,0,0,1,417.89,3a2.74,2.74,0,0,1,2.29,1.17h0v-1h1.25Zm-3.46,0a2.08,2.08,0,0,0,1.53-.71,3.48,3.48,0,0,0,.67-2.39,3.59,3.59,0,0,0-.64-2.27A2,2,0,0,0,418,4.11a1.86,1.86,0,0,0-1.56.81,3.66,3.66,0,0,0-.61,2.22,3.64,3.64,0,0,0,.64,2.38A2,2,0,0,0,418,10.27Z"/><path class="cls-1" d="M430,3.15l-3,8.4a.43.43,0,0,0,0,0,9,9,0,0,1-1,2.28,1.86,1.86,0,0,1-1.65.88,3.23,3.23,0,0,1-.88-.16l-.14-1.32a2.63,2.63,0,0,0,.77.12,1.18,1.18,0,0,0,1-.42,6.72,6.72,0,0,0,.64-1.55l-3-8.28h1.46L426,8.56c.11.34.23.76.35,1.28h0a11.29,11.29,0,0,1,.48-1.71l1.74-5Z"/><path class="cls-1" d="M436.71,4.22A2.49,2.49,0,0,1,439,3a3,3,0,0,1,2.48,1.17,5,5,0,0,1,.91,3.08,4.79,4.79,0,0,1-1,3.2,3.12,3.12,0,0,1-2.47,1.19,2.4,2.4,0,0,1-2.05-1.06h0v4h-1.35V3.16h1.23V4.22Zm2.09,6.24a1.9,1.9,0,0,0,1.57-.82A4,4,0,0,0,441,7.22a3.93,3.93,0,0,0-.6-2.34,1.84,1.84,0,0,0-1.53-.82,1.87,1.87,0,0,0-1.58.91,4.16,4.16,0,0,0-.61,2.36,3.89,3.89,0,0,0,.59,2.33A1.84,1.84,0,0,0,438.8,10.46Z"/><path class="cls-1" d="M448.27,3.41l-.46,1.29a1.92,1.92,0,0,0-1-.3,1.24,1.24,0,0,0-1.15.7,4.12,4.12,0,0,0-.39,2v4.34h-1.35V3.15h1.23V4.4h0c.43-1,1-1.43,1.68-1.43a2.58,2.58,0,0,1,1.39.44"/><path class="cls-1" d="M452.34,3A3.57,3.57,0,0,1,455,4.06a4.27,4.27,0,0,1,1.06,3.09,4.38,4.38,0,0,1-1.15,3.45,3.84,3.84,0,0,1-2.59,1,3.73,3.73,0,0,1-2.62-1,4.28,4.28,0,0,1-1.11-3.28A4.38,4.38,0,0,1,449.69,4,3.61,3.61,0,0,1,452.34,3m0,7.49a2,2,0,0,0,1.76-.89,4.2,4.2,0,0,0,.6-2.34A3.48,3.48,0,0,0,454,4.9a2.16,2.16,0,0,0-1.68-.79,2.1,2.1,0,0,0-1.69.8A3.65,3.65,0,0,0,450,7.29a3.54,3.54,0,0,0,.67,2.36A2.1,2.1,0,0,0,452.34,10.46Z"/><path class="cls-1" d="M464.11,3.15l-3,8.26h-1.26l-3-8.26h1.43l1.64,4.78a13.93,13.93,0,0,1,.55,1.84h0a13.55,13.55,0,0,1,.41-1.34l1.85-5.28Z"/><path class="cls-1" d="M466.68,11.41h-1.35V3.16h1.35Zm0-9.82h-1.35V0h1.35Z"/><path class="cls-1" d="M475.18,11.41h-1.26V10.36h0a2.37,2.37,0,0,1-2.19,1.25,3.06,3.06,0,0,1-2.45-1.2,4.75,4.75,0,0,1-1-3.12,5,5,0,0,1,.91-3.16A3,3,0,0,1,471.64,3a2.42,2.42,0,0,1,2.16,1.12h0V0h1.35Zm-3.34-.95a1.88,1.88,0,0,0,1.5-.76A3.58,3.58,0,0,0,474,7.41a4.42,4.42,0,0,0-.56-2.4,1.79,1.79,0,0,0-1.62-.9,1.74,1.74,0,0,0-1.58.88,4.33,4.33,0,0,0-.53,2.3A4.53,4.53,0,0,0,470,9a2.14,2.14,0,0,0,.8,1.06A1.88,1.88,0,0,0,471.84,10.46Z"/><path class="cls-1" d="M484.21,7.64h-6A3.28,3.28,0,0,0,479,9.73a2.2,2.2,0,0,0,1.68.73A2,2,0,0,0,482,10a2.65,2.65,0,0,0,.79-1.28l1.4.18a3.52,3.52,0,0,1-1.24,2,3.59,3.59,0,0,1-2.25.69,3.52,3.52,0,0,1-2.81-1.14,4.51,4.51,0,0,1-1-3.11,4.92,4.92,0,0,1,1-3.17A3.35,3.35,0,0,1,480.6,3a3.71,3.71,0,0,1,1.68.4,3.37,3.37,0,0,1,1.37,1.34,6,6,0,0,1,.56,2.93m-1.39-1.16a2.42,2.42,0,0,0-.75-1.81,2.27,2.27,0,0,0-1.47-.56,2.06,2.06,0,0,0-1.57.66,2.86,2.86,0,0,0-.71,1.71Z"/><path class="cls-1" d="M490.13,3.41l-.47,1.29a1.86,1.86,0,0,0-1-.3,1.24,1.24,0,0,0-1.15.7,4.24,4.24,0,0,0-.39,2v4.34h-1.35V3.15H487V4.4h0c.43-1,1-1.43,1.69-1.43a2.64,2.64,0,0,1,1.39.44"/><path class="cls-2" d="M329,37.92V27.76a3.83,3.83,0,0,0-1-2.63,3.19,3.19,0,0,0-2.35-1.08H311.47a3.15,3.15,0,0,0-2.3,1.06h0a3.85,3.85,0,0,0-1,2.62V37.92H329Zm5.41,22.75H329v-16H308.17V60.57H301.8V27.74a11.15,11.15,0,0,1,.7-4,10.19,10.19,0,0,1,2.1-3.37,9.46,9.46,0,0,1,3.13-2.29,9.17,9.17,0,0,1,3.74-.77h15.44v.08a9,9,0,0,1,2.46.69,9.67,9.67,0,0,1,3.16,2.28,10.23,10.23,0,0,1,2.14,3.39,11.21,11.21,0,0,1,.71,4V60.67Z"/><path class="cls-1" d="M292.81,58.61h2.66V27.46a9.15,9.15,0,0,0-.6-3.4,8,8,0,0,0-1.81-2.71,8.19,8.19,0,0,0-2.7-1.8,8.82,8.82,0,0,0-3.31-.6h-36.7V58.61H253V21.67h18.55V58.61h2.66V21.67h12.88a5.52,5.52,0,0,1,2.19.43h0a5.66,5.66,0,0,1,1.85,1.25h0a5.74,5.74,0,0,1,1.25,1.87h0a5.71,5.71,0,0,1,.42,2.23Zm3.68,2h-5.71V27.45a3.8,3.8,0,0,0-.27-1.46h0a3.7,3.7,0,0,0-.81-1.19h0a3.69,3.69,0,0,0-1.19-.82h0a3.82,3.82,0,0,0-1.42-.26H276.25V60.64h-6.73V23.71H255V60.64h-6.73V16.91h38.74a10.87,10.87,0,0,1,4.07.75,10.07,10.07,0,0,1,3.37,2.25,9.83,9.83,0,0,1,2.26,3.4,11.22,11.22,0,0,1,.76,4.15V60.64Z"/><path class="cls-1" d="M15.24,2h0ZM13.48,60.49h-1A12.47,12.47,0,0,1,0,48V21.07l9.56,9.56.31.31.3-.31L11.5,29.3l.31-.31-.31-.3L1.63,18.82,6,14.41a1.35,1.35,0,0,1,.46-.3h0A1.59,1.59,0,0,1,7.05,14h0a1.36,1.36,0,0,1,1,.4h0l8.86,8.87.31.31.31-.31,1.32-1.33-.3-.3.3-.31L10,12.46a4.19,4.19,0,0,0-1.35-.93,4.06,4.06,0,0,0-1.6-.29h0a4,4,0,0,0-1.59.32,4.44,4.44,0,0,0-1.35.92h0L0,16.59V14.43A12.47,12.47,0,0,1,12.47,2h2.16l-3.5,3.5a5.06,5.06,0,0,0-1,1.27,3.8,3.8,0,0,0-.44,1.41,3.32,3.32,0,0,0,.15,1.54h0A3.56,3.56,0,0,0,10.75,11l1.7,1.7h0a3.77,3.77,0,0,0,1.33.87,3.35,3.35,0,0,0,1.55.15,4.28,4.28,0,0,0,1.41-.44,5.54,5.54,0,0,0,1.26-1h0l3.06-3.06a2,2,0,0,1,1-.63.74.74,0,0,1,.67.27l2,2h0a.74.74,0,0,1,.27.67,2,2,0,0,1-.62,1h0l-5.52,5.52-.31.31.31.3,1.31,1.32.31.31.31-.31,5.51-5.53a5,5,0,0,0,1-1.26,4,4,0,0,0,.45-1.41,3.44,3.44,0,0,0-.16-1.54A3.69,3.69,0,0,0,26.72,9h0l-2-2h0a3.52,3.52,0,0,0-1.34-.87A3.31,3.31,0,0,0,21.8,6a3.81,3.81,0,0,0-1.4.44h0a5.59,5.59,0,0,0-1.27,1h0l-3.05,3.05h0a1.92,1.92,0,0,1-1,.62.75.75,0,0,1-.68-.27h0L12.7,9.07h0a.78.78,0,0,1-.28-.68,2,2,0,0,1,.63-1l5.12-5.12L17.86,2h30A12.47,12.47,0,0,1,60.3,14.43V17H45A31.51,31.51,0,0,0,13.48,48.47Zm10.38,0H15.23v-12A29.75,29.75,0,0,1,45,18.7H60.3v8H48.74A24.89,24.89,0,0,0,23.86,51.54Zm10,0H25.34v-9a23.39,23.39,0,0,1,23.4-23.41H60.3V36h-8a18.38,18.38,0,0,0-13,5.4h0a18.43,18.43,0,0,0-5.4,13.05Zm9.43,0H35v-6A17.38,17.38,0,0,1,40,42.18h0a17.35,17.35,0,0,1,12.3-5.1h8v7.76H55.75A12.43,12.43,0,0,0,43.33,57.27ZM60.3,48A12.47,12.47,0,0,1,47.83,60.49h-3.7V57.27A11.63,11.63,0,0,1,55.75,45.64H60.3Z"/><path class="cls-2" d="M79,27.4a1.46,1.46,0,1,1-1.46-1.46A1.46,1.46,0,0,1,79,27.4"/><path class="cls-2" d="M79,36.53a1.46,1.46,0,1,1-1.46-1.46A1.47,1.47,0,0,1,79,36.53"/><path class="cls-2" d="M79,45.27a1.46,1.46,0,1,1-1.46-1.46A1.46,1.46,0,0,1,79,45.27"/></g></g></svg>