<svg xmlns="http://www.w3.org/2000/svg" viewBox="0 0 27.93 3.63"><defs><style>.cls-1{fill:#fff;fill-rule:evenodd;}</style></defs><g id="Layer_2" data-name="Layer 2"><g id="Layer_1-2" data-name="Layer 1"><path class="cls-1" d="M12.13,0h-10A1.82,1.82,0,0,0,0,1.43a1.82,1.82,0,0,0,1.4,2.1h10.7a1.82,1.82,0,0,0,2.1-1.4A1.82,1.82,0,0,0,12.83,0h-.7"/><path class="cls-1" d="M17.43,0a1.8,1.8,0,1,0,1.8,1.8h0A1.79,1.79,0,0,0,17.43,0"/><path class="cls-1" d="M21.83,0a1.8,1.8,0,1,0,1.8,1.8h0A1.86,1.86,0,0,0,21.83,0"/><path class="cls-1" d="M26.13,0a1.8,1.8,0,1,0,1.8,1.8h0A1.79,1.79,0,0,0,26.13,0"/></g></g></svg>