<svg xmlns="http://www.w3.org/2000/svg" viewBox="0 0 12 12"><defs><style>.cls-1{fill:red;}</style></defs><g id="Layer_2" data-name="Layer 2"><g id="Layer_1-2" data-name="Layer 1"><path class="cls-1" d="M3,.8A5.92,5.92,0,0,1,6,0,5.92,5.92,0,0,1,9,.8,6.05,6.05,0,0,1,11.2,3,5.92,5.92,0,0,1,12,6a5.92,5.92,0,0,1-.8,3A6.05,6.05,0,0,1,9,11.2,5.92,5.92,0,0,1,6,12a5.92,5.92,0,0,1-3-.8A6.05,6.05,0,0,1,.8,9,5.92,5.92,0,0,1,0,6,5.92,5.92,0,0,1,.8,3,6.05,6.05,0,0,1,3,.8ZM8.14,4.07l-.07.07A.23.23,0,0,1,8,4.22s0,0,0,0l0-.09,0,0a.5.5,0,0,1,.17-.12,2.19,2.19,0,0,1,.41-.09.41.41,0,0,1,.4.08s0,0,.07-.1.1-.09.12-.09l.11,0c.07,0,.11,0,.12-.05l0-.18a.13.13,0,0,1-.14-.05.29.29,0,0,1-.05-.17s0,0,0,.07,0-.06,0-.07H9.12s-.06,0-.07,0a.44.44,0,0,1-.12-.06.18.18,0,0,1-.06-.13.62.62,0,0,1,0-.11.22.22,0,0,0-.08-.09.17.17,0,0,1-.07-.08s0,0,0,0l0-.05s0,0,0,0h0s0,0-.05,0a.33.33,0,0,0-.06.08l0,0H8.34l0,0,0,0-.07,0-.07,0q.12,0,0-.09a.23.23,0,0,0-.13,0,.08.08,0,0,0,.06-.1A.23.23,0,0,0,8,2.55H8s0,0-.07-.06a.4.4,0,0,0-.13-.07l-.1,0a.72.72,0,0,0-.27-.08.53.53,0,0,0-.26,0,.16.16,0,0,0,0,.08.36.36,0,0,0,0,.11.33.33,0,0,1,0,.1.14.14,0,0,1-.05.1.16.16,0,0,0,0,.09s0,.08.11.12.1.1.08.17a.46.46,0,0,1-.12.13l-.13.09a.14.14,0,0,0,0,.14.24.24,0,0,0,.08.13,0,0,0,0,1,0,0,.08.08,0,0,1,0,0l0,0,0,0H7a.13.13,0,0,1-.16,0,.53.53,0,0,1-.11-.21.39.39,0,0,0-.12-.23c-.12,0-.2,0-.23,0S6.26,3.09,6.07,3a1.09,1.09,0,0,0-.45,0s0,0,0-.11-.09-.11-.15-.1a.42.42,0,0,0,0-.14.58.58,0,0,1,0-.1.31.31,0,0,1,.09-.18l.06-.07.07-.1s0,0,0,0a.47.47,0,0,0,.4-.09.6.6,0,0,0,.08-.13l.09-.13a.14.14,0,0,1,.11,0,.24.24,0,0,1,.11,0,.24.24,0,0,0,.11,0q.12,0,.12-.09a.17.17,0,0,0,0-.15c.06,0,.07,0,0-.14l-.06-.07a.27.27,0,0,0-.21,0s0,0,0,.06l-.07.09a.79.79,0,0,1-.13.13s-.09,0-.13,0l0-.1A.17.17,0,0,0,6,1.45s-.09,0-.13.12,0-.08-.09-.12l-.18-.06c.1-.06.08-.13-.07-.21a.46.46,0,0,0-.16,0,.28.28,0,0,0-.15,0,.31.31,0,0,0,0,.09.05.05,0,0,0,0,.06l.08.05.09,0,.07,0c.07.05.09.09.06.11l-.07,0-.09,0s0,0,0,0,0,.05,0,.1,0,.09,0,.11a.26.26,0,0,1-.07-.13.7.7,0,0,0,0-.13s0,.06-.2,0H4.8a.47.47,0,0,1-.16,0,.15.15,0,0,1-.11-.06.22.22,0,0,1,0-.16s0,0,0,0a.59.59,0,0,1-.08-.08L4.4,1.27a3.6,3.6,0,0,0-.74.32h.1l.1-.05.08-.05c.17-.07.28-.09.33-.05l0,0a1.05,1.05,0,0,1,.16.2.39.39,0,0,0-.23,0c-.11,0-.16.06-.18.09a.18.18,0,0,1,0,.14L4,1.73l-.11-.08a.25.25,0,0,0-.12,0H3.6A4.82,4.82,0,0,0,1.77,3.35a.12.12,0,0,0,.09.06s0,0,0,.07a.17.17,0,0,0,0,.09s0,0,.09,0A.12.12,0,0,1,2,3.7a1.75,1.75,0,0,1,.35.21,2.12,2.12,0,0,1,.16.16c0,.06,0,.1-.08.14l-.07-.07s-.06,0-.07,0,0,.07,0,.14.05.11.09.1-.07,0-.08.13a2.13,2.13,0,0,0,0,.27.72.72,0,0,1,0,.19h0a.44.44,0,0,0,0,.26c.05.12.1.17.17.16s0,.13.16.33c0,0,.05.07.06.07l.09.06L3,5.91A.3.3,0,0,1,3,6a.81.81,0,0,1,.08.18.31.31,0,0,0,.11.18s0,.09.07.16a.24.24,0,0,1,.08.18h0a.26.26,0,0,0,.12.11.38.38,0,0,1,.13.1s0,0,0,.08,0,.07,0,.09,0,0,.06,0a.9.9,0,0,0-.19-.48c-.08-.13-.12-.21-.13-.23a.35.35,0,0,1-.05-.12.53.53,0,0,0,0-.11h0l.06,0,.06,0,0,0a.18.18,0,0,0,0,.14.71.71,0,0,0,.1.14,1.53,1.53,0,0,0,.13.15l.09.1a.85.85,0,0,1,.11.16C4,7,4,7,3.92,7a.27.27,0,0,1,.16.08.48.48,0,0,1,.13.16.43.43,0,0,1,.06.2c0,.09,0,.16,0,.19a.2.2,0,0,0,.07.1.35.35,0,0,0,.1.08l.12.06.1,0L4.85,8,5,8.13l.12,0,.11,0,.11,0a.27.27,0,0,1,.23.12.58.58,0,0,0,.16.16.54.54,0,0,0,.43.09s0,0,0,.06l.07.12.07.11a.43.43,0,0,0,0,.07A.45.45,0,0,0,6.5,9l.14.12A.13.13,0,0,0,6.7,9s0,.09,0,.16.1.09.14.07S7,9.14,7,9a.25.25,0,0,1-.38-.14l0,0a.09.09,0,0,1,0-.07.14.14,0,0,1,0-.06.06.06,0,0,1,0-.06s0,0,0,0,.07,0,.07,0,0-.05,0-.1a.33.33,0,0,1,0-.1.54.54,0,0,0-.09-.16l-.09-.11a.15.15,0,0,1-.13.06.15.15,0,0,1-.12-.07.1.1,0,0,0,0,0l0,.05H6.05l0-.13a.74.74,0,0,1,0-.18.44.44,0,0,1,0-.09l.06-.12,0-.09a.09.09,0,0,0,0-.08.26.26,0,0,0-.14,0,.23.23,0,0,0-.2.16.45.45,0,0,1,0,.08.39.39,0,0,1,0,.09l-.07.06a.52.52,0,0,1-.19,0,.41.41,0,0,1-.19,0,.51.51,0,0,1-.17-.22.75.75,0,0,1-.08-.29s0-.12,0-.21,0-.15,0-.2a.48.48,0,0,0,0-.19.22.22,0,0,0,.07-.07.57.57,0,0,1,.08-.08h.07l0,0,0,0,0,0,0,0a.46.46,0,0,0,.23,0c.11,0,.18,0,.21,0s.14.05.17,0a.17.17,0,0,0,0-.07.2.2,0,0,1,0-.11c0,.15.1.17.23.07s0,0,.12,0l.14,0,0,0,0,0h0l.07,0a.5.5,0,0,1,.09.18c.06.21.11.33.15.35s.06,0,.09,0,0,0,0-.07V6.77s0-.06,0-.1V6.41a.19.19,0,0,1-.14-.1.14.14,0,0,1,0-.14A.79.79,0,0,1,6.9,6L7,6l.12,0,.1-.07q.17-.15.12-.27s.06,0,.08-.07l0,0,0,0,0,0s0-.07,0-.12a.19.19,0,0,0,.05-.09.18.18,0,0,1,.06-.08.11.11,0,0,0,.17,0,.09.09,0,0,0,0-.13A.34.34,0,0,1,7.71,5c.08,0,.13,0,.15-.07s.06,0,.06,0a.22.22,0,0,0,0-.09.25.25,0,0,1,0-.1.31.31,0,0,1,.12-.07l.1,0,.13-.08s0,0,0,0a.29.29,0,0,0,.25-.09c0-.06,0-.11-.05-.16s0-.05,0-.07l-.12,0h.09a.09.09,0,0,0,.08,0c.08,0,.06-.09,0-.12A.41.41,0,0,0,8.14,4.07ZM6.87,10.92A4.9,4.9,0,0,0,9.61,9.45a.19.19,0,0,0-.1,0l-.1,0-.18-.06a.3.3,0,0,0,0-.1.16.16,0,0,0-.07-.07l-.09-.06L9,9,8.91,9l-.06,0-.06,0-.06,0h-.1l-.05,0,0,0,0,0s0,0,0,0a1.15,1.15,0,0,0-.28-.17.18.18,0,0,1-.09,0l-.08-.06H8a.16.16,0,0,0-.09.06.16.16,0,0,0,0,.11.58.58,0,0,1,0,.1s0-.07,0-.13,0-.12,0-.15,0,0-.08,0l-.09,0-.09.07-.07.05-.07,0-.06.06a.19.19,0,0,0,0,.1l0,.08a.13.13,0,0,0-.09,0s-.07,0-.07,0,0,.14,0,.27a1.68,1.68,0,0,0,0,.3.37.37,0,0,1-.1.37c-.14.13-.22.24-.22.32s0,.18.09.2a.35.35,0,0,1-.06.16.29.29,0,0,0-.06.17A.74.74,0,0,0,6.87,10.92Z"/></g></g></svg>