<svg xmlns="http://www.w3.org/2000/svg" viewBox="0 0 12 12"><defs><style>.cls-1{isolation:isolate;}.cls-2{fill:#0abff2;}</style></defs><g id="Layer_2" data-name="Layer 2"><g id="Layer_1-2" data-name="Layer 1"><g class="cls-1"><path class="cls-2" d="M3,.8a6,6,0,0,1,6,0A6.61,6.61,0,0,1,11.2,3,5.21,5.21,0,0,1,12,6a6.11,6.11,0,0,1-.8,3A6.61,6.61,0,0,1,9,11.2,5.21,5.21,0,0,1,6,12a6.11,6.11,0,0,1-3-.8A6.61,6.61,0,0,1,.8,9,5.21,5.21,0,0,1,0,6,6.11,6.11,0,0,1,.8,3,5.81,5.81,0,0,1,3,.8ZM8.2,4c-.1,0-.1.1,0,0-.1.1-.1.1-.2.1H8V4h.2c0-.1,0-.1.1-.1s.2-.1.4-.1.3,0,.4.1l.1-.1.1-.1h.1a.1.1,0,0,0,.1-.1V3.4c-.1,0-.1,0-.1-.1s0-.1-.1-.2v0H9.1C9,3.1,9,3.1,9,3s0-.1-.1-.1,0-.1,0-.1a.1.1,0,0,0-.1-.1.1.1,0,0,1-.1-.1h0V2.5H8.6c-.1,0,0,.1-.1.1H8.3c.1,0,.1-.1,0-.1H8.2l.1-.1a.1.1,0,0,0-.1-.1h0l-.1-.1C8,2.1,8,2.2,8,2.1s-.1,0-.1,0A.44.44,0,0,0,7.6,2H7.3v.4l-.1.1a.1.1,0,0,0,.1.1c.1,0,.1.1.1.2l-.1.1L7.2,3v.1a.1.1,0,0,0,.1.1H7c-.1,0-.1-.1-.1-.2a.35.35,0,0,0-.1-.2H6.6c0-.1-.1-.1-.3-.2s-.3-.1-.5,0V2.5a.1.1,0,0,0-.1-.1V2.2c0-.1,0-.1.1-.2l.1-.1L6,1.8H6c.2,0,.3,0,.4-.1l.1-.1.1-.1h.3c.1,0,.1,0,.1-.1s0-.1-.1-.2c.1,0,.1,0,0-.1A.1.1,0,0,0,6.8,1H6.6v.1l-.1.1-.1.1H6.3V1.2c0-.1,0-.1-.1-.1a.1.1,0,0,0-.1.1A.1.1,0,0,0,6,1.1c-.1,0-.1-.1-.2-.1.1-.1.1-.1-.1-.2H5.3V1c0,.1.1,0,.1,0h.2l.1.1H5.5v.2a.1.1,0,0,0-.1-.1c-.1,0,0-.1-.1-.1s0,.1-.2,0H4.7c-.1,0-.1,0-.1-.1V.8h0L4.5.7,4.4.6c-.2.1-.5.2-.7.3h.1A.1.1,0,0,0,3.9.8c0-.1.1,0,.1,0A.77.77,0,0,1,4.3.7h0l.2.2H4.3a.35.35,0,0,0-.2.1v.1A.1.1,0,0,1,4,1,.1.1,0,0,0,3.9.9H3.6A4.24,4.24,0,0,0,1.8,2.6l.1.1v.2H2S2.1,3,2,3a1.24,1.24,0,0,0,.3.2c.1.1.2.1.2.2s0,.1-.1.1l-.1-.1c-.1-.1-.1,0-.1,0v.1a.1.1,0,0,0,.1.1.1.1,0,0,0-.1.1v.5h0v.3a.22.22,0,0,0,.2.2c-.1,0,0,.1.2.3l.1.1.1.1.1.1.1.1a.31.31,0,0,0,.1.2.31.31,0,0,1,.1.2.31.31,0,0,0,.1.2c.1.1.1.1.1.2h0l.1.1.1.1v.2h.1a1.69,1.69,0,0,0-.2-.5.31.31,0,0,1-.1-.2V5.7h.2v.1l.1.1.1.1.1.1a.35.35,0,0,1,.1.2v.1a.31.31,0,0,1,.2.1c.1.1.1.1.1.2a.31.31,0,0,0,.1.2.14.14,0,0,1,0,.2.1.1,0,0,0,.1.1.1.1,0,0,1,.1.1.1.1,0,0,1,.1.1c0,.1.1,0,.1.1a.1.1,0,0,1,.1.1c0,.1.1.1.2.1h.3c.1,0,.2,0,.2.1s.1.1.2.2a.76.76,0,0,0,.4.1v.1c0,.1,0,.1.1.1a.1.1,0,0,1,.1.1v.1l.1.1.1.1.1-.1a.31.31,0,0,0,.1.2l.1.1c.1,0,.1-.1.1-.3-.2.1-.3,0-.4-.1h0V8.2h.1V8a.31.31,0,0,0-.1-.2l-.1-.1-.1.1a.1.1,0,0,1-.1-.1h0v.1H6.2V7.4a.1.1,0,0,1,.1-.1c.1,0,0-.1,0-.1V7.1H6.2a.22.22,0,0,0-.2.2v.2l-.1.1H5.5c-.1,0-.1-.1-.2-.2a.37.37,0,0,1-.1-.3V6.5l.1-.1.1-.1h.4c.1.1.1.1.2,0V6.1c0,.1.1.2.2.1h.3l.1-.1c.1.1.1.1.1.2a.77.77,0,0,1,.1.3h.1V6c-.1,0-.1,0-.1-.1V5.8l.1-.1H7c.1,0,.1,0,.1-.1s.1,0,.1-.1a.37.37,0,0,0,.1-.3.1.1,0,0,0,.1-.1H7.3s.1-.1,0-.1l.1-.1c.1-.1,0-.1.1-.1s.1.1.2,0V4.7a.35.35,0,0,1,.2-.1c.1,0,.1,0,.1-.1h.1V4.3a.1.1,0,0,0,.1-.1c0-.1.1,0,.1,0l.1-.1h0c.1,0,.2,0,.2-.1s0-.1,0-.2V3.7h.1c.1-.1.1-.1-.1-.1A1.4,1.4,0,0,1,8.2,4ZM6.9,10.9A4.56,4.56,0,0,0,9.6,9.4H9.4a.35.35,0,0,1-.2-.1V9.2a.1.1,0,0,0-.1-.1C9,9.1,9,9.1,9,9s-.1,0-.1-.1H8.4c-.1-.1-.2-.1-.3-.2H8a.1.1,0,0,1-.1-.1c0-.1,0,0-.1,0s-.1,0-.1.1v0H7.5a.1.1,0,0,0-.1.1c0,.1-.1,0-.1.1s0,0-.1,0-.1,0-.1.1v.2L7,9.1c-.1-.1-.1,0-.1,0v.6c0,.2,0,.3-.1.4s-.2.2-.2.3,0,.2.1.2a.31.31,0,0,1-.1.2c-.1.1-.1.1-.1.2C6.9,10.8,6.9,10.8,6.9,10.9Z"/></g></g></g></svg>