<svg xmlns="http://www.w3.org/2000/svg" viewBox="0 0 14.1 11"><defs><style>.cls-1{isolation:isolate;}.cls-2{fill:#0abff2;}</style></defs><g id="Layer_2" data-name="Layer 2"><g id="Layer_1-2" data-name="Layer 1"><g class="cls-1"><path class="cls-2" d="M14.1,1.2a1.92,1.92,0,0,1-.4,1.2,4.74,4.74,0,0,1-1,1C10.7,4.8,9.5,5.6,9,5.9c-.1,0-.2.1-.3.2a1.38,1.38,0,0,0-.4.3,1.38,1.38,0,0,1-.4.3c-.2.1-.3.2-.4.2s-.3.1-.4.1h0a.6.6,0,0,1-.4-.1c-.1-.1-.3-.1-.4-.2a1.38,1.38,0,0,1-.4-.3c-.1-.1-.3-.2-.4-.3a1.24,1.24,0,0,1-.3-.2c-.5-.3-1.2-.8-2-1.4A15.87,15.87,0,0,0,1.6,3.4a3.82,3.82,0,0,1-.9-.9A1.67,1.67,0,0,1,.3,1.4,1.69,1.69,0,0,1,.6.4,1,1,0,0,1,1.5,0H13a1.22,1.22,0,0,1,.9.4A1.88,1.88,0,0,1,14.1,1.2Zm0,2.3V9.7a1.22,1.22,0,0,1-.4.9,1.27,1.27,0,0,1-.9.4H1.3a1.22,1.22,0,0,1-.9-.4A1.27,1.27,0,0,1,0,9.7V3.5a2.7,2.7,0,0,0,.8.7q2.85,2,3.9,2.7c.3.2.5.4.7.5a5.74,5.74,0,0,1,.7.4A2.92,2.92,0,0,0,7,8H7a2.92,2.92,0,0,0,.9-.2,2.15,2.15,0,0,0,.7-.4c.2-.1.4-.3.7-.5q1.35-.9,3.9-2.7A2.18,2.18,0,0,0,14.1,3.5Z"/></g></g></g></svg>