<svg xmlns="http://www.w3.org/2000/svg" viewBox="0 0 17.13 15.71"><defs><style>.cls-1{fill:#fff;}</style></defs><g id="Layer_2" data-name="Layer 2"><g id="Layer_1-2" data-name="Layer 1"><path class="cls-1" d="M2.5,2.86H0V1.43H2.5ZM9.64,8.57H0V7.14H9.64ZM3.93,14.28H0V12.85H3.93ZM7.14.71V3.57a.71.71,0,0,1-.72.71H3.57a.71.71,0,0,1-.71-.71V.71A.71.71,0,0,1,3.57,0H6.42A.71.71,0,0,1,7.14.71ZM8.57,12.14V15a.73.73,0,0,1-.72.72H5A.73.73,0,0,1,4.28,15V12.14A.73.73,0,0,1,5,11.42H7.85A.73.73,0,0,1,8.57,12.14Zm8.56-9.28H7.5V1.43h9.63Zm0,11.42H8.92V12.85h8.21ZM14.28,6.42V9.28a.72.72,0,0,1-.72.71H10.71A.72.72,0,0,1,10,9.28V6.42a.72.72,0,0,1,.72-.71h2.85A.72.72,0,0,1,14.28,6.42Zm2.85,2.15h-2.5V7.14h2.5Z"/></g></g></svg>