<?xml version="1.0" encoding="UTF-8"?>
<!DOCTYPE svg PUBLIC "-//W3C//DTD SVG 1.1//EN" "http://www.w3.org/Graphics/SVG/1.1/DTD/svg11.dtd">
<!-- Creator: CorelDRAW -->
<svg xmlns="http://www.w3.org/2000/svg" xml:space="preserve" width="2480px" height="2273px" style="shape-rendering:geometricPrecision; text-rendering:geometricPrecision; image-rendering:optimizeQuality; fill-rule:evenodd; clip-rule:evenodd"
viewBox="0 0 2479.84 2272.5"
 xmlns:xlink="http://www.w3.org/1999/xlink">
 <defs>
  <style type="text/css">
   <![CDATA[
    .fil0 {fill:#0ABFF2;fill-rule:nonzero}
   ]]>
  </style>
 </defs>
 <g id="Layer_x0020_1">
  <metadata id="CorelCorpID_0Corel-Layer"/>
  <g id="Layer_2" data-name="Layer 2">
   <g id="Layer_1-2" data-name="Layer 1">
    <path id="_839492264" class="fil0" d="M568.487 1859.28l-568.487 0 0 206.854 568.487 0 0 -206.854zm568.005 -206.371l-413.226 0c-28.9298,0.481829 -53.5219,10.6073 -72.8081,30.3765 -19.7691,19.2873 -29.8958,43.8783 -30.3776,72.8093l0 413.226c0.481829,28.931 10.6085,53.5219 30.3776,72.8093 19.2861,19.7691 43.8783,29.8946 72.8081,30.3765l413.226 0c28.931,-0.481829 53.5219,-10.6073 72.8093,-30.3765 19.7691,-19.2873 29.8946,-43.8783 30.3776,-72.8093l0 -413.226c-0.48301,-28.931 -10.6085,-53.5219 -30.3776,-72.8093 -19.2873,-19.7691 -43.8783,-29.8946 -72.8093,-30.3765zm258.448 -620.08l-1394.94 0 0 206.854 1394.94 0 0 -206.854zm-1033.31 -826.453l-361.634 0 0 206.854 361.634 0 0 -206.854zm2118.21 1652.9l-1188.09 0 0 206.854 1188.09 0 0 -206.854zm-1549.72 -1859.28l-413.709 0c-28.9298,0.481829 -53.0389,10.6073 -72.8081,30.3765 -19.2873,19.2873 -29.4128,43.8783 -30.3776,72.8093l0 413.226c0.964838,28.931 11.0903,53.5219 30.3776,72.8093 19.7691,19.7691 43.8783,29.8946 72.8081,30.3776l413.709 0c28.931,-0.48301 53.0401,-10.6085 72.8093,-30.3776 19.2861,-19.2873 29.4128,-43.8783 30.3765,-72.8093l0 -413.226c-0.963657,-28.931 -11.0903,-53.5219 -30.3765,-72.8093 -19.7691,-19.7691 -43.8783,-29.8946 -72.8093,-30.3765zm1033.31 826.452l-413.708 0c-28.931,0.48301 -53.0401,10.6085 -72.8093,30.3776 -19.2873,19.2873 -29.4128,43.8783 -30.3776,72.8093l0 413.226c0.964838,28.9298 11.0903,53.5219 30.3776,72.8081 19.7691,19.7691 43.8783,29.8958 72.8093,30.3776l413.708 0c28.931,-0.481829 53.0401,-10.6085 72.8093,-30.3776 19.2873,-19.2861 29.4128,-43.8783 30.3765,-72.8081l0 -413.226c-0.963657,-28.931 -11.0891,-53.5219 -30.3765,-72.8093 -19.7691,-19.7691 -43.8783,-29.8946 -72.8093,-30.3776zm516.413 206.373l-361.634 0 0 206.854 361.634 0 0 -206.854zm0 -826.453l-1394.94 0 0 206.854 1394.94 0 0 -206.854z"/>
   </g>
  </g>
 </g>
</svg>
