<?xml version="1.0" encoding="utf-8"?>
<!-- Generator: Adobe Illustrator 24.1.3, SVG Export Plug-In . SVG Version: 6.00 Build 0)  -->
<svg version="1.1" id="Layer_1" xmlns="http://www.w3.org/2000/svg" xmlns:xlink="http://www.w3.org/1999/xlink" x="0px" y="0px"
	 viewBox="0 0 17.1 15.7" style="enable-background:new 0 0 17.1 15.7;" xml:space="preserve">
<style type="text/css">
	.st0{fill:#0099CD;}
</style>
<g id="Layer_2_1_">
	<g id="Layer_1-2">
		<path class="st0" d="M2.5,2.9H0V1.4h2.5V2.9z M9.6,8.6H0V7.1h9.6V8.6z M3.9,14.3H0v-1.4h3.9V14.3z M7.1,0.7v2.9
			c0,0.4-0.3,0.7-0.7,0.7c0,0,0,0,0,0H3.6C3.2,4.3,2.9,4,2.9,3.6c0,0,0,0,0,0V0.7C2.9,0.3,3.2,0,3.6,0c0,0,0,0,0,0h2.9
			C6.8,0,7.1,0.3,7.1,0.7C7.1,0.7,7.1,0.7,7.1,0.7z M8.6,12.1V15c0,0.4-0.3,0.7-0.7,0.7H5c-0.4,0-0.7-0.3-0.7-0.7v-2.9
			c0-0.4,0.3-0.7,0.7-0.7h2.8C8.2,11.4,8.6,11.7,8.6,12.1z M17.1,2.9H7.5V1.4h9.6V2.9z M17.1,14.3H8.9v-1.4h8.2V14.3z M14.3,6.4v2.9
			c0,0.4-0.3,0.7-0.7,0.7h-2.8C10.3,10,10,9.7,10,9.3V6.4c0-0.4,0.3-0.7,0.7-0.7h2.8C14,5.7,14.3,6,14.3,6.4z M17.1,8.6h-2.5V7.1
			h2.5V8.6z"/>
	</g>
</g>
</svg>
