<svg xmlns="http://www.w3.org/2000/svg" viewBox="0 0 16.7 16.8"><defs><style>.cls-1{isolation:isolate;}.cls-2{fill:#fff;}</style></defs><g id="Layer_2" data-name="Layer 2"><g id="Layer_1-2" data-name="Layer 1"><g class="cls-1"><path class="cls-2" d="M16.7,15.5a1.37,1.37,0,0,1-1.3,1.3,1,1,0,0,1-.9-.4L11.1,13a7,7,0,0,1-4,1.2,6,6,0,0,1-2.7-.6,9.13,9.13,0,0,1-2.3-1.5A6.13,6.13,0,0,1,.6,9.8,6.6,6.6,0,0,1,0,7.1,6.26,6.26,0,0,1,.6,4.4,9.13,9.13,0,0,1,2.1,2.1,6.13,6.13,0,0,1,4.4.6,6.6,6.6,0,0,1,7.1,0,6,6,0,0,1,9.8.6a9.13,9.13,0,0,1,2.3,1.5,6.13,6.13,0,0,1,1.5,2.3,6.6,6.6,0,0,1,.6,2.7,7,7,0,0,1-1.2,4l3.4,3.4A2.24,2.24,0,0,1,16.7,15.5Zm-6.5-5.1a4.22,4.22,0,0,0,1.3-3.2A4.22,4.22,0,0,0,10.2,4,4.22,4.22,0,0,0,7,2.7,4.38,4.38,0,0,0,3.8,4,4.22,4.22,0,0,0,2.5,7.2a4.22,4.22,0,0,0,1.3,3.2A4.22,4.22,0,0,0,7,11.7,4.63,4.63,0,0,0,10.2,10.4Z"/></g></g></g></svg>