<svg xmlns="http://www.w3.org/2000/svg" xmlns:xlink="http://www.w3.org/1999/xlink" viewBox="0 0 22.68 22.69"><defs><style>.cls-1{fill:none;}.cls-2{clip-path:url(#clip-path);}.cls-3{fill:url(#linear-gradient);}</style><clipPath id="clip-path" transform="translate(4.34 4.35)"><path class="cls-1" d="M13.5,4.46c-.24-.2-.48-.37-.81-.63V2.62a1.31,1.31,0,0,0-1.31-1.31H9.25c-.08-.06-.16-.11-.24-.18C8.55.8,7.63,0,7,0S5.45.8,5,1.13c-.08.07-.16.12-.24.18H2.62A1.31,1.31,0,0,0,1.31,2.62V3.83C1,4.09.74,4.26.5,4.46a1.49,1.49,0,0,0-.5,1v.29l2.62,1.9V2.62h8.76V7.68L14,5.78V5.49a1.27,1.27,0,0,0-.5-1M7,11.4A2.14,2.14,0,0,1,5.72,11L0,6.86v5.83A1.31,1.31,0,0,0,1.31,14H12.69A1.31,1.31,0,0,0,14,12.69V6.86L8.28,11A2.14,2.14,0,0,1,7,11.4ZM4.37,8.09a.44.44,0,0,0,.44.44H9.19a.44.44,0,0,0,.43-.44V7.65a.43.43,0,0,0-.43-.43H4.81a.44.44,0,0,0-.44.43Zm.44-2.18H9.19a.44.44,0,0,0,.43-.44V5a.44.44,0,0,0-.43-.44H4.81A.44.44,0,0,0,4.37,5v.44A.44.44,0,0,0,4.81,5.91Z"/></clipPath><linearGradient id="linear-gradient" x1="396.33" y1="762.82" x2="400.08" y2="762.82" gradientTransform="translate(2809.83 4656.4) rotate(180) scale(7.04 6.1)" gradientUnits="userSpaceOnUse"><stop offset="0" stop-color="#00d3a7"/><stop offset="1" stop-color="#0ac0f2"/></linearGradient></defs><g id="Layer_2" data-name="Layer 2"><g id="Layer_1-2" data-name="Layer 1"><g class="cls-2"><rect class="cls-3" x="-1.91" y="-1.92" width="17.83" height="17.82" transform="translate(2.44 15.66) rotate(-70.85)"/></g></g></g></svg>