<svg xmlns="http://www.w3.org/2000/svg" xmlns:xlink="http://www.w3.org/1999/xlink" viewBox="0 0 8.98 5.76"><defs><style>.cls-1{fill:url(#linear-gradient);}</style><linearGradient id="linear-gradient" y1="2.88" x2="8.98" y2="2.88" gradientUnits="userSpaceOnUse"><stop offset="0" stop-color="#00d3a7"/><stop offset="1" stop-color="#0ac0f2"/></linearGradient></defs><g id="Layer_2" data-name="Layer 2"><g id="Layer_1-2" data-name="Layer 1"><path class="cls-1" d="M4.74,5.65a.34.34,0,0,1-.16.1H4.4a.39.39,0,0,1-.16-.1L.1,1.53A.28.28,0,0,1,0,1.36a.54.54,0,0,1,0-.18A.29.29,0,0,1,.1,1L1,.1A.26.26,0,0,1,1.19,0h.18A.29.29,0,0,1,1.53.1l3,3,3-3A.32.32,0,0,1,7.61,0h.18A.29.29,0,0,1,8,.1L8.87,1a.39.39,0,0,1,.1.16.54.54,0,0,1,0,.18.37.37,0,0,1-.1.17Z"/></g></g></svg>