<svg xmlns="http://www.w3.org/2000/svg" viewBox="0 0 18 17.7"><defs><style>.cls-1{fill:#fff;}</style></defs><g id="Layer_2" data-name="Layer 2"><g id="Layer_1-2" data-name="Layer 1"><path class="cls-1" d="M17.7,2.7H14.4V.3a.27.27,0,0,0-.3-.3H3.9a.27.27,0,0,0-.3.3V4.5H.3a.27.27,0,0,0-.3.3V17.1a.27.27,0,0,0,.3.3h0a.27.27,0,0,0,.3-.3V5.1h3V17.4a.27.27,0,0,0,.3.3H14.1a.27.27,0,0,0,.3-.3V3.3h3V17.1a.27.27,0,0,0,.3.3h0a.27.27,0,0,0,.3-.3V3a.32.32,0,0,0-.3-.3m-9,14.4H7.5V14.4H8.7Zm1.8,0H9.3V14.4h1.2Zm3.3,0H11.1v-3a.27.27,0,0,0-.3-.3H7.2a.27.27,0,0,0-.3.3v3H4.2V.6h9.6Z"/><path class="cls-1" d="M5.1,3.6H6.9a.27.27,0,0,0,.3-.3V1.5a.27.27,0,0,0-.3-.3H5.1a.27.27,0,0,0-.3.3V3.3a.27.27,0,0,0,.3.3h0m.3-1.8H6.6V3H5.4Z"/><path class="cls-1" d="M8.1,3.6H9.9a.27.27,0,0,0,.3-.3V1.5a.27.27,0,0,0-.3-.3H8.1a.27.27,0,0,0-.3.3V3.3a.27.27,0,0,0,.3.3h0m.3-1.8H9.6V3H8.4Z"/><path class="cls-1" d="M11.1,3.6h1.8a.27.27,0,0,0,.3-.3V1.5a.27.27,0,0,0-.3-.3H11.1a.27.27,0,0,0-.3.3V3.3a.27.27,0,0,0,.3.3h0m.3-1.8h1.2V3H11.4Z"/><path class="cls-1" d="M5.1,6.6H6.9a.27.27,0,0,0,.3-.3V4.5a.27.27,0,0,0-.3-.3H5.1a.27.27,0,0,0-.3.3V6.3a.27.27,0,0,0,.3.3h0m.3-1.8H6.6V6H5.4Z"/><path class="cls-1" d="M8.1,6.6H9.9a.27.27,0,0,0,.3-.3V4.5a.27.27,0,0,0-.3-.3H8.1a.27.27,0,0,0-.3.3V6.3a.27.27,0,0,0,.3.3h0m.3-1.8H9.6V6H8.4Z"/><path class="cls-1" d="M11.1,6.6h1.8a.27.27,0,0,0,.3-.3V4.5a.27.27,0,0,0-.3-.3H11.1a.27.27,0,0,0-.3.3V6.3a.27.27,0,0,0,.3.3h0m.3-1.8h1.2V6H11.4Z"/><path class="cls-1" d="M5.1,9.6H6.9a.27.27,0,0,0,.3-.3V7.5a.27.27,0,0,0-.3-.3H5.1a.27.27,0,0,0-.3.3V9.3a.27.27,0,0,0,.3.3h0m.3-1.8H6.6V9H5.4Z"/><path class="cls-1" d="M8.1,9.6H9.9a.27.27,0,0,0,.3-.3V7.5a.27.27,0,0,0-.3-.3H8.1a.27.27,0,0,0-.3.3V9.3a.27.27,0,0,0,.3.3h0m.3-1.8H9.6V9H8.4Z"/><path class="cls-1" d="M11.1,9.6h1.8a.27.27,0,0,0,.3-.3V7.5a.27.27,0,0,0-.3-.3H11.1a.27.27,0,0,0-.3.3V9.3a.27.27,0,0,0,.3.3h0m.3-1.8h1.2V9H11.4Z"/><path class="cls-1" d="M5.1,12.6H6.9a.27.27,0,0,0,.3-.3V10.5a.27.27,0,0,0-.3-.3H5.1a.27.27,0,0,0-.3.3v1.8a.27.27,0,0,0,.3.3h0m.3-1.8H6.6V12H5.4Z"/><path class="cls-1" d="M8.1,12.6H9.9a.27.27,0,0,0,.3-.3V10.5a.27.27,0,0,0-.3-.3H8.1a.27.27,0,0,0-.3.3v1.8a.27.27,0,0,0,.3.3h0m.3-1.8H9.6V12H8.4Z"/><path class="cls-1" d="M11.1,12.6h1.8a.27.27,0,0,0,.3-.3V10.5a.27.27,0,0,0-.3-.3H11.1a.27.27,0,0,0-.3.3v1.8a.27.27,0,0,0,.3.3h0m.3-1.8h1.2V12H11.4Z"/><path class="cls-1" d="M1.5,5.7h.3a.27.27,0,0,1,.3.3v.3a.27.27,0,0,1-.3.3H1.5a.27.27,0,0,1-.3-.3h0V6a.32.32,0,0,1,.3-.3"/><path class="cls-1" d="M2.7,5.7H3a.27.27,0,0,1,.3.3v.3a.27.27,0,0,1-.3.3H2.7a.27.27,0,0,1-.3-.3h0V6a.32.32,0,0,1,.3-.3"/><path class="cls-1" d="M1.5,6.9h.3a.27.27,0,0,1,.3.3v.3a.27.27,0,0,1-.3.3H1.5a.27.27,0,0,1-.3-.3h0V7.2a.32.32,0,0,1,.3-.3"/><path class="cls-1" d="M2.7,6.9H3a.27.27,0,0,1,.3.3v.3a.27.27,0,0,1-.3.3H2.7a.27.27,0,0,1-.3-.3h0V7.2a.32.32,0,0,1,.3-.3"/><path class="cls-1" d="M1.5,8.1h.3a.27.27,0,0,1,.3.3v.3a.27.27,0,0,1-.3.3H1.5a.27.27,0,0,1-.3-.3h0V8.4a.32.32,0,0,1,.3-.3"/><path class="cls-1" d="M2.7,8.1H3a.27.27,0,0,1,.3.3v.3A.27.27,0,0,1,3,9H2.7a.27.27,0,0,1-.3-.3h0V8.4a.32.32,0,0,1,.3-.3"/><path class="cls-1" d="M1.5,9.3h.3a.27.27,0,0,1,.3.3v.3a.27.27,0,0,1-.3.3H1.5a.27.27,0,0,1-.3-.3h0V9.6a.32.32,0,0,1,.3-.3"/><path class="cls-1" d="M2.7,9.3H3a.27.27,0,0,1,.3.3v.3a.27.27,0,0,1-.3.3H2.7a.27.27,0,0,1-.3-.3h0V9.6a.32.32,0,0,1,.3-.3"/><path class="cls-1" d="M1.5,10.5h.3a.27.27,0,0,1,.3.3v.3a.27.27,0,0,1-.3.3H1.5a.27.27,0,0,1-.3-.3h0v-.3a.45.45,0,0,1,.3-.3"/><path class="cls-1" d="M2.7,10.5H3a.27.27,0,0,1,.3.3v.3a.27.27,0,0,1-.3.3H2.7a.27.27,0,0,1-.3-.3h0v-.3a.45.45,0,0,1,.3-.3"/><path class="cls-1" d="M1.5,11.7h.3a.27.27,0,0,1,.3.3v.3a.27.27,0,0,1-.3.3H1.5a.27.27,0,0,1-.3-.3h0V12a.32.32,0,0,1,.3-.3"/><path class="cls-1" d="M2.7,11.7H3a.27.27,0,0,1,.3.3v.3a.27.27,0,0,1-.3.3H2.7a.27.27,0,0,1-.3-.3h0V12a.32.32,0,0,1,.3-.3"/><path class="cls-1" d="M1.5,12.9h.3a.27.27,0,0,1,.3.3v.3a.27.27,0,0,1-.3.3H1.5a.27.27,0,0,1-.3-.3h0v-.3a.32.32,0,0,1,.3-.3"/><path class="cls-1" d="M2.7,12.9H3a.27.27,0,0,1,.3.3v.3a.27.27,0,0,1-.3.3H2.7a.27.27,0,0,1-.3-.3h0v-.3a.32.32,0,0,1,.3-.3"/><path class="cls-1" d="M1.5,14.1h.3a.27.27,0,0,1,.3.3v.3a.27.27,0,0,1-.3.3H1.5a.27.27,0,0,1-.3-.3h0v-.3a.32.32,0,0,1,.3-.3"/><path class="cls-1" d="M2.7,14.1H3a.27.27,0,0,1,.3.3v.3A.27.27,0,0,1,3,15H2.7a.27.27,0,0,1-.3-.3h0v-.3a.32.32,0,0,1,.3-.3"/><path class="cls-1" d="M1.5,15.3h.3a.27.27,0,0,1,.3.3v.3a.27.27,0,0,1-.3.3H1.5a.27.27,0,0,1-.3-.3h0v-.3a.32.32,0,0,1,.3-.3"/><path class="cls-1" d="M2.7,15.3H3a.27.27,0,0,1,.3.3v.3a.27.27,0,0,1-.3.3H2.7a.27.27,0,0,1-.3-.3h0v-.3a.32.32,0,0,1,.3-.3"/><path class="cls-1" d="M15.3,5.7h1.2a.27.27,0,0,0,.3-.3V4.2a.27.27,0,0,0-.3-.3H15.3a.27.27,0,0,0-.3.3V5.4a.27.27,0,0,0,.3.3h0m.3-1.2h.6v.6h-.6Z"/><path class="cls-1" d="M15,7.8a.27.27,0,0,0,.3.3h1.2a.27.27,0,0,0,.3-.3V6.6a.27.27,0,0,0-.3-.3H15.3a.27.27,0,0,0-.3.3Zm.6-.9h.6v.6h-.6Z"/><path class="cls-1" d="M15,10.2a.27.27,0,0,0,.3.3h1.2a.27.27,0,0,0,.3-.3V9a.27.27,0,0,0-.3-.3H15.3A.27.27,0,0,0,15,9Zm.6-.9h.6v.6h-.6Z"/><path class="cls-1" d="M15,12.6a.27.27,0,0,0,.3.3h1.2a.27.27,0,0,0,.3-.3V11.4a.27.27,0,0,0-.3-.3H15.3a.27.27,0,0,0-.3.3Zm.6-.9h.6v.6h-.6Z"/><path class="cls-1" d="M15,15a.27.27,0,0,0,.3.3h1.2a.27.27,0,0,0,.3-.3V13.8a.27.27,0,0,0-.3-.3H15.3a.27.27,0,0,0-.3.3Zm.6-.9h.6v.6h-.6Z"/></g></g></svg>