<svg xmlns="http://www.w3.org/2000/svg" xmlns:xlink="http://www.w3.org/1999/xlink" viewBox="0 0 42.07 44.77"><defs><style>.cls-1{fill:url(#linear-gradient);}.cls-2{fill:url(#linear-gradient-2);}.cls-3{clip-path:url(#clip-path);}.cls-4{fill:url(#linear-gradient-4);}.cls-5{clip-path:url(#clip-path-2);}.cls-6{fill:url(#linear-gradient-6);}</style><linearGradient id="linear-gradient" y1="18" x2="30" y2="18" gradientUnits="userSpaceOnUse"><stop offset="0" stop-color="#00d3a7"/><stop offset="1" stop-color="#0ac0f2"/></linearGradient><linearGradient id="linear-gradient-2" x1="6" y1="21" x2="24" y2="21" xlink:href="#linear-gradient"/><clipPath id="clip-path" transform="translate(6.03 4.39)"><path class="cls-1" d="M15,33A12,12,0,1,1,27,21,12,12,0,0,1,15,33M25.91,10.72l2.15-2.16L25.94,6.44l-2.31,2.3A14.81,14.81,0,0,0,16.5,6.08V3h3V0h-9V3h3V6.08A14.81,14.81,0,0,0,6.37,8.74L4.06,6.44,1.94,8.56,4.1,10.72A15,15,0,0,0,14.32,36h1.36A15,15,0,0,0,25.91,10.72Z"/></clipPath><linearGradient id="linear-gradient-4" x1="153.41" y1="910.14" x2="157.5" y2="910.14" gradientTransform="matrix(-25.12, 0, 0, -10.48, 3910.02, 9551.84)" xlink:href="#linear-gradient"/><clipPath id="clip-path-2" transform="translate(6.03 4.39)"><path class="cls-2" d="M15,12v9H6a9,9,0,1,0,9-9"/></clipPath><linearGradient id="linear-gradient-6" x1="141.1" y1="935.69" x2="145.18" y2="935.69" gradientTransform="translate(1832.13 5878.78) rotate(180) scale(12.73 6.26)" xlink:href="#linear-gradient"/></defs><g id="Layer_2" data-name="Layer 2"><g id="Layer_1-2" data-name="Layer 1"><path class="cls-1" d="M15,33A12,12,0,1,1,27,21,12,12,0,0,1,15,33M25.91,10.72l2.15-2.16L25.94,6.44l-2.31,2.3A14.81,14.81,0,0,0,16.5,6.08V3h3V0h-9V3h3V6.08A14.81,14.81,0,0,0,6.37,8.74L4.06,6.44,1.94,8.56,4.1,10.72A15,15,0,0,0,14.32,36h1.36A15,15,0,0,0,25.91,10.72Z" transform="translate(6.03 4.39)"/><g class="cls-3"><rect class="cls-4" x="-5.04" y="-0.46" width="40.09" height="36.92" transform="translate(1.15 34.78) rotate(-82.12)"/></g><path class="cls-2" d="M15,12v9H6a9,9,0,1,0,9-9" transform="translate(6.03 4.39)"/><g class="cls-5"><rect class="cls-6" x="4.59" y="10.59" width="21.52" height="21.52" transform="translate(-2.19 37.39) rotate(-80.57)"/></g></g></g></svg>