<svg xmlns="http://www.w3.org/2000/svg" xmlns:xlink="http://www.w3.org/1999/xlink" viewBox="0 0 8.79 6.79"><defs><style>.cls-1{fill:url(#linear-gradient);}</style><linearGradient id="linear-gradient" x1="2.53" y1="3.39" x2="2.62" y2="3.39" gradientUnits="userSpaceOnUse"><stop offset="0" stop-color="#00d3a7"/><stop offset="1" stop-color="#0ac0f2"/></linearGradient></defs><g id="Layer_2" data-name="Layer 2"><g id="Layer_1-2" data-name="Layer 1"><path class="cls-1" d="M4.2,6.59a.51.51,0,0,1-.3.17.47.47,0,0,1-.33,0,.49.49,0,0,1-.3-.17L.2,3.53A.89.89,0,0,1,0,3.23a1.93,1.93,0,0,1,0-.34.73.73,0,0,1,.19-.3L1.27,1.53a.44.44,0,0,1,.3-.17.47.47,0,0,1,.33,0,.51.51,0,0,1,.3.17L3.73,3.06,6.59.18A1.41,1.41,0,0,1,6.91,0h.34a1.28,1.28,0,0,1,.3.17L8.61,1.25a.81.81,0,0,1,.17.3.91.91,0,0,1,0,.33.9.9,0,0,1-.17.32Z"/></g></g></svg>