<svg xmlns="http://www.w3.org/2000/svg" xmlns:xlink="http://www.w3.org/1999/xlink" viewBox="0 0 40.91 39.52"><defs><style>.cls-1{fill:url(#linear-gradient);}.cls-2{fill:url(#linear-gradient-2);}.cls-3{fill:url(#linear-gradient-3);}.cls-4{fill:url(#linear-gradient-4);}.cls-5{fill:url(#linear-gradient-5);}.cls-6{fill:url(#linear-gradient-6);}.cls-7{fill:url(#linear-gradient-7);}.cls-8{fill:url(#linear-gradient-8);}.cls-9{clip-path:url(#clip-path);}.cls-10{fill:url(#linear-gradient-10);}.cls-11{clip-path:url(#clip-path-2);}.cls-12{fill:url(#linear-gradient-12);}.cls-13{clip-path:url(#clip-path-3);}.cls-14{fill:url(#linear-gradient-14);}.cls-15{clip-path:url(#clip-path-4);}.cls-16{fill:url(#linear-gradient-16);}.cls-17{clip-path:url(#clip-path-5);}.cls-18{fill:url(#linear-gradient-18);}.cls-19{clip-path:url(#clip-path-6);}.cls-20{fill:url(#linear-gradient-20);}.cls-21{clip-path:url(#clip-path-7);}.cls-22{fill:url(#linear-gradient-22);}.cls-23{clip-path:url(#clip-path-8);}.cls-24{fill:url(#linear-gradient-24);}</style><linearGradient id="linear-gradient" x1="24" y1="9" x2="36" y2="9" gradientUnits="userSpaceOnUse"><stop offset="0" stop-color="#00d3a7"/><stop offset="1" stop-color="#0ac0f2"/></linearGradient><linearGradient id="linear-gradient-2" x1="28.5" y1="6" x2="31.5" y2="6" xlink:href="#linear-gradient"/><linearGradient id="linear-gradient-3" x1="4.5" y1="21" x2="13.5" y2="21" xlink:href="#linear-gradient"/><linearGradient id="linear-gradient-4" x1="17.96" y1="29.19" x2="20.84" y2="29.19" xlink:href="#linear-gradient"/><linearGradient id="linear-gradient-5" x1="13" y1="33.84" x2="17.35" y2="33.84" xlink:href="#linear-gradient"/><linearGradient id="linear-gradient-6" x1="20.55" y1="23.49" x2="24.08" y2="23.49" xlink:href="#linear-gradient"/><linearGradient id="linear-gradient-7" x1="25.72" y1="21.05" x2="30.05" y2="21.05" xlink:href="#linear-gradient"/><linearGradient id="linear-gradient-8" x1="0" y1="24" x2="18" y2="24" xlink:href="#linear-gradient"/><clipPath id="clip-path" transform="translate(2.94 1.31)"><path class="cls-1" d="M36,6A6,6,0,0,0,24,6c0,2.87,4.25,8.68,5.25,10,0,.43,0,.85,0,1.23A.75.75,0,0,0,30,18h0a.75.75,0,0,0,.75-.73c0-.39,0-.83,0-1.26C31.74,14.69,36,8.87,36,6M30,1.5A4.51,4.51,0,0,1,34.5,6c0,1.91-2.85,6.23-4.5,8.49C28.35,12.23,25.5,7.91,25.5,6A4.51,4.51,0,0,1,30,1.5Z"/></clipPath><linearGradient id="linear-gradient-10" x1="-127.43" y1="911.64" x2="-123.27" y2="911.64" gradientTransform="matrix(-12.43, 0, 0, -4.2, -1533.06, 3841.33)" xlink:href="#linear-gradient"/><clipPath id="clip-path-2" transform="translate(2.94 1.31)"><path class="cls-2" d="M31.5,6A1.5,1.5,0,1,0,30,7.5,1.5,1.5,0,0,0,31.5,6"/></clipPath><linearGradient id="linear-gradient-12" x1="-273.96" y1="1045.17" x2="-269.88" y2="1045.17" gradientTransform="matrix(-2.12, 0, 0, -1.04, -547.73, 1096.58)" xlink:href="#linear-gradient"/><clipPath id="clip-path-3" transform="translate(2.94 1.31)"><path class="cls-3" d="M9,16.5A4.5,4.5,0,1,0,13.5,21,4.51,4.51,0,0,0,9,16.5M9,24a3,3,0,1,1,3-3A3,3,0,0,1,9,24Z"/></clipPath><linearGradient id="linear-gradient-14" x1="-153.53" y1="935.62" x2="-149.45" y2="935.62" gradientTransform="translate(-957.61 2948.98) rotate(180) scale(6.36 3.13)" xlink:href="#linear-gradient"/><clipPath id="clip-path-4" transform="translate(2.94 1.31)"><path class="cls-4" d="M20.36,27a.75.75,0,0,0-1,.43,18.51,18.51,0,0,1-1.32,2.81.74.74,0,0,0,.25,1,.77.77,0,0,0,.39.11.75.75,0,0,0,.64-.36A18.82,18.82,0,0,0,20.79,28a.75.75,0,0,0-.43-1"/></clipPath><linearGradient id="linear-gradient-16" x1="-216.81" y1="1035.24" x2="-212.64" y2="1035.24" gradientTransform="matrix(-3.06, 0, 0, -1.01, -638.37, 1075.89)" xlink:href="#linear-gradient"/><clipPath id="clip-path-5" transform="translate(2.94 1.31)"><path class="cls-5" d="M16.13,32.5a8.13,8.13,0,0,1-2.61,1.38.75.75,0,0,0,.23,1.46.59.59,0,0,0,.23,0,9.73,9.73,0,0,0,3.08-1.62.75.75,0,0,0,.13-1,.76.76,0,0,0-1.06-.13"/></clipPath><linearGradient id="linear-gradient-18" x1="-249.63" y1="1015.72" x2="-245.63" y2="1015.72" gradientTransform="matrix(-2.22, 0, 0, -1.49, -534.67, 1547.68)" xlink:href="#linear-gradient"/><clipPath id="clip-path-6" transform="translate(2.94 1.31)"><path class="cls-6" d="M23,21.62a6.09,6.09,0,0,0-2.34,2.77.75.75,0,0,0,.35,1,.8.8,0,0,0,.33.08A.74.74,0,0,0,22,25a4.51,4.51,0,0,1,1.73-2.12.75.75,0,0,0,.28-1,.74.74,0,0,0-1-.28"/></clipPath><linearGradient id="linear-gradient-20" x1="-228.47" y1="1016.89" x2="-224.39" y2="1016.89" gradientTransform="matrix(-2.77, 0, 0, -1.23, -606.07, 1275.6)" xlink:href="#linear-gradient"/><clipPath id="clip-path-7" transform="translate(2.94 1.31)"><path class="cls-7" d="M28.68,20c-.25.36-.75.87-2.28,1a.75.75,0,0,0,.07,1.5h.06a4.25,4.25,0,0,0,3.39-1.66.74.74,0,0,0-.2-1,.75.75,0,0,0-1,.2"/></clipPath><linearGradient id="linear-gradient-22" x1="-261.32" y1="1014.75" x2="-257.41" y2="1014.75" gradientTransform="matrix(-2.11, 0, 0, -1.48, -521.26, 1524.53)" xlink:href="#linear-gradient"/><clipPath id="clip-path-8" transform="translate(2.94 1.31)"><path class="cls-8" d="M10.78,34.51C13.14,32,18,26.18,18,21a8.9,8.9,0,0,0-9-9,8.9,8.9,0,0,0-9,9c0,6.7,8.14,14.47,8.49,14.79A.71.71,0,0,0,9,36q.83,0,1.56-.06a.75.75,0,0,0,.69-.8.72.72,0,0,0-.47-.63M9,34.19c-1.77-1.81-7.5-8-7.5-13.19A7.41,7.41,0,0,1,9,13.5,7.41,7.41,0,0,1,16.5,21C16.5,26.14,10.77,32.38,9,34.19Z"/></clipPath><linearGradient id="linear-gradient-24" x1="-118.68" y1="902.31" x2="-114.51" y2="902.31" gradientTransform="matrix(-16.65, 0, 0, -6.3, -1939.93, 5704.73)" xlink:href="#linear-gradient"/></defs><g id="Layer_2" data-name="Layer 2"><g id="Layer_1-2" data-name="Layer 1"><path class="cls-1" d="M36,6A6,6,0,0,0,24,6c0,2.87,4.25,8.68,5.25,10,0,.43,0,.85,0,1.23A.75.75,0,0,0,30,18h0a.75.75,0,0,0,.75-.73c0-.39,0-.83,0-1.26C31.74,14.69,36,8.87,36,6M30,1.5A4.51,4.51,0,0,1,34.5,6c0,1.91-2.85,6.23-4.5,8.49C28.35,12.23,25.5,7.91,25.5,6A4.51,4.51,0,0,1,30,1.5Z" transform="translate(2.94 1.31)"/><g class="cls-9"><rect class="cls-10" x="20.39" y="2.05" width="19.21" height="13.91" transform="translate(20.7 39.14) rotate(-83.68)"/></g><path class="cls-2" d="M31.5,6A1.5,1.5,0,1,0,30,7.5,1.5,1.5,0,0,0,31.5,6" transform="translate(2.94 1.31)"/><g class="cls-11"><rect class="cls-12" x="28.27" y="4.27" width="3.45" height="3.45" transform="translate(22.11 35.92) rotate(-80.57)"/></g><path class="cls-3" d="M9,16.5A4.5,4.5,0,1,0,13.5,21,4.51,4.51,0,0,0,9,16.5M9,24a3,3,0,1,1,3-3A3,3,0,0,1,9,24Z" transform="translate(2.94 1.31)"/><g class="cls-13"><rect class="cls-14" x="3.82" y="15.82" width="10.35" height="10.35" transform="translate(-10.25 27.75) rotate(-80.57)"/></g><path class="cls-4" d="M20.36,27a.75.75,0,0,0-1,.43,18.51,18.51,0,0,1-1.32,2.81.74.74,0,0,0,.25,1,.77.77,0,0,0,.39.11.75.75,0,0,0,.64-.36A18.82,18.82,0,0,0,20.79,28a.75.75,0,0,0-.43-1" transform="translate(2.94 1.31)"/><g class="cls-15"><rect class="cls-16" x="16.98" y="27.37" width="4.84" height="3.56" transform="translate(-8.72 46.61) rotate(-83.83)"/></g><path class="cls-5" d="M16.13,32.5a8.13,8.13,0,0,1-2.61,1.38.75.75,0,0,0,.23,1.46.59.59,0,0,0,.23,0,9.73,9.73,0,0,0,3.08-1.62.75.75,0,0,0,.13-1,.76.76,0,0,0-1.06-.13" transform="translate(2.94 1.31)"/><g class="cls-17"><rect class="cls-18" x="13.14" y="31.23" width="4.07" height="5.13" transform="translate(-18.29 41.95) rotate(-76.46)"/></g><path class="cls-6" d="M23,21.62a6.09,6.09,0,0,0-2.34,2.77.75.75,0,0,0,.35,1,.8.8,0,0,0,.33.08A.74.74,0,0,0,22,25a4.51,4.51,0,0,1,1.73-2.12.75.75,0,0,0,.28-1,.74.74,0,0,0-1-.28" transform="translate(2.94 1.31)"/><g class="cls-19"><rect class="cls-20" x="20.03" y="21.29" width="4.56" height="4.3" transform="translate(-1.2 43.38) rotate(-81.56)"/></g><path class="cls-7" d="M28.68,20c-.25.36-.75.87-2.28,1a.75.75,0,0,0,.07,1.5h.06a4.25,4.25,0,0,0,3.39-1.66.74.74,0,0,0-.2-1,.75.75,0,0,0-1,.2" transform="translate(2.94 1.31)"/><g class="cls-21"><rect class="cls-22" x="25.95" y="18.47" width="3.95" height="5.06" transform="translate(3.63 44.19) rotate(-75.72)"/></g><path class="cls-8" d="M10.78,34.51C13.14,32,18,26.18,18,21a8.9,8.9,0,0,0-9-9,8.9,8.9,0,0,0-9,9c0,6.7,8.14,14.47,8.49,14.79A.71.71,0,0,0,9,36q.83,0,1.56-.06a.75.75,0,0,0,.69-.8.72.72,0,0,0-.47-.63M9,34.19c-1.77-1.81-7.5-8-7.5-13.19A7.41,7.41,0,0,1,9,13.5,7.41,7.41,0,0,1,16.5,21C16.5,26.14,10.77,32.38,9,34.19Z" transform="translate(2.94 1.31)"/><g class="cls-23"><rect class="cls-24" x="-4.02" y="13.59" width="26.04" height="20.83" transform="translate(-12.98 31.28) rotate(-82.9)"/></g></g></g></svg>