<svg xmlns="http://www.w3.org/2000/svg" viewBox="0 0 20.7 20.7"><defs><style>.cls-1{fill:#fff;}</style></defs><g id="Layer_2" data-name="Layer 2"><g id="Layer_1-2" data-name="Layer 1"><path class="cls-1" d="M18.42,16.45a3.5,3.5,0,0,1-2,2c-1.36.54-4.59.42-6.1.42s-4.74.11-6.1-.42a3.53,3.53,0,0,1-2-2c-.53-1.36-.41-4.59-.41-6.1s-.12-4.74.41-6.1a3.5,3.5,0,0,1,2-2c1.37-.54,4.6-.42,6.1-.42s4.75-.11,6.1.42a3.47,3.47,0,0,1,2,2c.54,1.36.42,4.59.42,6.1s.12,4.74-.42,6.1M20.63,6.08A6.13,6.13,0,0,0,19,1.75,6.21,6.21,0,0,0,14.62.07C12.91,0,7.79,0,6.08.07A6.15,6.15,0,0,0,1.75,1.74,6.16,6.16,0,0,0,.07,6.08C0,7.78,0,12.91.07,14.62A6.11,6.11,0,0,0,1.75,19a6.13,6.13,0,0,0,4.33,1.67c1.71.1,6.83.1,8.54,0A6.07,6.07,0,0,0,19,19a6.19,6.19,0,0,0,1.67-4.33C20.73,12.91,20.73,7.79,20.63,6.08ZM17.12,4.82a1.24,1.24,0,1,0-1.24,1.24A1.24,1.24,0,0,0,17.12,4.82Zm-6.77,9a3.45,3.45,0,1,1,3.45-3.45A3.46,3.46,0,0,1,10.35,13.8Zm0-8.76a5.31,5.31,0,1,0,5.31,5.31A5.3,5.3,0,0,0,10.35,5Z"/></g></g></svg>