<svg xmlns="http://www.w3.org/2000/svg" viewBox="0 0 11.14 11.14"><defs><style>.cls-1{fill:#fff;}</style></defs><g id="Layer_2" data-name="Layer 2"><g id="Layer_1-2" data-name="Layer 1"><path class="cls-1" d="M10.4,2.77a5.56,5.56,0,0,1,.74,2.8,5.56,5.56,0,0,1-.74,2.8,5.64,5.64,0,0,1-2,2,5.56,5.56,0,0,1-2.8.74,5.56,5.56,0,0,1-2.8-.74,5.62,5.62,0,0,1-2-2A5.47,5.47,0,0,1,0,5.57a5.47,5.47,0,0,1,.75-2.8,5.59,5.59,0,0,1,2-2A5.47,5.47,0,0,1,5.57,0a5.47,5.47,0,0,1,2.8.75A5.62,5.62,0,0,1,10.4,2.77ZM9,7.55a3.86,3.86,0,0,0,.53-2,3.92,3.92,0,0,0-.53-2A4,4,0,0,0,7.55,2.15a3.85,3.85,0,0,0-2-.52,3.91,3.91,0,0,0-2,.52A4.14,4.14,0,0,0,2.15,3.59a3.91,3.91,0,0,0-.52,2,3.85,3.85,0,0,0,.52,2A4.05,4.05,0,0,0,3.59,9a3.92,3.92,0,0,0,2,.53A3.95,3.95,0,0,0,9,7.55ZM6.5,3V6.27a.24.24,0,0,1-.23.23H4a.21.21,0,0,1-.17-.07.22.22,0,0,1-.07-.16V5.8a.24.24,0,0,1,.07-.16A.21.21,0,0,1,4,5.57H5.57V3a.21.21,0,0,1,.07-.17.23.23,0,0,1,.16-.06h.47a.21.21,0,0,1,.16.06A.21.21,0,0,1,6.5,3Z"/></g></g></svg>