<svg xmlns="http://www.w3.org/2000/svg" xmlns:xlink="http://www.w3.org/1999/xlink" viewBox="0 0 22.68 22.68"><defs><style>.cls-1{fill:none;}.cls-2{clip-path:url(#clip-path);}.cls-3{fill:url(#linear-gradient);}</style><clipPath id="clip-path" transform="translate(4.34 4.34)"><path class="cls-1" d="M11.81,5.25h-7V1.31H10.5v.88a.44.44,0,0,0,.44.43h.87Zm-.43,3.06a.44.44,0,0,1-.44.44h-.88a.44.44,0,0,1-.44-.44V7.44A.44.44,0,0,1,10.06,7h.88a.44.44,0,0,1,.44.44Zm0,3.5a.44.44,0,0,1-.44.44h-.88a.44.44,0,0,1-.44-.44v-.87a.44.44,0,0,1,.44-.44h.88a.44.44,0,0,1,.44.44ZM7.87,8.31a.44.44,0,0,1-.43.44H6.56a.44.44,0,0,1-.43-.44V7.44A.43.43,0,0,1,6.56,7h.88a.43.43,0,0,1,.43.44Zm0,3.5a.44.44,0,0,1-.43.44H6.56a.44.44,0,0,1-.43-.44v-.87a.43.43,0,0,1,.43-.44h.88a.43.43,0,0,1,.43.44Zm5.25-7.44V2.11a.9.9,0,0,0-.25-.62L11.63.26A.85.85,0,0,0,11,0H4.37A.87.87,0,0,0,3.5.87V13.12a.87.87,0,0,0,.87.88h8.75a.87.87,0,0,0,.88-.88V5.25A.88.88,0,0,0,13.12,4.37ZM1.75,3.5H.88A.87.87,0,0,0,0,4.37v8.75A.87.87,0,0,0,.88,14h.87a.87.87,0,0,0,.87-.88V4.37A.87.87,0,0,0,1.75,3.5Z"/></clipPath><linearGradient id="linear-gradient" x1="394.38" y1="782.65" x2="398.13" y2="782.65" gradientTransform="matrix(-7.04, 0, 0, -6.1, 2796.22, 4777.32)" gradientUnits="userSpaceOnUse"><stop offset="0" stop-color="#00d3a7"/><stop offset="1" stop-color="#0ac0f2"/></linearGradient></defs><g id="Layer_2" data-name="Layer 2"><g id="Layer_1-2" data-name="Layer 1"><g class="cls-2"><rect class="cls-3" x="-1.91" y="-1.91" width="17.82" height="17.82" transform="matrix(0.33, -0.94, 0.94, 0.33, 2.43, 15.65)"/></g></g></g></svg>