<svg xmlns="http://www.w3.org/2000/svg" viewBox="0 0 35.02 34.93"><defs><style>.cls-1{fill:#fff;fill-rule:evenodd;}</style></defs><g id="Layer_2" data-name="Layer 2"><g id="Layer_1-2" data-name="Layer 1"><path class="cls-1" d="M35,17.52a17.62,17.62,0,0,1-3,9.7,1.37,1.37,0,1,1-2.3-1.5h0a14.69,14.69,0,1,0-4.6,4.4,1.36,1.36,0,0,1,1.6,2.2c-.1,0-.1.1-.2.1a17.48,17.48,0,1,1,5.9-24,18.42,18.42,0,0,1,2.6,9.1Zm-16.2,2.3a1.4,1.4,0,1,1-1.4-1.4h0a1.37,1.37,0,0,1,1.4,1.4Zm3.6-2.9v6.4h-10v-6.4a.68.68,0,0,1,.7-.7h8.6a.68.68,0,0,1,.7.7Zm-5-7.3a2.08,2.08,0,0,1,2.1,1.9v2h-4.1v-1.9a1.94,1.94,0,0,1,2-2Zm0-2.7a4.78,4.78,0,0,0-4.8,4.7h0v1.9a3.36,3.36,0,0,0-2.9,3.4v7.8a1.37,1.37,0,0,0,1.4,1.4h12.7a1.37,1.37,0,0,0,1.4-1.4h0v-7.8a3.53,3.53,0,0,0-2.9-3.4v-1.9a4.87,4.87,0,0,0-4.9-4.7Z"/></g></g></svg>