<?xml version="1.0" encoding="UTF-8"?>
<!DOCTYPE svg PUBLIC "-//W3C//DTD SVG 1.1//EN" "http://www.w3.org/Graphics/SVG/1.1/DTD/svg11.dtd">
<!-- Creator: CorelDRAW -->
<svg xmlns="http://www.w3.org/2000/svg" xml:space="preserve" width="54px" height="54px" style="shape-rendering:geometricPrecision; text-rendering:geometricPrecision; image-rendering:optimizeQuality; fill-rule:evenodd; clip-rule:evenodd"
viewBox="0 0 2.97287 2.97634"
 xmlns:xlink="http://www.w3.org/1999/xlink">
 <defs>
  <style type="text/css">
   <![CDATA[
    .fil0 {fill:url(#id0)}
   ]]>
  </style>
  <linearGradient id="id0" gradientUnits="userSpaceOnUse" x1="1.68205" y1="-0.0317838" x2="1.29082" y2="3.00819">
   <stop offset="0" style="stop-color:#EE4423"/>
   <stop offset="1" style="stop-color:#EC1651"/>
  </linearGradient>
 </defs>
 <g id="Layer_x0020_1">
  <metadata id="CorelCorpID_0Corel-Layer"/>
  <path class="fil0" d="M1.49587 0l-0.00766744 0 -0.00779851 0c-0.163506,0.000851938 -0.317117,0.0285727 -0.464109,0.0762812 -0.149089,0.0520337 -0.284351,0.121368 -0.405916,0.211543l0 0c-0.124842,0.0901743 -0.23212,0.197912 -0.322557,0.322753l0 0c-0.0899122,0.121368 -0.162982,0.2603 -0.211543,0.405719l0 0c-0.0477085,0.146992 -0.0754292,0.300603 -0.0762812,0.464109l0 0.00779851 0 0.00766744c0.000851938,0.160492 0.0285727,0.317117 0.0762812,0.460702l0 0c0.0485604,0.148892 0.12163,0.284351 0.211543,0.409192l0 0c0.0904365,0.124842 0.197715,0.232317 0.322557,0.322491l0 0c0.121565,0.0904365 0.256826,0.159509 0.405916,0.211543l0 0c0.149351,0.048757 0.305452,0.07307 0.471908,0.0765433l0 0c0.162982,-0.00347328 0.319018,-0.0277863 0.468369,-0.0765433l0 0c0.149089,-0.0520337 0.284613,-0.121106 0.409454,-0.211543l0 0c0.121106,-0.0901743 0.228844,-0.19765 0.322491,-0.322491l0 0c0.0901743,-0.124842 0.159247,-0.2603 0.208266,-0.409192l0 0c0.0518371,-0.145878 0.0760846,-0.30519 0.0760846,-0.468369l0 0c0,-0.166456 -0.0242475,-0.322557 -0.0760846,-0.471908l0 0c-0.0490192,-0.145419 -0.118092,-0.284351 -0.208266,-0.405719l0 0c-0.0936476,-0.124842 -0.201385,-0.232579 -0.322491,-0.322753l0 0c-0.124842,-0.0901743 -0.260365,-0.159509 -0.409454,-0.211543l0 0c-0.146992,-0.0477085 -0.300537,-0.0754292 -0.460702,-0.0762812zm-0.840207 1.69968c-0.0245096,-0.0242475 -0.0346673,-0.0519682 -0.0346673,-0.0866355l0 0 0 -0.249683c0,-0.0347328 0.0101577,-0.0624536 0.0346673,-0.086701l0 0c0.0242475,-0.0245096 0.0520337,-0.0349294 0.086701,-0.0381406l0 0 1.4884 0c0.0344052,0.00321115 0.0621914,0.013631 0.0864389,0.0381406l0 0c0.024313,0.0242475 0.0346673,0.0519682 0.0384027,0.086701l0 0 0 0.249683c-0.00373542,0.0346673 -0.0140897,0.062388 -0.0384027,0.0866355l0 0c-0.0242475,0.0208397 -0.0520337,0.0347328 -0.0864389,0.0347328l0 0 -1.4884 0c-0.0346673,0 -0.0624536,-0.0138931 -0.086701,-0.0347328l0 0z"/>
 </g>
</svg>
