<svg xmlns="http://www.w3.org/2000/svg" xmlns:xlink="http://www.w3.org/1999/xlink" viewBox="0 0 12.86 12.86"><defs><style>.cls-1{fill:url(#linear-gradient);}</style><linearGradient id="linear-gradient" y1="6.43" x2="12.86" y2="6.43" gradientUnits="userSpaceOnUse"><stop offset="0" stop-color="#00d3a7"/><stop offset="1" stop-color="#0ac0f2"/></linearGradient></defs><g id="Layer_2" data-name="Layer 2"><g id="Layer_1-2" data-name="Layer 1"><path class="cls-1" d="M12.53,8.46a6.29,6.29,0,0,1-.9,1.77,7.73,7.73,0,0,1-1.4,1.4,6.59,6.59,0,0,1-1.77.91,6.6,6.6,0,0,1-4.06,0,6.39,6.39,0,0,1-1.76-.91,6.83,6.83,0,0,1-1.39-1.4A6.34,6.34,0,0,1,.33,8.46a6.36,6.36,0,0,1,.92-5.82A6.11,6.11,0,0,1,2.64,1.25,6.15,6.15,0,0,1,4.4.33a6.41,6.41,0,0,1,4.06,0,6.34,6.34,0,0,1,1.77.92,6.83,6.83,0,0,1,1.4,1.39,6.37,6.37,0,0,1,.9,1.76,6.41,6.41,0,0,1,0,4.06ZM10.19,5.9A.6.6,0,0,0,10,5.52a.55.55,0,0,0-.37-.16H7.5V3.21a.54.54,0,0,0-.15-.37A.59.59,0,0,0,7,2.69H5.9a.55.55,0,0,0-.38.15.51.51,0,0,0-.16.37V5.36H3.21a.55.55,0,0,0-.37.16.5.5,0,0,0-.15.38V7a.48.48,0,0,0,.15.39.54.54,0,0,0,.37.15H5.36V9.65a.51.51,0,0,0,.16.37.56.56,0,0,0,.38.17H7A.61.61,0,0,0,7.35,10a.54.54,0,0,0,.15-.37V7.5H9.65A.54.54,0,0,0,10,7.35.57.57,0,0,0,10.19,7Z"/></g></g></svg>