<svg xmlns="http://www.w3.org/2000/svg" viewBox="0 0 35.1 35.2"><defs><style>.cls-1{fill:#fff;fill-rule:evenodd;}</style></defs><g id="Layer_2" data-name="Layer 2"><g id="Layer_1-2" data-name="Layer 1"><path class="cls-1" d="M29.7,17.1c-2.2,0-4.1-1.1-4.1-2.3,0-.7.6-1.4,1.7-1.9a11.16,11.16,0,0,0,1,1.6,1.67,1.67,0,0,0,2.4.5,1.21,1.21,0,0,0,.5-.5c.3-.4.6-1,1-1.6,1,.5,1.7,1.1,1.7,1.9,0,1.2-1.9,2.3-4.2,2.3m-4-11.7A4.1,4.1,0,1,1,33.9,5v.4c0,1.6-2.2,6.3-3.6,8.5a.57.57,0,0,1-1,0c-1.5-2.2-3.7-6.9-3.6-8.5Zm7,6.5c1.1-2.3,2.3-5,2.3-6.4A5.26,5.26,0,0,0,24.5,5v.5c0,1.4,1.1,4.1,2.3,6.4a3.38,3.38,0,0,0-2.2,2.3h-.1a.6.6,0,0,0,0,1.2h.1c.4,1.7,2.5,2.9,5.2,2.9,3,0,5.3-1.5,5.3-3.5a3.46,3.46,0,0,0-2.4-2.9Z"/><path class="cls-1" d="M28,5.4a1.8,1.8,0,1,1,1.8,1.8h0A1.79,1.79,0,0,1,28,5.4m4.6,0a2.9,2.9,0,1,0-2.9,2.9,2.9,2.9,0,0,0,2.9-2.9Z"/><path class="cls-1" d="M4.1,17.1a3.54,3.54,0,0,1,3.5-3.5,3.5,3.5,0,0,1,0,7h0a3.48,3.48,0,0,1-3.5-3.5m8.1,0a4.7,4.7,0,1,0-4.7,4.7,4.69,4.69,0,0,0,4.7-4.7Z"/><path class="cls-1" d="M7.6,34c-3.7,0-6.4-1.3-6.4-2.4,0-.8,1.3-1.7,3.7-2.2.3.5.5.9.7,1.2a2.29,2.29,0,0,0,3.2.7,2.34,2.34,0,0,0,.7-.7,12.75,12.75,0,0,0,.7-1.2c2.4.5,3.7,1.4,3.7,2.2C14,32.7,11.2,34,7.6,34M1.1,17.1a6.44,6.44,0,0,1,6.4-6.4,6.44,6.44,0,0,1,6.4,6.4h0c0,2.5-3.3,9.5-5.4,12.8a1.14,1.14,0,0,1-1.6.4c-.2-.1-.3-.3-.4-.4C4.4,26.6,1.1,19.6,1.1,17.1Zm14,14h0c-.3-1.3-1.9-2.3-4.2-2.8,1.9-3.5,4.3-8.8,4.3-11.2A7.61,7.61,0,1,0,0,16.5v.6c0,2.4,2.4,7.6,4.3,11.2C1.6,28.9,0,30.1,0,31.6c0,2,3.3,3.6,7.6,3.6,3.8,0,6.8-1.2,7.5-2.9h.1a.61.61,0,0,0,.2-1.2Z"/><path class="cls-1" d="M20.7,20a.65.65,0,0,0-.6-.6h-1c-.3-.1-.6.1-.7.5s.1.6.5.7c.2,0,.4.1.7.1h.6a.94.94,0,0,0,.5-.7"/><path class="cls-1" d="M31,20.5a.57.57,0,0,0-.4-.7l-1.2-.3a.76.76,0,0,0-.5.2.66.66,0,0,0-.1.6,1,1,0,0,0,.5.4,3.55,3.55,0,0,1,1,.2c.2.1.6-.1.7-.4"/><path class="cls-1" d="M33.3,22.9a.62.62,0,0,0,.4-1l-.9-.9a.57.57,0,1,0-.8.8.1.1,0,0,1,.1.1,2.7,2.7,0,0,1,.7.8c0,.1.2.2.5.2"/><path class="cls-1" d="M24.1,20a.65.65,0,0,0-.6-.6H22.4a.6.6,0,0,0,0,1.2h1.1a.58.58,0,0,0,.6-.6h0"/><path class="cls-1" d="M34.8,24.2c-.1-.2-.2-.4-.4-.4a.66.66,0,0,0-.6.1,1.07,1.07,0,0,0-.2.6c.1.3.1.7.2,1a.5.5,0,0,0,.6.5h0a.5.5,0,0,0,.5-.6h0c0-.4-.1-.8-.1-1.2"/><path class="cls-1" d="M34.3,27.2a.57.57,0,0,0-.7.4c-.1.3-.3.6-.4.9a.58.58,0,1,0,1,.6h0a4.33,4.33,0,0,0,.5-1.2.67.67,0,0,0-.4-.7h0"/><path class="cls-1" d="M18.6,31.1H17.5a.54.54,0,0,0-.5.7.47.47,0,0,0,.5.5h1.1a.54.54,0,0,0,.5-.7.54.54,0,0,0-.5-.5"/><path class="cls-1" d="M28.9,31.1H27.8a.54.54,0,0,0-.5.7.47.47,0,0,0,.5.5H29a.55.55,0,0,0,.5-.3.64.64,0,0,0,0-.6.86.86,0,0,0-.6-.3"/><path class="cls-1" d="M27.6,20a.65.65,0,0,0-.6-.6H25.8a.6.6,0,1,0,0,1.2H27a.65.65,0,0,0,.6-.6"/><path class="cls-1" d="M31.7,30a4.05,4.05,0,0,1-.9.5.61.61,0,0,0,0,.8.76.76,0,0,0,.5.2,6.73,6.73,0,0,0,1.1-.7.53.53,0,0,0,.1-.8h0c-.1-.2-.5-.2-.8,0"/><path class="cls-1" d="M22,31.1H20.9a.54.54,0,0,0-.5.7.47.47,0,0,0,.5.5H22a.54.54,0,0,0,.5-.7.47.47,0,0,0-.5-.5"/><path class="cls-1" d="M25.5,31.1H24.3a.65.65,0,0,0-.6.6h0a.52.52,0,0,0,.2.4.76.76,0,0,0,.4.2h1.1a.61.61,0,1,0,.2-1.2h-.1"/><path class="cls-1" d="M17.7,16a.76.76,0,0,0,.4-.2,2,2,0,0,1,.8-.4.78.78,0,0,0,.4-.4.73.73,0,0,0-.2-.6.66.66,0,0,0-.6-.1,2.92,2.92,0,0,0-1.2.7.73.73,0,0,0-.2.6.72.72,0,0,0,.6.4"/><path class="cls-1" d="M21,15.3h1.1a.6.6,0,0,0,0-1.2H20.9a.65.65,0,0,0-.6.6.66.66,0,0,0,.7.6"/><path class="cls-1" d="M17.7,18.9a.64.64,0,0,0,0-.6,2.92,2.92,0,0,1-.2-.9.5.5,0,0,0-.6-.5.65.65,0,0,0-.6.6h0a2,2,0,0,0,.4,1.3.54.54,0,0,0,.8.2.31.31,0,0,0,.2-.1"/></g></g></svg>