<svg xmlns="http://www.w3.org/2000/svg" viewBox="0 0 25 25"><defs><style>.cls-1{fill:#fff;}</style></defs><g id="Layer_2" data-name="Layer 2"><g id="Layer_1-2" data-name="Layer 1"><path class="cls-1" d="M23.32,6.23A12.17,12.17,0,0,1,25,12.5a12.17,12.17,0,0,1-1.68,6.27,12.26,12.26,0,0,1-4.55,4.55A12.17,12.17,0,0,1,12.5,25a12.17,12.17,0,0,1-6.27-1.68,12.26,12.26,0,0,1-4.55-4.55A12.17,12.17,0,0,1,0,12.5,12.17,12.17,0,0,1,1.68,6.23,12.26,12.26,0,0,1,6.23,1.68,12.17,12.17,0,0,1,12.5,0a12.17,12.17,0,0,1,6.27,1.68A12.26,12.26,0,0,1,23.32,6.23Zm-4.62,10a1,1,0,0,0-.31-.73L15.45,12.5l2.94-2.95a1,1,0,0,0,.31-.73,1,1,0,0,0-.31-.75L16.93,6.61a1,1,0,0,0-.75-.31,1,1,0,0,0-.73.31L12.5,9.55,9.55,6.61a1,1,0,0,0-.73-.31,1,1,0,0,0-.75.31L6.61,8.07a1,1,0,0,0-.31.75,1,1,0,0,0,.31.73L9.55,12.5,6.61,15.45a1,1,0,0,0-.31.73,1,1,0,0,0,.31.75l1.46,1.46a1,1,0,0,0,.75.31,1,1,0,0,0,.73-.31l2.95-2.94,2.95,2.94a1,1,0,0,0,.73.31,1,1,0,0,0,.75-.31l1.46-1.46A1,1,0,0,0,18.7,16.18Z"/></g></g></svg>