<svg xmlns="http://www.w3.org/2000/svg" viewBox="0 0 30.08 38.74"><defs><style>.cls-1{fill:none;stroke:#fff;stroke-miterlimit:22.93;stroke-width:2px;}</style></defs><g id="Layer_2" data-name="Layer 2"><g id="Layer_1-2" data-name="Layer 1"><path class="cls-1" d="M1.19,30.09A3,3,0,0,1,1,29,3.17,3.17,0,0,1,1.21,28L9.84,8a6.69,6.69,0,0,1,.91-1.43,8.74,8.74,0,0,1,1.31-1.27,5.72,5.72,0,0,1,1.44-.85l8.31-3.3a2.75,2.75,0,0,1,2.71.4,2.75,2.75,0,0,1,.86,1.15l3.3,8.31A6,6,0,0,1,29,12.68a7.92,7.92,0,0,1,0,1.82,6.08,6.08,0,0,1-.42,1.63L20,36.1a2.53,2.53,0,0,1-.6.86,2.87,2.87,0,0,1-.9.59,3,3,0,0,1-1.06.19,2.89,2.89,0,0,1-1.05-.21L2.65,31.59a2.71,2.71,0,0,1-.87-.6A3.05,3.05,0,0,1,1.19,30.09ZM18,10.12a2.71,2.71,0,0,0,.86,1.15,2.68,2.68,0,0,0,1.28.56,2.77,2.77,0,0,0,1.44-.17,2.69,2.69,0,0,0,1.15-.86,2.72,2.72,0,0,0,.55-1.28,2.68,2.68,0,0,0-.16-1.42,2.75,2.75,0,0,0-2.15-1.72,2.8,2.8,0,0,0-1.42.17,2.76,2.76,0,0,0-1.72,2.14A2.84,2.84,0,0,0,18,10.12Z"/></g></g></svg>