<svg xmlns="http://www.w3.org/2000/svg" xmlns:xlink="http://www.w3.org/1999/xlink" viewBox="0 0 263.18 225.28"><defs><style>.cls-1{fill:none;clip-rule:evenodd;}.cls-2{clip-path:url(#clip-path);}.cls-3{fill:url(#linear-gradient);}.cls-4{fill:#fff;fill-rule:evenodd;}</style><clipPath id="clip-path" transform="translate(29.46 69.1)"><path class="cls-1" d="M5.84,0H198.43a5.85,5.85,0,0,1,5.83,5.84V81.25a5.85,5.85,0,0,1-5.83,5.83H5.84A5.85,5.85,0,0,1,0,81.25V5.84A5.86,5.86,0,0,1,5.84,0"/></clipPath><linearGradient id="linear-gradient" x1="-251.32" y1="1155.01" x2="-247.65" y2="1155.01" gradientTransform="matrix(-72.72, 0, 0, -67.08, -18064.12, 77519.62)" gradientUnits="userSpaceOnUse"><stop offset="0" stop-color="#00d3a7"/><stop offset="1" stop-color="#0ac0f2"/></linearGradient></defs><g id="Layer_2" data-name="Layer 2"><g id="Layer_1-2" data-name="Layer 1"><g class="cls-2"><rect class="cls-3" x="24.48" y="-67.43" width="155.3" height="221.94" transform="translate(53.94 191.99) rotate(-68.71)"/></g><path class="cls-4" d="M182.73,77.57h-9.95a1.8,1.8,0,1,0,0,3.53h9.95a1.8,1.8,0,1,0,0-3.53" transform="translate(29.46 69.1)"/><path class="cls-4" d="M188,77.57a1.77,1.77,0,1,0,1.76,1.77A1.77,1.77,0,0,0,188,77.57" transform="translate(29.46 69.1)"/><path class="cls-4" d="M192.33,77.57a1.77,1.77,0,1,0,1.77,1.77,1.76,1.76,0,0,0-1.77-1.77" transform="translate(29.46 69.1)"/><path class="cls-4" d="M196.69,77.57a1.77,1.77,0,1,0,1.77,1.77,1.76,1.76,0,0,0-1.77-1.77" transform="translate(29.46 69.1)"/><path class="cls-4" d="M48.57,29.24a17.43,17.43,0,0,1-3,9.72,1.37,1.37,0,1,1-2.27-1.52,14.69,14.69,0,1,0-4.63,4.45,1.37,1.37,0,0,1,1.42,2.34,17.51,17.51,0,1,1,8.45-15ZM32.36,31.5A1.37,1.37,0,1,1,31,30.13,1.37,1.37,0,0,1,32.36,31.5ZM36,28.63v6.43H26V28.63a.69.69,0,0,1,.69-.69H35.3A.69.69,0,0,1,36,28.63Zm-5-7.25a2,2,0,0,1,2.05,2v1.87h-4.1V23.34A2,2,0,0,1,31,21.38Zm0-2.74a4.74,4.74,0,0,0-4.78,4.7v1.9a3.44,3.44,0,0,0-2.94,3.39v7.79a1.36,1.36,0,0,0,1.36,1.37H37.35a1.37,1.37,0,0,0,1.37-1.37V28.63a3.42,3.42,0,0,0-2.94-3.39v-1.9A4.75,4.75,0,0,0,31,18.64Z" transform="translate(29.46 69.1)"/></g></g></svg>