<svg xmlns="http://www.w3.org/2000/svg" viewBox="0 0 15.6 15.5"><defs><style>.cls-1{fill:#0abff2;}</style></defs><g id="Layer_2" data-name="Layer 2"><g id="Layer_1-2" data-name="Layer 1"><path class="cls-1" d="M12.9,11.3A4.22,4.22,0,0,0,9.6,9.7,5.55,5.55,0,0,1,6,9.7a4.22,4.22,0,0,0-3.3,1.6A6.16,6.16,0,0,1,4.2,2.6a6.16,6.16,0,0,1,8.7,1.5,6,6,0,0,1,0,7.2M7.8,14a6.29,6.29,0,0,1-4.1-1.5,2.75,2.75,0,0,1,2.2-1.2,6.17,6.17,0,0,0,3.8,0,2.75,2.75,0,0,1,2.2,1.2A6.65,6.65,0,0,1,7.8,14Zm0-14A7.81,7.81,0,0,0,0,7.8a7.73,7.73,0,0,0,7.8,7.7,7.81,7.81,0,0,0,7.8-7.8h0A7.73,7.73,0,0,0,7.8,0Zm0,7.4A1.54,1.54,0,0,1,6.3,5.9a1.5,1.5,0,0,1,3,0h0A1.42,1.42,0,0,1,7.8,7.4ZM7.8,3a3,3,0,0,0-3,3,3,3,0,0,0,3,3,3,3,0,0,0,3-3,3,3,0,0,0-3-3Z"/></g></g></svg>