<svg xmlns="http://www.w3.org/2000/svg" viewBox="0 0 18 18"><defs><style>.cls-1{fill:#da2128;}</style></defs><g id="Layer_2" data-name="Layer 2"><g id="Layer_1-2" data-name="Layer 1"><path class="cls-1" d="M9,0a9,9,0,1,0,9,9A9,9,0,0,0,9,0ZM9,17.42A8.42,8.42,0,1,1,17.42,9,8.42,8.42,0,0,1,9,17.42Z"/><path class="cls-1" d="M13.11,4.89a.3.3,0,0,0-.41,0L9,8.59,5.3,4.89a.29.29,0,0,0-.41.41h0L8.59,9l-3.7,3.7a.29.29,0,0,0,.41.41h0L9,9.41l3.7,3.7a.3.3,0,0,0,.41,0,.3.3,0,0,0,0-.4L9.41,9l3.7-3.7A.3.3,0,0,0,13.11,4.89Z"/></g></g></svg>