<svg xmlns="http://www.w3.org/2000/svg" viewBox="0 0 15.8 16.73"><defs><style>.cls-1{fill:#fdffff;}</style></defs><g id="Layer_2" data-name="Layer 2"><g id="Layer_1-2" data-name="Layer 1"><path class="cls-1" d="M15.8,8.36a1.33,1.33,0,0,1-.39,1l-7,7a1.39,1.39,0,0,1-1.95,0l-.8-.81a1.32,1.32,0,0,1-.41-1,1.34,1.34,0,0,1,.41-1l3.14-3.14H1.26A1.14,1.14,0,0,1,.35,10a1.44,1.44,0,0,1-.35-1V7.68a1.47,1.47,0,0,1,.35-1,1.16,1.16,0,0,1,.91-.4H8.81L5.67,3.15a1.29,1.29,0,0,1-.41-1,1.29,1.29,0,0,1,.41-1l.8-.8a1.36,1.36,0,0,1,2,0l7,7A1.27,1.27,0,0,1,15.8,8.36Z"/></g></g></svg>