<svg xmlns="http://www.w3.org/2000/svg" viewBox="0 0 6.7 7"><defs><style>.cls-1{isolation:isolate;}.cls-2{fill:#fff;}</style></defs><g id="Layer_2" data-name="Layer 2"><g id="Layer_1-2" data-name="Layer 1"><g class="cls-1"><path class="cls-2" d="M6.7,3.4a.52.52,0,0,1-.2.4l-3,3a.76.76,0,0,1-.4.2.52.52,0,0,1-.4-.2l-.3-.3a.76.76,0,0,1-.2-.4.76.76,0,0,1,.2-.4L3.7,4.4H.5a.52.52,0,0,1-.4-.2A.6.6,0,0,1,0,3.8V3.2c0-.2,0-.3.1-.4a.52.52,0,0,1,.4-.2H3.7L2.4,1.3A.52.52,0,0,1,2.2.9.52.52,0,0,1,2.4.5L2.7.2A.76.76,0,0,1,3.1,0a.52.52,0,0,1,.4.2l3,3C6.6,3.1,6.7,3.2,6.7,3.4Z"/></g></g></g></svg>