<svg xmlns="http://www.w3.org/2000/svg" viewBox="0 0 31.8 35.2"><defs><style>.cls-1{fill:#fff;fill-rule:evenodd;}</style></defs><g id="Layer_2" data-name="Layer 2"><g id="Layer_1-2" data-name="Layer 1"><g id="Layer_1-2-2" data-name="Layer 1-2"><path class="cls-1" d="M15.8,27.9a.68.68,0,0,0-.7.7h0a.76.76,0,0,0,.6.8c.4.1.7-.2.8-.6v-.2h0a.68.68,0,0,0-.7-.7"/><path class="cls-1" d="M23.7,33.4a2.5,2.5,0,0,1-1.3-1.2h-.7a2.79,2.79,0,0,1-3.8,1,2.41,2.41,0,0,1-1-1,.6.6,0,0,0-.6-.3.71.71,0,0,0-.6.3,2.79,2.79,0,0,1-3.8,1,2.41,2.41,0,0,1-1-1H9.4a3,3,0,0,1-1.3,1.2A52.28,52.28,0,0,1,4.4,25l.6-.5,1.3-1.1a.65.65,0,0,0,.2-.9v-.1a.67.67,0,0,0-1-.1h0a13.44,13.44,0,0,1-1.4,1.1l-.1.1a10.26,10.26,0,0,1-.4-1.4,68.45,68.45,0,0,1,11.5-7.8V26.6c0,.4.4.6.8.6a.65.65,0,0,0,.6-.6V14.3A64.62,64.62,0,0,1,28,22.1l-.4,1.4-.1-.1q-1.35-1.2-3-2.4a.77.77,0,0,0-1,.1v.1a.63.63,0,0,0,.1.9h0c1.1.8,2,1.6,2.9,2.3l.6.5a71.7,71.7,0,0,1-3.4,8.5M2.8,19.3a45.08,45.08,0,0,1,6-4.8.1.1,0,0,0,.1-.1A37.38,37.38,0,0,1,15.1,11v1.8A60,60,0,0,0,3.2,20.7,7.37,7.37,0,0,1,2.8,19.3Zm6.5-11a.22.22,0,0,1,.2-.2H22.1a.22.22,0,0,1,.2.2h0l.1,4.3a37.79,37.79,0,0,0-6.3-3.3h-.5a37.79,37.79,0,0,0-6.3,3.3Zm4.6-4h3.7l.2,2.5H13.7Zm.3-2.9h3.1l.1,1.5H14Zm8.6,13.1a54.86,54.86,0,0,1,6,4.8,10.26,10.26,0,0,1-.4,1.4,66.45,66.45,0,0,0-11.9-7.9V11a46.46,46.46,0,0,1,6.2,3.4c0,.1,0,.1.1.1ZM31,33.7a2.69,2.69,0,0,1-2.4-1.4.75.75,0,0,0-1.2,0,3,3,0,0,1-2.2,1.4,69.82,69.82,0,0,0,3.4-8.6V25c.3-1,.6-1.9.9-2.8h0c.3-1,.6-2,.8-2.8a.66.66,0,0,0-.2-.7,39,39,0,0,0-6.3-5.1l-.2-5.3a1.54,1.54,0,0,0-1.5-1.5H19.3L19,3.6h0l-.2-2.3A1.32,1.32,0,0,0,17.5,0H14.2a1.3,1.3,0,0,0-1.3,1.2l-.2,2.3h0l-.3,3.2H9.5A1.54,1.54,0,0,0,8,8.2H8l-.2,5.3a50.22,50.22,0,0,0-6.3,5.1.84.84,0,0,0-.2.7c.2.8.5,1.7.8,2.8v.1c.3.9.5,1.8.9,2.8v.1a54.53,54.53,0,0,0,3.5,8.7,3,3,0,0,1-2.2-1.4.81.81,0,0,0-.9-.3c-.1.1-.2.1-.3.3A2.69,2.69,0,0,1,.7,33.8a.68.68,0,0,0-.7.7H0a.68.68,0,0,0,.7.7,4.34,4.34,0,0,0,3-1.3,4.34,4.34,0,0,0,3,1.3,3.4,3.4,0,0,0,1-.1h0a3.74,3.74,0,0,0,2-1.2,4.23,4.23,0,0,0,5.9.2c.1,0,.1-.1.2-.2a4.23,4.23,0,0,0,5.9.2l.2-.2a3.74,3.74,0,0,0,2,1.2H24a3.4,3.4,0,0,0,1,.1,4.34,4.34,0,0,0,3-1.3,4.16,4.16,0,0,0,3.1,1.3.68.68,0,0,0,.7-.7h0c-.2-.5-.5-.8-.8-.8Z"/><path class="cls-1" d="M8,21.1a.75.75,0,0,0-.9,0c-.1.1-.1.1-.1.2a.66.66,0,0,0,.3.9c.1,0,.2.1.3.1a.76.76,0,0,0,.5-.2h0a.76.76,0,0,0-.1-1H8"/></g></g></g></svg>