<svg xmlns="http://www.w3.org/2000/svg" xmlns:xlink="http://www.w3.org/1999/xlink" viewBox="0 0 18.65 19.8"><defs><style>.cls-1{fill:none;}.cls-2{clip-path:url(#clip-path);}.cls-3{fill:url(#linear-gradient);}</style><clipPath id="clip-path" transform="translate(4.31 2.92)"><path class="cls-1" d="M8,1.35a.33.33,0,0,0-.49,0l-.16.15a.34.34,0,0,0,0,.44,2.64,2.64,0,0,1,0,3.2.34.34,0,0,0,0,.44l.16.15a.33.33,0,0,0,.49,0,3.5,3.5,0,0,0,0-4.3M9.27.12a.33.33,0,0,0-.48,0L8.63.24a.33.33,0,0,0,0,.45,4.38,4.38,0,0,1,0,5.62.33.33,0,0,0,0,.45l.16.15a.33.33,0,0,0,.48,0A5.26,5.26,0,0,0,9.27.12ZM6.76,2.61a.33.33,0,0,0-.51-.07l-.17.16A.32.32,0,0,0,6,3.09a1,1,0,0,1,.1.41,1,1,0,0,1-.1.41.32.32,0,0,0,.06.39l.17.16a.33.33,0,0,0,.51-.07A1.77,1.77,0,0,0,6.76,2.61ZM2.66,13.86A.54.54,0,0,0,3,14a.52.52,0,0,0,.25-.07L5,12.82a.52.52,0,0,0,.23-.4.47.47,0,0,0,0-.17L4.32,10a.53.53,0,0,0-.44-.29h0l-1.52.15A7.2,7.2,0,0,1,2.31,5l1.52.16h0a.54.54,0,0,0,.44-.3L5.2,2.63a.58.58,0,0,0,0-.18A.52.52,0,0,0,5,2.05L3.24,1A.47.47,0,0,0,2.66,1,9.08,9.08,0,0,0,2.66,13.86Z"/></clipPath><linearGradient id="linear-gradient" x1="384.47" y1="828.93" x2="388.39" y2="828.93" gradientTransform="matrix(-6.57, 0, 0, -4.68, 2542.13, 3888.95)" gradientUnits="userSpaceOnUse"><stop offset="0" stop-color="#00d3a7"/><stop offset="1" stop-color="#0ac0f2"/></linearGradient></defs><g id="Layer_2" data-name="Layer 2"><g id="Layer_1-2" data-name="Layer 1"><g class="cls-2"><rect class="cls-3" x="-3.27" y="-0.5" width="16.56" height="14.96" transform="translate(1.31 12.99) rotate(-75.4)"/></g></g></g></svg>