<svg xmlns="http://www.w3.org/2000/svg" xmlns:xlink="http://www.w3.org/1999/xlink" viewBox="0 0 24.61 25.6"><defs><style>.cls-1,.cls-2{fill:url(#linear-gradient);}.cls-1{clip-rule:evenodd;}.cls-2{fill-rule:evenodd;}.cls-3{clip-path:url(#clip-path);}.cls-4{fill:url(#linear-gradient-3);}</style><linearGradient id="linear-gradient" y1="10" x2="18.58" y2="10" gradientUnits="userSpaceOnUse"><stop offset="0" stop-color="#00d3a7"/><stop offset="1" stop-color="#0ac0f2"/></linearGradient><clipPath id="clip-path" transform="translate(3.01 2.8)"><path id="SVGID" class="cls-1" d="M18.58,4.29a1.34,1.34,0,0,0-.2-.72,1.39,1.39,0,0,0-1.23-.71H15.72V1.79a1.73,1.73,0,0,0-.24-.9,1.78,1.78,0,0,0-.64-.64A1.75,1.75,0,0,0,13.93,0h-.71a1.74,1.74,0,0,0-.9.25,1.64,1.64,0,0,0-.64.64,1.74,1.74,0,0,0-.25.9V2.86H7.15V1.79A1.84,1.84,0,0,0,6.9.89,1.71,1.71,0,0,0,6.26.25,1.74,1.74,0,0,0,5.36,0H4.65a1.69,1.69,0,0,0-.9.25A1.74,1.74,0,0,0,3.1.89a1.83,1.83,0,0,0-.24.9V2.86H1.43a1.49,1.49,0,0,0-.72.19,1.49,1.49,0,0,0-.51.52,1.34,1.34,0,0,0-.2.72V18.57a1.39,1.39,0,0,0,.2.72,1.55,1.55,0,0,0,.51.51,1.39,1.39,0,0,0,.72.2H17.15a1.39,1.39,0,0,0,.72-.2,1.55,1.55,0,0,0,.51-.51,1.39,1.39,0,0,0,.2-.72Zm-4.29.3a.32.32,0,0,1-.1.22.39.39,0,0,1-.26.09h-.71A.37.37,0,0,1,13,4.81a.33.33,0,0,1-.11-.22V1.75A.36.36,0,0,1,13,1.52a.42.42,0,0,1,.25-.09h.71a.45.45,0,0,1,.26.09.34.34,0,0,1,.1.23Zm-.36,5.77V7.14h3.22v3.22Zm-4.28,0V7.14h3.57v3.22Zm4.28,4.28V11.07h3.22v3.57ZM5.72,5a.38.38,0,0,1-.36.36H4.65a.36.36,0,0,1-.25-.11A.34.34,0,0,1,4.29,5V1.79a.34.34,0,0,1,.11-.25.33.33,0,0,1,.25-.11h.71a.34.34,0,0,1,.25.11.38.38,0,0,1,.11.25Zm3.93,9.64V11.07h3.57v3.57Zm4.28,3.93V15.36h3.22v3.21ZM5.36,10.36V7.14H8.93v3.22Zm4.29,8.21V15.36h3.57v3.21ZM1.43,10.36V7.14H4.65v3.22Zm3.93,4.28V11.07H8.93v3.57Zm-3.93,0V11.07H4.65v3.57Zm3.93,3.93V15.36H8.93v3.21Zm-3.93,0V15.36H4.65v3.21Z"/></clipPath><linearGradient id="linear-gradient-3" x1="539.82" y1="1204.37" x2="543.9" y2="1204.37" gradientTransform="matrix(-14.06, 0, 0, -6.47, 7620.98, 7801.31)" xlink:href="#linear-gradient"/></defs><g id="Layer_2" data-name="Layer 2"><g id="Layer_1-2" data-name="Layer 1"><path id="SVGID-2" data-name="SVGID" class="cls-2" d="M18.58,4.29a1.34,1.34,0,0,0-.2-.72,1.39,1.39,0,0,0-1.23-.71H15.72V1.79a1.73,1.73,0,0,0-.24-.9,1.78,1.78,0,0,0-.64-.64A1.75,1.75,0,0,0,13.93,0h-.71a1.74,1.74,0,0,0-.9.25,1.64,1.64,0,0,0-.64.64,1.74,1.74,0,0,0-.25.9V2.86H7.15V1.79A1.84,1.84,0,0,0,6.9.89,1.71,1.71,0,0,0,6.26.25,1.74,1.74,0,0,0,5.36,0H4.65a1.69,1.69,0,0,0-.9.25A1.74,1.74,0,0,0,3.1.89a1.83,1.83,0,0,0-.24.9V2.86H1.43a1.49,1.49,0,0,0-.72.19,1.49,1.49,0,0,0-.51.52,1.34,1.34,0,0,0-.2.72V18.57a1.39,1.39,0,0,0,.2.72,1.55,1.55,0,0,0,.51.51,1.39,1.39,0,0,0,.72.2H17.15a1.39,1.39,0,0,0,.72-.2,1.55,1.55,0,0,0,.51-.51,1.39,1.39,0,0,0,.2-.72Zm-4.29.3a.32.32,0,0,1-.1.22.39.39,0,0,1-.26.09h-.71A.37.37,0,0,1,13,4.81a.33.33,0,0,1-.11-.22V1.75A.36.36,0,0,1,13,1.52a.42.42,0,0,1,.25-.09h.71a.45.45,0,0,1,.26.09.34.34,0,0,1,.1.23Zm-.36,5.77V7.14h3.22v3.22Zm-4.28,0V7.14h3.57v3.22Zm4.28,4.28V11.07h3.22v3.57ZM5.72,5a.38.38,0,0,1-.36.36H4.65a.36.36,0,0,1-.25-.11A.34.34,0,0,1,4.29,5V1.79a.34.34,0,0,1,.11-.25.33.33,0,0,1,.25-.11h.71a.34.34,0,0,1,.25.11.38.38,0,0,1,.11.25Zm3.93,9.64V11.07h3.57v3.57Zm4.28,3.93V15.36h3.22v3.21ZM5.36,10.36V7.14H8.93v3.22Zm4.29,8.21V15.36h3.57v3.21ZM1.43,10.36V7.14H4.65v3.22Zm3.93,4.28V11.07H8.93v3.57Zm-3.93,0V11.07H4.65v3.57Zm3.93,3.93V15.36H8.93v3.21Zm-3.93,0V15.36H4.65v3.21Z" transform="translate(3.01 2.8)"/><g class="cls-3"><rect class="cls-4" x="-2.01" y="-0.71" width="22.6" height="21.41" transform="translate(1.01 20.46) rotate(-81.23)"/></g></g></g></svg>