<svg xmlns="http://www.w3.org/2000/svg" viewBox="0 0 17.91 17.91"><defs><style>.cls-1{fill:#fff;}</style></defs><g id="Layer_2" data-name="Layer 2"><g id="Layer_1-2" data-name="Layer 1"><path class="cls-1" d="M17.31,8.91a7.84,7.84,0,0,1-.7,3.3h-2V11a.27.27,0,0,0-.3-.3h-1.5V9.21c0-.1-.1-.2-.2-.3l-1.8-.6h-.2l-1.4.5V7.51l.6-1.7v-.2l-.6-1.7.6-1.7V2L9.31.61a9.5,9.5,0,0,1,3.4.9,2.61,2.61,0,0,0-.3,1.1c0,1.9,2.4,4.8,2.5,4.9s.1.1.2.1.2,0,.2-.1c.4-.6.9-1.2,1.3-1.8a7.73,7.73,0,0,1,.7,3.2M9,17.31h-.6v-.6h.9c.1,0,.2,0,.2-.1v-.3l-.6-1.7.6-1.7v-.3c-.1-.1-.1-.1-.2-.1H7.91l.5-1.4v-.2l-.6-1.8c0-.1-.2-.2-.3-.2h-.9V7.41a.27.27,0,0,0-.3-.3H4.41l-1.7.6-1.9-.5a8.33,8.33,0,0,1,8-6.6l.5,1.5-.6,1.7V4l.6,1.7-.6,1.7v1.9c0,.1,0,.2.1.2h.3l1.7-.6,1.5.5V11a.27.27,0,0,0,.3.3h1.5v1.2a.27.27,0,0,0,.3.3h2A8.44,8.44,0,0,1,9,17.31ZM.71,8.91a4.1,4.1,0,0,1,.1-1.1l1.9.5h.2l1.7-.6H6v1.5a.27.27,0,0,0,.3.3h1l.5,1.5-.6,1.7V13c.1.1.1.1.2.1h1.4l-.5,1.4v.2l.5,1.4h-.7a.27.27,0,0,0-.3.3h0v.8a8.31,8.31,0,0,1-7.1-8.3ZM15.31.61a2.11,2.11,0,0,1,2.1,2.1c0,1.3-1.5,3.5-2.1,4.3-.6-.8-2.1-2.9-2.1-4.3a2.05,2.05,0,0,1,2.1-2.1Zm2.6,2.1A2.69,2.69,0,0,0,15.21,0a2.81,2.81,0,0,0-2.1,1A9,9,0,0,0,1,4.81a9,9,0,0,0,3.8,12.1,9,9,0,0,0,12.1-3.8,9.13,9.13,0,0,0,.2-7.9,4.63,4.63,0,0,0,.8-2.5Z"/><path class="cls-1" d="M15.31,1.81a.76.76,0,0,1,.8.6.8.8,0,0,1-.2,1,.85.85,0,0,1-1.3,0,.91.91,0,0,1-.3-.7,1.06,1.06,0,0,1,1-.9h0m0,2.4a1.54,1.54,0,0,0,1.5-1.5,1.54,1.54,0,0,0-1.5-1.5,1.27,1.27,0,0,0-.6.1,1.42,1.42,0,0,0-.9,1.4,1.54,1.54,0,0,0,1.5,1.5Z"/><path class="cls-1" d="M4,13.61a6.44,6.44,0,0,1-1.5-2.5A1.54,1.54,0,0,1,4,9.61a1.54,1.54,0,0,1,1.5,1.5A6.44,6.44,0,0,1,4,13.61m0-4.7A2.05,2.05,0,0,0,1.91,11c0,1.3,1.7,3,1.9,3.2a.3.3,0,0,0,.4,0h0c.2-.2,1.9-1.9,1.9-3.2A2.18,2.18,0,0,0,4,8.91Z"/><path class="cls-1" d="M4,11.31c-.1,0-.2-.1-.3-.2s0-.3.2-.4h.2c.1,0,.2.2.2.3a.32.32,0,0,1-.3.3m0-1.2a.9.9,0,1,0,.9.9.9.9,0,0,0-.9-.9Zm0,1.2c-.1,0-.2-.1-.3-.2s0-.3.2-.4h.2c.1,0,.2.2.2.3a.32.32,0,0,1-.3.3m0-1.2a.9.9,0,1,0,.9.9.9.9,0,0,0-.9-.9Zm0,1.2c-.1,0-.2-.1-.3-.2s0-.3.2-.4h.2c.1,0,.2.2.2.3a.32.32,0,0,1-.3.3m0-1.2a.9.9,0,1,0,.9.9.9.9,0,0,0-.9-.9Zm0,1.2c-.1,0-.2-.1-.3-.2s0-.3.2-.4h.2c.1,0,.2.2.2.3a.32.32,0,0,1-.3.3m0-1.2a.9.9,0,1,0,.9.9.9.9,0,0,0-.9-.9Zm0,1.2c-.1,0-.2-.1-.3-.2s0-.3.2-.4h.2c.1,0,.2.2.2.3a.32.32,0,0,1-.3.3m0-1.2a.9.9,0,1,0,.9.9.9.9,0,0,0-.9-.9Zm0,1.2c-.1,0-.2-.1-.3-.2s0-.3.2-.4h.2c.1,0,.2.2.2.3a.32.32,0,0,1-.3.3m0-1.2a.9.9,0,1,0,.9.9.9.9,0,0,0-.9-.9Zm0,1.2c-.1,0-.2-.1-.3-.2s0-.3.2-.4h.2c.1,0,.2.2.2.3a.32.32,0,0,1-.3.3m0-1.2a.9.9,0,1,0,.9.9.9.9,0,0,0-.9-.9Zm0,1.2c-.1,0-.2-.1-.3-.2s0-.3.2-.4h.2c.1,0,.2.2.2.3a.32.32,0,0,1-.3.3m0-1.2a.9.9,0,1,0,.9.9.9.9,0,0,0-.9-.9Zm0,1.2c-.1,0-.2-.1-.3-.2s0-.3.2-.4h.2c.1,0,.2.2.2.3a.32.32,0,0,1-.3.3m0-1.2a.9.9,0,1,0,.9.9.9.9,0,0,0-.9-.9Zm0,1.2c-.1,0-.2-.1-.3-.2s0-.3.2-.4h.2c.1,0,.2.2.2.3a.32.32,0,0,1-.3.3m0-1.2a.9.9,0,1,0,.9.9.9.9,0,0,0-.9-.9Zm0,1.2c-.1,0-.2-.1-.3-.2s0-.3.2-.4h.2c.1,0,.2.2.2.3a.32.32,0,0,1-.3.3m0-1.2a.9.9,0,1,0,.9.9.9.9,0,0,0-.9-.9Zm0,1.2c-.1,0-.2-.1-.3-.2s0-.3.2-.4h.2c.1,0,.2.2.2.3a.32.32,0,0,1-.3.3m0-1.2a.9.9,0,1,0,.9.9.9.9,0,0,0-.9-.9Zm0,1.2c-.1,0-.2-.1-.3-.2s0-.3.2-.4h.2c.1,0,.2.2.2.3a.32.32,0,0,1-.3.3m0-1.2a.9.9,0,1,0,.9.9.9.9,0,0,0-.9-.9Zm0,1.2c-.1,0-.2-.1-.3-.2s0-.3.2-.4h.2c.1,0,.2.2.2.3a.32.32,0,0,1-.3.3m0-1.2a.9.9,0,1,0,.9.9.9.9,0,0,0-.9-.9Zm0,1.2c-.1,0-.2-.1-.3-.2s0-.3.2-.4h.2c.1,0,.2.2.2.3a.32.32,0,0,1-.3.3m0-1.2a.9.9,0,1,0,.9.9.9.9,0,0,0-.9-.9Zm0,1.2c-.1,0-.2-.1-.3-.2s0-.3.2-.4h.2c.1,0,.2.2.2.3a.32.32,0,0,1-.3.3m0-1.2a.9.9,0,1,0,.9.9.9.9,0,0,0-.9-.9Zm0,1.2c-.1,0-.2-.1-.3-.2s0-.3.2-.4h.2c.1,0,.2.2.2.3a.32.32,0,0,1-.3.3m0-1.2a.9.9,0,1,0,.9.9.9.9,0,0,0-.9-.9Zm0,1.2c-.1,0-.2-.1-.3-.2s0-.3.2-.4h.2c.1,0,.2.2.2.3a.32.32,0,0,1-.3.3m0-1.2a.9.9,0,1,0,.9.9.9.9,0,0,0-.9-.9Zm0,1.2c-.1,0-.2-.1-.3-.2s0-.3.2-.4h.2c.1,0,.2.2.2.3a.32.32,0,0,1-.3.3m0-1.2a.9.9,0,1,0,.9.9.9.9,0,0,0-.9-.9Zm0,1.2c-.1,0-.2-.1-.3-.2s0-.3.2-.4h.2c.1,0,.2.2.2.3a.32.32,0,0,1-.3.3m0-1.2a.9.9,0,1,0,.9.9.9.9,0,0,0-.9-.9Zm0,1.2c-.1,0-.2-.1-.3-.2s0-.3.2-.4h.2c.1,0,.2.2.2.3a.32.32,0,0,1-.3.3m0-1.2a.9.9,0,1,0,.9.9.9.9,0,0,0-.9-.9Zm0,1.2c-.1,0-.2-.1-.3-.2s0-.3.2-.4h.2c.1,0,.2.2.2.3a.32.32,0,0,1-.3.3m0-1.2a.9.9,0,1,0,.9.9.9.9,0,0,0-.9-.9Zm0,1.2c-.1,0-.2-.1-.3-.2s0-.3.2-.4h.2c.1,0,.2.2.2.3a.32.32,0,0,1-.3.3m0-1.2a.9.9,0,1,0,.9.9.9.9,0,0,0-.9-.9Zm0,1.2c-.1,0-.2-.1-.3-.2s0-.3.2-.4h.2c.1,0,.2.2.2.3a.32.32,0,0,1-.3.3m0-1.2a.9.9,0,1,0,.9.9.9.9,0,0,0-.9-.9Zm0,1.2c-.1,0-.2-.1-.3-.2s0-.3.2-.4h.2c.1,0,.2.2.2.3a.32.32,0,0,1-.3.3m0-1.2a.9.9,0,1,0,.9.9.9.9,0,0,0-.9-.9Zm0,1.2c-.1,0-.2-.1-.3-.2s0-.3.2-.4h.2c.1,0,.2.2.2.3a.32.32,0,0,1-.3.3m0-1.2a.9.9,0,1,0,.9.9.9.9,0,0,0-.9-.9Zm0,1.2c-.1,0-.2-.1-.3-.2s0-.3.2-.4h.2c.1,0,.2.2.2.3a.32.32,0,0,1-.3.3m0-1.2a.9.9,0,1,0,.9.9.9.9,0,0,0-.9-.9Zm0,1.2c-.1,0-.2-.1-.3-.2s0-.3.2-.4h.2c.1,0,.2.2.2.3a.32.32,0,0,1-.3.3m0-1.2a.9.9,0,1,0,.9.9.9.9,0,0,0-.9-.9Zm0,1.2c-.1,0-.2-.1-.3-.2s0-.3.2-.4h.2c.1,0,.2.2.2.3a.32.32,0,0,1-.3.3m0-1.2a.9.9,0,1,0,.9.9.9.9,0,0,0-.9-.9Zm0,1.2c-.1,0-.2-.1-.3-.2s0-.3.2-.4h.2c.1,0,.2.2.2.3a.32.32,0,0,1-.3.3m0-1.2a.9.9,0,1,0,.9.9.9.9,0,0,0-.9-.9Zm0,1.2c-.1,0-.2-.1-.3-.2s0-.3.2-.4h.2c.1,0,.2.2.2.3a.32.32,0,0,1-.3.3m0-1.2a.9.9,0,1,0,.9.9.9.9,0,0,0-.9-.9Zm0,1.2c-.1,0-.2-.1-.3-.2s0-.3.2-.4h.2c.1,0,.2.2.2.3a.32.32,0,0,1-.3.3m0-1.2a.9.9,0,1,0,.9.9.9.9,0,0,0-.9-.9Z"/></g></g></svg>