<svg xmlns="http://www.w3.org/2000/svg" xmlns:xlink="http://www.w3.org/1999/xlink" viewBox="0 0 275.64 233.71"><defs><style>.cls-1{fill:none;clip-rule:evenodd;}.cls-2{clip-path:url(#clip-path);}.cls-3{fill:url(#linear-gradient);}.cls-4{fill:#fff;fill-rule:evenodd;}</style><clipPath id="clip-path" transform="translate(29.46 73.31)"><path class="cls-1" d="M5.84,0H210.89a5.85,5.85,0,0,1,5.83,5.84V81.25a5.84,5.84,0,0,1-5.83,5.83H5.84A5.85,5.85,0,0,1,0,81.25V5.84A5.86,5.86,0,0,1,5.84,0"/></clipPath><linearGradient id="linear-gradient" x1="-7.51" y1="1157.11" x2="-3.93" y2="1157.11" gradientTransform="matrix(-74.89, 0, 0, -72.65, -346.41, 84108.27)" gradientUnits="userSpaceOnUse"><stop offset="0" stop-color="#00d3a7"/><stop offset="1" stop-color="#0ac0f2"/></linearGradient></defs><g id="Layer_2" data-name="Layer 2"><g id="Layer_1-2" data-name="Layer 1"><g class="cls-2"><rect class="cls-3" x="28.45" y="-73.23" width="159.83" height="233.55" transform="translate(57.91 202.02) rotate(-68.71)"/></g><path class="cls-4" d="M42.64,29c-2.22,0-4.09-1.07-4.09-2.34,0-.71.64-1.42,1.66-1.86.35.64.68,1.21.95,1.64a1.75,1.75,0,0,0,3,0c.27-.43.6-1,1-1.64,1,.44,1.66,1.15,1.66,1.86,0,1.27-1.87,2.34-4.08,2.34M38.55,17.29a4.09,4.09,0,1,1,8.17,0c0,1.61-2.18,6.25-3.59,8.47a.62.62,0,0,1-.49.26.59.59,0,0,1-.49-.26C40.73,23.54,38.55,18.9,38.55,17.29Zm7.05,6.42c1.14-2.26,2.29-5,2.29-6.42a5.26,5.26,0,1,0-10.51,0c0,1.39,1.15,4.16,2.29,6.42A3.69,3.69,0,0,0,37.46,26h-.08a.58.58,0,0,0-.58.58.59.59,0,0,0,.58.59h.08c.41,1.67,2.53,2.91,5.18,2.91,2.94,0,5.25-1.53,5.25-3.5A3.37,3.37,0,0,0,45.6,23.71Z" transform="translate(29.46 73.31)"/><path class="cls-4" d="M40.89,17.27A1.75,1.75,0,1,1,42.64,19a1.75,1.75,0,0,1-1.75-1.76m4.66,0a2.92,2.92,0,1,0-2.91,2.92A2.91,2.91,0,0,0,45.55,17.27Z" transform="translate(29.46 73.31)"/><path class="cls-4" d="M17,29a3.5,3.5,0,1,1,3.5,3.5A3.49,3.49,0,0,1,17,29m8.17,0a4.67,4.67,0,1,0-4.67,4.67A4.67,4.67,0,0,0,25.13,29Z" transform="translate(29.46 73.31)"/><path class="cls-4" d="M20.46,45.87c-3.67,0-6.42-1.29-6.42-2.44,0-.76,1.28-1.73,3.72-2.19.26.45.51.87.73,1.22a2.34,2.34,0,0,0,2,1.08,2.31,2.31,0,0,0,2-1.08c.23-.35.47-.77.74-1.22,2.43.46,3.72,1.43,3.72,2.19,0,1.15-2.75,2.44-6.42,2.44M14,29a6.42,6.42,0,1,1,12.84,0c0,2.47-3.3,9.5-5.44,12.86a1.16,1.16,0,0,1-2,0C17.34,38.47,14,31.44,14,29Zm14,14H28c-.31-1.25-1.86-2.27-4.22-2.79,1.92-3.54,4.29-8.78,4.29-11.19a7.59,7.59,0,1,0-15.18,0c0,2.41,2.37,7.65,4.29,11.19-2.66.58-4.29,1.81-4.29,3.27,0,2.06,3.26,3.61,7.59,3.61,3.82,0,6.81-1.22,7.45-2.92h.14a.59.59,0,0,0,0-1.17Z" transform="translate(29.46 73.31)"/><path class="cls-4" d="M33.6,31.87a.58.58,0,0,0-.58-.59h-.6a2,2,0,0,1-.42,0,.53.53,0,0,0-.44.08.58.58,0,0,0,.19,1.06,3.05,3.05,0,0,0,.67.07H33a.58.58,0,0,0,.58-.58" transform="translate(29.46 73.31)"/><path class="cls-4" d="M43.87,32.35a.58.58,0,0,0-.36-.73,6.47,6.47,0,0,0-1.23-.29.6.6,0,0,0-.54.23.57.57,0,0,0-.07.58.59.59,0,0,0,.46.35,5.09,5.09,0,0,1,1,.23.57.57,0,0,0,.73-.37" transform="translate(29.46 73.31)"/><path class="cls-4" d="M46.17,34.72a.58.58,0,0,0,.38-.93,6.84,6.84,0,0,0-.86-.92.59.59,0,0,0-.83.05.59.59,0,0,0,.06.83,5,5,0,0,1,.7.75.58.58,0,0,0,.55.22" transform="translate(29.46 73.31)"/><path class="cls-4" d="M37.05,31.87a.58.58,0,0,0-.58-.59H35.32a.59.59,0,1,0,0,1.17h1.15a.58.58,0,0,0,.58-.58" transform="translate(29.46 73.31)"/><path class="cls-4" d="M47.67,36a.59.59,0,0,0-1-.26.6.6,0,0,0-.15.57,4.94,4.94,0,0,1,.17,1,.58.58,0,0,0,.58.54h0a.58.58,0,0,0,.54-.62,5.92,5.92,0,0,0-.2-1.25" transform="translate(29.46 73.31)"/><path class="cls-4" d="M47.18,39a.58.58,0,0,0-.74.36,5.33,5.33,0,0,1-.43.94.57.57,0,0,0,.21.79.58.58,0,0,0,.8-.2,6.24,6.24,0,0,0,.52-1.15.57.57,0,0,0-.36-.74" transform="translate(29.46 73.31)"/><path class="cls-4" d="M31.49,43H30.34a.59.59,0,0,0,0,1.17h1.15a.59.59,0,1,0,0-1.17" transform="translate(29.46 73.31)"/><path class="cls-4" d="M41.79,42.94H40.68a.59.59,0,0,0,0,1.17h1.19a.59.59,0,0,0,.48-.32.59.59,0,0,0,0-.59.61.61,0,0,0-.53-.26" transform="translate(29.46 73.31)"/><path class="cls-4" d="M40.49,31.87a.58.58,0,0,0-.58-.59H38.76a.59.59,0,0,0,0,1.17h1.15a.58.58,0,0,0,.58-.58" transform="translate(29.46 73.31)"/><path class="cls-4" d="M44.65,41.87a6.07,6.07,0,0,1-.87.55.58.58,0,0,0-.27.78.57.57,0,0,0,.78.26,6.15,6.15,0,0,0,1.07-.66.59.59,0,1,0-.71-.93" transform="translate(29.46 73.31)"/><path class="cls-4" d="M34.94,43H33.79a.59.59,0,0,0,0,1.17h1.15a.59.59,0,0,0,0-1.17" transform="translate(29.46 73.31)"/><path class="cls-4" d="M38.38,43H37.23a.63.63,0,0,0-.41.17.59.59,0,0,0-.17.42.58.58,0,0,0,.58.58h1.15a.59.59,0,1,0,0-1.17" transform="translate(29.46 73.31)"/><path class="cls-4" d="M30.64,27.89a.59.59,0,0,0,.4-.15,2,2,0,0,1,.76-.45.6.6,0,0,0,.4-.43A.62.62,0,0,0,32,26.3a.59.59,0,0,0-.57-.12,3.09,3.09,0,0,0-1.2.7.57.57,0,0,0-.15.64.59.59,0,0,0,.54.37" transform="translate(29.46 73.31)"/><path class="cls-4" d="M33.91,27.2h1.15a.59.59,0,0,0,.58-.59.58.58,0,0,0-.58-.58H33.91a.58.58,0,0,0-.58.58.59.59,0,0,0,.58.59" transform="translate(29.46 73.31)"/><path class="cls-4" d="M30.6,30.77a.6.6,0,0,0,0-.58,2.08,2.08,0,0,1-.24-.85.6.6,0,0,0-.61-.56.58.58,0,0,0-.55.62,3.19,3.19,0,0,0,.36,1.34.6.6,0,0,0,.52.31.58.58,0,0,0,.5-.28" transform="translate(29.46 73.31)"/><path class="cls-4" d="M191.31,77.57h-9.95a1.8,1.8,0,1,0,0,3.53h9.95a1.8,1.8,0,1,0,0-3.53" transform="translate(29.46 73.31)"/><path class="cls-4" d="M196.56,77.57a1.77,1.77,0,1,0,1.76,1.77,1.77,1.77,0,0,0-1.76-1.77" transform="translate(29.46 73.31)"/><path class="cls-4" d="M200.92,77.57a1.77,1.77,0,1,0,1.76,1.77,1.77,1.77,0,0,0-1.76-1.77" transform="translate(29.46 73.31)"/><path class="cls-4" d="M205.27,77.57A1.77,1.77,0,1,0,207,79.34a1.76,1.76,0,0,0-1.77-1.77" transform="translate(29.46 73.31)"/><path class="cls-4" d="M188.38,39.29a.68.68,0,0,0-.68.69h0a.68.68,0,1,0,1.36,0h0a.68.68,0,0,0-.68-.69" transform="translate(29.46 73.31)"/><path class="cls-4" d="M196.28,44.85A2.85,2.85,0,0,1,195,43.7h0l0,0,0,0,0,0,0,0,0,0,0,0,0,0,0,0,0,0,0,0h0l0,0,0,0h-.52l0,0,0,0h0l0,0,0,0,0,0,0,0s0,0,0,0l0,0,0,0,0,0v0l0,0h0a2.81,2.81,0,0,1-4.87,0,.68.68,0,0,0-.59-.34.67.67,0,0,0-.59.34,2.81,2.81,0,0,1-4.87,0h0l0,0v0l0,0,0,0,0,0,0,0,0,0,0,0,0,0,0,0h-.06l0,0h-.52l0,0H182l0,0,0,0,0,0,0,0,0,0,0,0,0,0,0,0v0l0,0h0a2.78,2.78,0,0,1-1.25,1.15,54.8,54.8,0,0,1-3.42-8.44l.59-.51c.41-.36.85-.73,1.31-1.1a.69.69,0,0,0-.86-1.07c-.47.38-.93.77-1.36,1.14l-.13.12-.44-1.43a68.71,68.71,0,0,1,11.53-7.82V38a.68.68,0,0,0,1.36,0V25.74a68.22,68.22,0,0,1,11.52,7.82c-.13.46-.28.94-.43,1.43l-.14-.12c-.88-.77-1.84-1.55-2.95-2.38a.68.68,0,1,0-.82,1.09c1.06.8,2,1.58,2.87,2.32l.59.51a54.8,54.8,0,0,1-3.42,8.44m-20.9-14.09a43,43,0,0,1,6-4.84l.12-.08a41.72,41.72,0,0,1,6.19-3.44v1.82a66.61,66.61,0,0,0-11.94,7.9C175.62,31.64,175.49,31.18,175.38,30.76Zm6.55-11a.16.16,0,0,1,.15-.17h12.6a.16.16,0,0,1,.15.17L195,24a40,40,0,0,0-6.32-3.29h-.54A39.52,39.52,0,0,0,181.79,24Zm4.61-4h3.68l.23,2.45h-4.14Zm.27-2.91H190l.14,1.54h-3.43Zm8.56,13.09a43,43,0,0,1,6,4.84c-.12.42-.24.88-.38,1.36a67,67,0,0,0-11.94-7.9V22.4a41.72,41.72,0,0,1,6.19,3.44Zm8.14,19.19a2.81,2.81,0,0,1-2.43-1.41.68.68,0,0,0-.59-.34.7.7,0,0,0-.6.34,2.83,2.83,0,0,1-2.2,1.4,59.48,59.48,0,0,0,3.43-8.65l0-.1c.32-1,.6-1.92.86-2.8l0,0c.3-1,.56-2,.77-2.77a.67.67,0,0,0-.17-.66,44.18,44.18,0,0,0-6.27-5.13l-.16-5.25a1.53,1.53,0,0,0-1.52-1.5h-2.86L191.53,15s0,0,0,0l-.21-2.28A1.3,1.3,0,0,0,190,11.46h-3.3a1.3,1.3,0,0,0-1.28,1.22L185.24,15v0l-.29,3.18h-2.86a1.52,1.52,0,0,0-1.52,1.5l-.16,5.25a43.62,43.62,0,0,0-6.27,5.13.69.69,0,0,0-.18.66c.22.79.48,1.73.78,2.76a.14.14,0,0,0,0,.06c.25.88.54,1.83.86,2.8a.29.29,0,0,0,0,.1,60.62,60.62,0,0,0,3.42,8.65,2.81,2.81,0,0,1-2.19-1.4.7.7,0,0,0-.6-.34.68.68,0,0,0-.59.34,2.81,2.81,0,0,1-2.43,1.41.69.69,0,1,0,0,1.37,4.17,4.17,0,0,0,3-1.3,4.2,4.2,0,0,0,3,1.3,4.15,4.15,0,0,0,1-.13h0a4.29,4.29,0,0,0,2-1.16,4.17,4.17,0,0,0,6,0,4.17,4.17,0,0,0,6.05,0,4.28,4.28,0,0,0,2,1.16l.08,0a4.07,4.07,0,0,0,1,.12,4.2,4.2,0,0,0,3-1.3,4.16,4.16,0,0,0,3,1.3.69.69,0,1,0,0-1.37Z" transform="translate(29.46 73.31)"/><path class="cls-4" d="M180.56,32.53a.68.68,0,0,0-.92,0,.52.52,0,0,0-.14.19.68.68,0,0,0,.3.92.69.69,0,0,0,.82-.16h0a.67.67,0,0,0-.06-1" transform="translate(29.46 73.31)"/></g></g></svg>