<svg xmlns="http://www.w3.org/2000/svg" viewBox="0 0 48 48"><defs><style>.cls-1{fill:#fff;}</style></defs><g id="Layer_2" data-name="Layer 2"><g id="Layer_1-2" data-name="Layer 1"><path class="cls-1" d="M46.4,24a22.38,22.38,0,0,1-1.8,8.8H39.2V29.6a.8.8,0,0,0-.8-.8h-4v-4a.8.8,0,0,0-.55-.76l-4.8-1.6a.85.85,0,0,0-.5,0L24.8,23.69V20.13l1.56-4.68a.85.85,0,0,0,0-.5L24.84,10.4l1.52-4.55a.85.85,0,0,0,0-.5L25.11,1.64A22.18,22.18,0,0,1,34.3,4.12a7.12,7.12,0,0,0-.7,3.08c0,5,6.31,13,6.58,13.3a.79.79,0,0,0,1.24,0,48.71,48.71,0,0,0,3.36-4.85A22,22,0,0,1,46.4,24M24,46.4c-.54,0-1.08,0-1.6-.07V44.8h2.4a.8.8,0,0,0,.64-.33.83.83,0,0,0,.12-.73L24,39.2l1.52-4.55a.81.81,0,0,0-.12-.72.77.77,0,0,0-.64-.33H21.11l1.24-3.75a.72.72,0,0,0,0-.5l-1.59-4.8A.81.81,0,0,0,20,24H17.59V20a.8.8,0,0,0-.8-.8H12a.73.73,0,0,0-.25,0L7.17,20.76,2.06,19.42A22.45,22.45,0,0,1,23.43,1.61l1.32,4-1.51,4.55a.72.72,0,0,0,0,.5l1.51,4.55-1.51,4.55a.7.7,0,0,0,0,.25v4.8a.82.82,0,0,0,.34.65.8.8,0,0,0,.72.11L28.8,24l4,1.33V29.6a.8.8,0,0,0,.8.8h4v3.2a.8.8,0,0,0,.8.8h5.43A22.43,22.43,0,0,1,24,46.4ZM1.59,24a21.51,21.51,0,0,1,.21-3L7,22.37a.8.8,0,0,0,.46,0l4.67-1.56H16v4a.79.79,0,0,0,.79.8h2.63l1.33,4-1.51,4.55a.81.81,0,0,0,.11.72.78.78,0,0,0,.65.33h3.68L22.44,39a.72.72,0,0,0,0,.5l1.24,3.75H21.6a.8.8,0,0,0-.8.8v2.17A22.44,22.44,0,0,1,1.59,24ZM40.8,1.6a5.61,5.61,0,0,1,5.6,5.6c0,3.61-4,9.36-5.6,11.48-1.58-2.12-5.6-7.87-5.6-11.48A5.61,5.61,0,0,1,40.8,1.6ZM48,7.2A7.2,7.2,0,0,0,35.15,2.75,24,24,0,1,0,48,24a23.6,23.6,0,0,0-2.23-10.08C47,11.66,48,9.2,48,7.2Z"/><path class="cls-1" d="M41.13,4.43a2.44,2.44,0,1,1-2.45,2.44,2.44,2.44,0,0,1,2.45-2.44m0,6.52a4.08,4.08,0,1,0-4.08-4.08A4,4,0,0,0,41.13,11Z"/><path class="cls-1" d="M10.13,36.68c-1.51-1.64-4.08-4.88-4.08-7a4.08,4.08,0,0,1,8.16,0c0,2.09-2.57,5.33-4.08,7m0-12.68a5.71,5.71,0,0,0-5.71,5.71c0,3.5,4.61,8.2,5.13,8.73a.82.82,0,0,0,1.16,0c.52-.53,5.13-5.23,5.13-8.73A5.72,5.72,0,0,0,10.13,24Z"/><path class="cls-1" d="M10.13,30.52a.79.79,0,0,1-.75-.5.81.81,0,0,1,.17-.89.82.82,0,0,1,1.4.58.82.82,0,0,1-.82.81m0-3.26a2.45,2.45,0,1,0,2.44,2.45A2.45,2.45,0,0,0,10.13,27.26Zm0,3.26a.79.79,0,0,1-.75-.5.81.81,0,0,1,.17-.89.82.82,0,0,1,1.4.58.82.82,0,0,1-.82.81m0-3.26a2.45,2.45,0,1,0,2.44,2.45A2.45,2.45,0,0,0,10.13,27.26Zm0,3.26a.79.79,0,0,1-.75-.5.81.81,0,0,1,.17-.89.82.82,0,0,1,1.4.58.82.82,0,0,1-.82.81m0-3.26a2.45,2.45,0,1,0,2.44,2.45A2.45,2.45,0,0,0,10.13,27.26Zm0,3.26a.79.79,0,0,1-.75-.5.81.81,0,0,1,.17-.89.82.82,0,0,1,1.4.58.82.82,0,0,1-.82.81m0-3.26a2.45,2.45,0,1,0,2.44,2.45A2.45,2.45,0,0,0,10.13,27.26Zm0,3.26a.79.79,0,0,1-.75-.5.81.81,0,0,1,.17-.89.82.82,0,0,1,1.4.58.82.82,0,0,1-.82.81m0-3.26a2.45,2.45,0,1,0,2.44,2.45A2.45,2.45,0,0,0,10.13,27.26Zm0,3.26a.79.79,0,0,1-.75-.5.81.81,0,0,1,.17-.89.82.82,0,0,1,1.4.58.82.82,0,0,1-.82.81m0-3.26a2.45,2.45,0,1,0,2.44,2.45A2.45,2.45,0,0,0,10.13,27.26Zm0,3.26a.79.79,0,0,1-.75-.5.81.81,0,0,1,.17-.89.82.82,0,0,1,1.4.58.82.82,0,0,1-.82.81m0-3.26a2.45,2.45,0,1,0,2.44,2.45A2.45,2.45,0,0,0,10.13,27.26Zm0,3.26a.79.79,0,0,1-.75-.5.81.81,0,0,1,.17-.89.82.82,0,0,1,1.4.58.82.82,0,0,1-.82.81m0-3.26a2.45,2.45,0,1,0,2.44,2.45A2.45,2.45,0,0,0,10.13,27.26Zm0,3.26a.79.79,0,0,1-.75-.5.81.81,0,0,1,.17-.89.82.82,0,0,1,1.4.58.82.82,0,0,1-.82.81m0-3.26a2.45,2.45,0,1,0,2.44,2.45A2.45,2.45,0,0,0,10.13,27.26Zm0,3.26a.79.79,0,0,1-.75-.5.81.81,0,0,1,.17-.89.82.82,0,0,1,1.4.58.82.82,0,0,1-.82.81m0-3.26a2.45,2.45,0,1,0,2.44,2.45A2.45,2.45,0,0,0,10.13,27.26Zm0,3.26a.79.79,0,0,1-.75-.5.81.81,0,0,1,.17-.89.82.82,0,0,1,1.4.58.82.82,0,0,1-.82.81m0-3.26a2.45,2.45,0,1,0,2.44,2.45A2.45,2.45,0,0,0,10.13,27.26Zm0,3.26a.79.79,0,0,1-.75-.5.81.81,0,0,1,.17-.89.82.82,0,0,1,1.4.58.82.82,0,0,1-.82.81m0-3.26a2.45,2.45,0,1,0,2.44,2.45A2.45,2.45,0,0,0,10.13,27.26Zm0,3.26a.79.79,0,0,1-.75-.5.81.81,0,0,1,.17-.89.82.82,0,0,1,1.4.58.82.82,0,0,1-.82.81m0-3.26a2.45,2.45,0,1,0,2.44,2.45A2.45,2.45,0,0,0,10.13,27.26Zm0,3.26a.79.79,0,0,1-.75-.5.81.81,0,0,1,.17-.89.82.82,0,0,1,1.4.58.82.82,0,0,1-.82.81m0-3.26a2.45,2.45,0,1,0,2.44,2.45A2.45,2.45,0,0,0,10.13,27.26Zm0,3.26a.79.79,0,0,1-.75-.5.81.81,0,0,1,.17-.89.82.82,0,0,1,1.4.58.82.82,0,0,1-.82.81m0-3.26a2.45,2.45,0,1,0,2.44,2.45A2.45,2.45,0,0,0,10.13,27.26Zm0,3.26a.79.79,0,0,1-.75-.5.81.81,0,0,1,.17-.89.82.82,0,0,1,1.4.58.82.82,0,0,1-.82.81m0-3.26a2.45,2.45,0,1,0,2.44,2.45A2.45,2.45,0,0,0,10.13,27.26Zm0,3.26a.79.79,0,0,1-.75-.5.81.81,0,0,1,.17-.89.82.82,0,0,1,1.4.58.82.82,0,0,1-.82.81m0-3.26a2.45,2.45,0,1,0,2.44,2.45A2.45,2.45,0,0,0,10.13,27.26Zm0,3.26a.79.79,0,0,1-.75-.5.81.81,0,0,1,.17-.89.82.82,0,0,1,1.4.58.82.82,0,0,1-.82.81m0-3.26a2.45,2.45,0,1,0,2.44,2.45A2.45,2.45,0,0,0,10.13,27.26Zm0,3.26a.79.79,0,0,1-.75-.5.81.81,0,0,1,.17-.89.82.82,0,0,1,1.4.58.82.82,0,0,1-.82.81m0-3.26a2.45,2.45,0,1,0,2.44,2.45A2.45,2.45,0,0,0,10.13,27.26Zm0,3.26a.79.79,0,0,1-.75-.5.81.81,0,0,1,.17-.89.82.82,0,0,1,1.4.58.82.82,0,0,1-.82.81m0-3.26a2.45,2.45,0,1,0,2.44,2.45A2.45,2.45,0,0,0,10.13,27.26Zm0,3.26a.79.79,0,0,1-.75-.5.81.81,0,0,1,.17-.89.82.82,0,0,1,1.4.58.82.82,0,0,1-.82.81m0-3.26a2.45,2.45,0,1,0,2.44,2.45A2.45,2.45,0,0,0,10.13,27.26Zm0,3.26a.79.79,0,0,1-.75-.5.81.81,0,0,1,.17-.89.82.82,0,0,1,1.4.58.82.82,0,0,1-.82.81m0-3.26a2.45,2.45,0,1,0,2.44,2.45A2.45,2.45,0,0,0,10.13,27.26Zm0,3.26a.79.79,0,0,1-.75-.5.81.81,0,0,1,.17-.89.82.82,0,0,1,1.4.58.82.82,0,0,1-.82.81m0-3.26a2.45,2.45,0,1,0,2.44,2.45A2.45,2.45,0,0,0,10.13,27.26Zm0,3.26a.79.79,0,0,1-.75-.5.81.81,0,0,1,.17-.89.82.82,0,0,1,1.4.58.82.82,0,0,1-.82.81m0-3.26a2.45,2.45,0,1,0,2.44,2.45A2.45,2.45,0,0,0,10.13,27.26Zm0,3.26a.79.79,0,0,1-.75-.5.81.81,0,0,1,.17-.89.82.82,0,0,1,1.4.58.82.82,0,0,1-.82.81m0-3.26a2.45,2.45,0,1,0,2.44,2.45A2.45,2.45,0,0,0,10.13,27.26Zm0,3.26a.79.79,0,0,1-.75-.5.81.81,0,0,1,.17-.89.82.82,0,0,1,1.4.58.82.82,0,0,1-.82.81m0-3.26a2.45,2.45,0,1,0,2.44,2.45A2.45,2.45,0,0,0,10.13,27.26Zm0,3.26a.79.79,0,0,1-.75-.5.81.81,0,0,1,.17-.89.82.82,0,0,1,1.4.58.82.82,0,0,1-.82.81m0-3.26a2.45,2.45,0,1,0,2.44,2.45A2.45,2.45,0,0,0,10.13,27.26Zm0,3.26a.79.79,0,0,1-.75-.5.81.81,0,0,1,.17-.89.82.82,0,0,1,1.4.58.82.82,0,0,1-.82.81m0-3.26a2.45,2.45,0,1,0,2.44,2.45A2.45,2.45,0,0,0,10.13,27.26Zm0,3.26a.79.79,0,0,1-.75-.5.81.81,0,0,1,.17-.89.82.82,0,0,1,1.4.58.82.82,0,0,1-.82.81m0-3.26a2.45,2.45,0,1,0,2.44,2.45A2.45,2.45,0,0,0,10.13,27.26Zm0,3.26a.79.79,0,0,1-.75-.5.81.81,0,0,1,.17-.89.82.82,0,0,1,1.4.58.82.82,0,0,1-.82.81m0-3.26a2.45,2.45,0,1,0,2.44,2.45A2.45,2.45,0,0,0,10.13,27.26Zm0,3.26a.79.79,0,0,1-.75-.5.81.81,0,0,1,.17-.89.82.82,0,0,1,1.4.58.82.82,0,0,1-.82.81m0-3.26a2.45,2.45,0,1,0,2.44,2.45A2.45,2.45,0,0,0,10.13,27.26Zm0,3.26a.79.79,0,0,1-.75-.5.81.81,0,0,1,.17-.89.82.82,0,0,1,1.4.58.82.82,0,0,1-.82.81m0-3.26a2.45,2.45,0,1,0,2.44,2.45A2.45,2.45,0,0,0,10.13,27.26Z"/></g></g></svg>