<svg xmlns="http://www.w3.org/2000/svg" viewBox="0 0 17.87 17.87"><defs><style>.cls-1{fill:#0abff2;}</style></defs><g id="Layer_2" data-name="Layer 2"><g id="Layer_1-2" data-name="Layer 1"><path class="cls-1" d="M17.27,8.93a8.4,8.4,0,0,1-.67,3.28h-2V11a.29.29,0,0,0-.3-.3H12.8V9.23A.29.29,0,0,0,12.6,9l-1.79-.6a.31.31,0,0,0-.19,0l-1.39.47V7.49l.58-1.74a.31.31,0,0,0,0-.19L9.25,3.87l.56-1.69a.31.31,0,0,0,0-.19L9.35.61a8.34,8.34,0,0,1,3.42.92,2.56,2.56,0,0,0-.27,1.15c0,1.87,2.35,4.82,2.45,4.95a.32.32,0,0,0,.24.11.3.3,0,0,0,.23-.11,20,20,0,0,0,1.25-1.8,8.22,8.22,0,0,1,.6,3.1M8.93,17.27l-.59,0v-.58h.89a.29.29,0,0,0,.24-.12.29.29,0,0,0,0-.27L9,14.59l.56-1.69a.29.29,0,0,0,0-.27.29.29,0,0,0-.24-.12H7.86l.46-1.4a.31.31,0,0,0,0-.19L7.73,9.14a.31.31,0,0,0-.29-.21H6.55V7.44a.29.29,0,0,0-.3-.29H4.37l-1.7.57-1.9-.5A8.34,8.34,0,0,1,8.72.6l.49,1.48-.56,1.7a.28.28,0,0,0,0,.18l.56,1.7L8.65,7.35a.29.29,0,0,0,0,.09V9.23a.28.28,0,0,0,.13.24.29.29,0,0,0,.27,0L10.72,9l1.49.49V11a.29.29,0,0,0,.29.29H14v1.2a.3.3,0,0,0,.3.29h2A8.33,8.33,0,0,1,8.93,17.27ZM.59,8.93A8.29,8.29,0,0,1,.67,7.82l1.93.51a.32.32,0,0,0,.17,0l1.74-.58H6V9.23a.31.31,0,0,0,.3.3h1L7.72,11l-.56,1.69a.32.32,0,0,0,0,.27.3.3,0,0,0,.24.12H8.82l-.47,1.4a.28.28,0,0,0,0,.18l.47,1.4H8a.29.29,0,0,0-.3.3v.8A8.34,8.34,0,0,1,.59,8.93ZM15.19.6a2.08,2.08,0,0,1,2.08,2.08c0,1.34-1.5,3.48-2.08,4.27C14.6,6.16,13.1,4,13.1,2.68A2.08,2.08,0,0,1,15.19.6Zm2.68,2.08A2.69,2.69,0,0,0,13.08,1a8.95,8.95,0,1,0,4,4.16A5.9,5.9,0,0,0,17.87,2.68Z"/><path class="cls-1" d="M15.19,1.79a.88.88,0,0,1,.82.55.89.89,0,0,1-.19,1,.89.89,0,0,1-1.53-.63.89.89,0,0,1,.9-.89m0,2.38a1.49,1.49,0,1,0-.57-2.87,1.5,1.5,0,0,0-.92,1.38A1.49,1.49,0,0,0,15.19,4.17Z"/><path class="cls-1" d="M3.87,13.56A5.3,5.3,0,0,1,2.38,11a1.49,1.49,0,0,1,3,0,5.3,5.3,0,0,1-1.49,2.54m0-4.63A2.1,2.1,0,0,0,1.78,11c0,1.27,1.69,3,1.88,3.18a.29.29,0,0,0,.42,0C4.27,14,6,12.29,6,11A2.09,2.09,0,0,0,3.87,8.93Z"/><path class="cls-1" d="M3.87,11.31a.31.31,0,0,1-.28-.18A.3.3,0,0,1,4,10.74a.32.32,0,0,1,.19.28.3.3,0,0,1-.3.29m0-1.19a.89.89,0,1,0,.89.9A.9.9,0,0,0,3.87,10.12Zm0,1.19a.31.31,0,0,1-.28-.18A.3.3,0,0,1,4,10.74a.32.32,0,0,1,.19.28.3.3,0,0,1-.3.29m0-1.19a.89.89,0,1,0,.89.9A.9.9,0,0,0,3.87,10.12Zm0,1.19a.31.31,0,0,1-.28-.18A.3.3,0,0,1,4,10.74a.32.32,0,0,1,.19.28.3.3,0,0,1-.3.29m0-1.19a.89.89,0,1,0,.89.9A.9.9,0,0,0,3.87,10.12Zm0,1.19a.31.31,0,0,1-.28-.18A.3.3,0,0,1,4,10.74a.32.32,0,0,1,.19.28.3.3,0,0,1-.3.29m0-1.19a.89.89,0,1,0,.89.9A.9.9,0,0,0,3.87,10.12Zm0,1.19a.31.31,0,0,1-.28-.18A.3.3,0,0,1,4,10.74a.32.32,0,0,1,.19.28.3.3,0,0,1-.3.29m0-1.19a.89.89,0,1,0,.89.9A.9.9,0,0,0,3.87,10.12Zm0,1.19a.31.31,0,0,1-.28-.18A.3.3,0,0,1,4,10.74a.32.32,0,0,1,.19.28.3.3,0,0,1-.3.29m0-1.19a.89.89,0,1,0,.89.9A.9.9,0,0,0,3.87,10.12Zm0,1.19a.31.31,0,0,1-.28-.18A.3.3,0,0,1,4,10.74a.32.32,0,0,1,.19.28.3.3,0,0,1-.3.29m0-1.19a.89.89,0,1,0,.89.9A.9.9,0,0,0,3.87,10.12Zm0,1.19a.31.31,0,0,1-.28-.18A.3.3,0,0,1,4,10.74a.32.32,0,0,1,.19.28.3.3,0,0,1-.3.29m0-1.19a.89.89,0,1,0,.89.9A.9.9,0,0,0,3.87,10.12Zm0,1.19a.31.31,0,0,1-.28-.18A.3.3,0,0,1,4,10.74a.32.32,0,0,1,.19.28.3.3,0,0,1-.3.29m0-1.19a.89.89,0,1,0,.89.9A.9.9,0,0,0,3.87,10.12Zm0,1.19a.31.31,0,0,1-.28-.18A.3.3,0,0,1,4,10.74a.32.32,0,0,1,.19.28.3.3,0,0,1-.3.29m0-1.19a.89.89,0,1,0,.89.9A.9.9,0,0,0,3.87,10.12Zm0,1.19a.31.31,0,0,1-.28-.18A.3.3,0,0,1,4,10.74a.32.32,0,0,1,.19.28.3.3,0,0,1-.3.29m0-1.19a.89.89,0,1,0,.89.9A.9.9,0,0,0,3.87,10.12Zm0,1.19a.31.31,0,0,1-.28-.18A.3.3,0,0,1,4,10.74a.32.32,0,0,1,.19.28.3.3,0,0,1-.3.29m0-1.19a.89.89,0,1,0,.89.9A.9.9,0,0,0,3.87,10.12Zm0,1.19a.31.31,0,0,1-.28-.18A.3.3,0,0,1,4,10.74a.32.32,0,0,1,.19.28.3.3,0,0,1-.3.29m0-1.19a.89.89,0,1,0,.89.9A.9.9,0,0,0,3.87,10.12Zm0,1.19a.31.31,0,0,1-.28-.18A.3.3,0,0,1,4,10.74a.32.32,0,0,1,.19.28.3.3,0,0,1-.3.29m0-1.19a.89.89,0,1,0,.89.9A.9.9,0,0,0,3.87,10.12Zm0,1.19a.31.31,0,0,1-.28-.18A.3.3,0,0,1,4,10.74a.32.32,0,0,1,.19.28.3.3,0,0,1-.3.29m0-1.19a.89.89,0,1,0,.89.9A.9.9,0,0,0,3.87,10.12Zm0,1.19a.31.31,0,0,1-.28-.18A.3.3,0,0,1,4,10.74a.32.32,0,0,1,.19.28.3.3,0,0,1-.3.29m0-1.19a.89.89,0,1,0,.89.9A.9.9,0,0,0,3.87,10.12Zm0,1.19a.31.31,0,0,1-.28-.18A.3.3,0,0,1,4,10.74a.32.32,0,0,1,.19.28.3.3,0,0,1-.3.29m0-1.19a.89.89,0,1,0,.89.9A.9.9,0,0,0,3.87,10.12Zm0,1.19a.31.31,0,0,1-.28-.18A.3.3,0,0,1,4,10.74a.32.32,0,0,1,.19.28.3.3,0,0,1-.3.29m0-1.19a.89.89,0,1,0,.89.9A.9.9,0,0,0,3.87,10.12Zm0,1.19a.31.31,0,0,1-.28-.18A.3.3,0,0,1,4,10.74a.32.32,0,0,1,.19.28.3.3,0,0,1-.3.29m0-1.19a.89.89,0,1,0,.89.9A.9.9,0,0,0,3.87,10.12Zm0,1.19a.31.31,0,0,1-.28-.18A.3.3,0,0,1,4,10.74a.32.32,0,0,1,.19.28.3.3,0,0,1-.3.29m0-1.19a.89.89,0,1,0,.89.9A.9.9,0,0,0,3.87,10.12Zm0,1.19a.31.31,0,0,1-.28-.18A.3.3,0,0,1,4,10.74a.32.32,0,0,1,.19.28.3.3,0,0,1-.3.29m0-1.19a.89.89,0,1,0,.89.9A.9.9,0,0,0,3.87,10.12Zm0,1.19a.31.31,0,0,1-.28-.18A.3.3,0,0,1,4,10.74a.32.32,0,0,1,.19.28.3.3,0,0,1-.3.29m0-1.19a.89.89,0,1,0,.89.9A.9.9,0,0,0,3.87,10.12Zm0,1.19a.31.31,0,0,1-.28-.18A.3.3,0,0,1,4,10.74a.32.32,0,0,1,.19.28.3.3,0,0,1-.3.29m0-1.19a.89.89,0,1,0,.89.9A.9.9,0,0,0,3.87,10.12Zm0,1.19a.31.31,0,0,1-.28-.18A.3.3,0,0,1,4,10.74a.32.32,0,0,1,.19.28.3.3,0,0,1-.3.29m0-1.19a.89.89,0,1,0,.89.9A.9.9,0,0,0,3.87,10.12Zm0,1.19a.31.31,0,0,1-.28-.18A.3.3,0,0,1,4,10.74a.32.32,0,0,1,.19.28.3.3,0,0,1-.3.29m0-1.19a.89.89,0,1,0,.89.9A.9.9,0,0,0,3.87,10.12Zm0,1.19a.31.31,0,0,1-.28-.18A.3.3,0,0,1,4,10.74a.32.32,0,0,1,.19.28.3.3,0,0,1-.3.29m0-1.19a.89.89,0,1,0,.89.9A.9.9,0,0,0,3.87,10.12Zm0,1.19a.31.31,0,0,1-.28-.18A.3.3,0,0,1,4,10.74a.32.32,0,0,1,.19.28.3.3,0,0,1-.3.29m0-1.19a.89.89,0,1,0,.89.9A.9.9,0,0,0,3.87,10.12Zm0,1.19a.31.31,0,0,1-.28-.18A.3.3,0,0,1,4,10.74a.32.32,0,0,1,.19.28.3.3,0,0,1-.3.29m0-1.19a.89.89,0,1,0,.89.9A.9.9,0,0,0,3.87,10.12Zm0,1.19a.31.31,0,0,1-.28-.18A.3.3,0,0,1,4,10.74a.32.32,0,0,1,.19.28.3.3,0,0,1-.3.29m0-1.19a.89.89,0,1,0,.89.9A.9.9,0,0,0,3.87,10.12Zm0,1.19a.31.31,0,0,1-.28-.18A.3.3,0,0,1,4,10.74a.32.32,0,0,1,.19.28.3.3,0,0,1-.3.29m0-1.19a.89.89,0,1,0,.89.9A.9.9,0,0,0,3.87,10.12Zm0,1.19a.31.31,0,0,1-.28-.18A.3.3,0,0,1,4,10.74a.32.32,0,0,1,.19.28.3.3,0,0,1-.3.29m0-1.19a.89.89,0,1,0,.89.9A.9.9,0,0,0,3.87,10.12Zm0,1.19a.31.31,0,0,1-.28-.18A.3.3,0,0,1,4,10.74a.32.32,0,0,1,.19.28.3.3,0,0,1-.3.29m0-1.19a.89.89,0,1,0,.89.9A.9.9,0,0,0,3.87,10.12Z"/></g></g></svg>