<svg xmlns="http://www.w3.org/2000/svg" viewBox="0 0 20.8 16.89"><defs><style>.cls-1{fill:#fff;}</style></defs><g id="Layer_2" data-name="Layer 2"><g id="Layer_1-2" data-name="Layer 1"><path class="cls-1" d="M20.8,2a9,9,0,0,1-2.14,2.2c0,.12,0,.31,0,.55a11.92,11.92,0,0,1-.5,3.43,12.32,12.32,0,0,1-1.52,3.28,13.2,13.2,0,0,1-2.44,2.78,10.88,10.88,0,0,1-3.4,1.92,12.45,12.45,0,0,1-4.26.72A11.88,11.88,0,0,1,0,15c.31,0,.65,0,1,0a8.37,8.37,0,0,0,5.29-1.82,4.17,4.17,0,0,1-2.48-.85,4.13,4.13,0,0,1-1.5-2.11,4.57,4.57,0,0,0,1.92-.07A4.21,4.21,0,0,1,1.82,8.7,4.08,4.08,0,0,1,.85,6v0a4.13,4.13,0,0,0,1.92.54A4.21,4.21,0,0,1,1.39,5a4.06,4.06,0,0,1-.52-2A4.16,4.16,0,0,1,1.45.78,12,12,0,0,0,5.34,3.92a11.89,11.89,0,0,0,4.9,1.32,4.73,4.73,0,0,1-.1-1,4.11,4.11,0,0,1,1.24-3,4.27,4.27,0,0,1,6.13.1,8.58,8.58,0,0,0,2.71-1,4.17,4.17,0,0,1-1.88,2.35A8.65,8.65,0,0,0,20.8,2Z"/></g></g></svg>