<svg xmlns="http://www.w3.org/2000/svg" xmlns:xlink="http://www.w3.org/1999/xlink" viewBox="0 0 10.68 14.74"><defs><style>.cls-1{fill:none;}.cls-2{clip-path:url(#clip-path);}</style><clipPath id="clip-path" transform="translate(0)"><rect class="cls-1" width="10.68" height="14.74"/></clipPath></defs><g id="Layer_2" data-name="Layer 2"><g id="Layer_1-2" data-name="Layer 1"><g class="cls-2"><path d="M9.91,6.1a.79.79,0,0,1-.54-.22l-4-4-4,4a.76.76,0,0,1-1.08,0,.78.78,0,0,1,0-1.08L4.8.22A.77.77,0,0,1,5.34,0a.79.79,0,0,1,.54.22L10.45,4.8a.76.76,0,0,1-.54,1.3Zm-4,8.42,4.57-4.58a.75.75,0,0,0,0-1.07.76.76,0,0,0-1.08,0l-4,4-4-4a.76.76,0,0,0-1.08,0,.77.77,0,0,0,0,1.07L4.8,14.52a.77.77,0,0,0,.54.22.79.79,0,0,0,.54-.22Z" transform="translate(0)"/></g></g></g></svg>