<svg xmlns="http://www.w3.org/2000/svg" viewBox="0 0 49.89 51.97"><defs><style>.cls-1{fill:#0abff2;}</style></defs><g id="Layer_2" data-name="Layer 2"><g id="Layer_1-2" data-name="Layer 1"><path class="cls-1" d="M24.94,25a6.09,6.09,0,1,0-6.09-6.09A6.09,6.09,0,0,0,24.94,25Zm0-9.13a3,3,0,1,1-3,3,3,3,0,0,1,3-3Z"/><path class="cls-1" d="M44.32,35H34.13c4.76-4.54,9.09-9,9.09-16.75A17.85,17.85,0,0,0,24.94,0,17.85,17.85,0,0,0,6.67,18.27C6.67,26,11,30.48,15.76,35H5.57L0,52H49.89ZM9.72,18.27c0-8.82,6.4-15.22,15.22-15.22s15.23,6.4,15.23,15.22c0,9.87-8.33,13.37-15.23,21.87a70.16,70.16,0,0,0-6.44-6.71c-4.91-4.67-8.78-8.36-8.78-15.16ZM5.44,45.17h11v-3h-10l1.33-4.06H18.85V38a47.66,47.66,0,0,1,6.09,7.22A48.63,48.63,0,0,1,31,38v.07H42.11l1.34,4.06h-10v3h11l1.23,3.76H4.21Z"/></g></g></svg>