<svg xmlns="http://www.w3.org/2000/svg" viewBox="0 0 15.81 15.05"><defs><style>.cls-1{fill:#fff;}</style></defs><g id="Layer_2" data-name="Layer 2"><g id="Layer_1-2" data-name="Layer 1"><path class="cls-1" d="M15.81,7.14a1.25,1.25,0,0,1-.37.92L8.83,14.67a1.29,1.29,0,0,1-.92.38A1.26,1.26,0,0,1,7,14.67L.39,8.06A1.22,1.22,0,0,1,0,7.14a1.26,1.26,0,0,1,.39-.92l.75-.76a1.29,1.29,0,0,1,.92-.38A1.24,1.24,0,0,1,3,5.46l3,3V1.3A1.22,1.22,0,0,1,6.34.39,1.25,1.25,0,0,1,7.26,0H8.55a1.25,1.25,0,0,1,.92.39,1.22,1.22,0,0,1,.38.91V8.44l3-3a1.24,1.24,0,0,1,.91-.38,1.29,1.29,0,0,1,.92.38l.77.76A1.3,1.3,0,0,1,15.81,7.14Z"/></g></g></svg>