<svg xmlns="http://www.w3.org/2000/svg" viewBox="0 0 15.5 15.5"><defs><style>.cls-1{fill:#fff;}</style></defs><g id="Layer_2" data-name="Layer 2"><g id="Layer_1-2" data-name="Layer 1"><path class="cls-1" d="M12.83,11.37A4.14,4.14,0,0,0,9.55,9.75a9.36,9.36,0,0,1-1.8.3A9.52,9.52,0,0,1,6,9.75a4.14,4.14,0,0,0-3.28,1.62A6.14,6.14,0,0,1,1.5,7.75a6.25,6.25,0,0,1,12.5,0,6.14,6.14,0,0,1-1.17,3.62M7.75,14a6.25,6.25,0,0,1-4.07-1.51,2.72,2.72,0,0,1,2.18-1.24,6.36,6.36,0,0,0,1.89.3,6.06,6.06,0,0,0,1.89-.3,2.72,2.72,0,0,1,2.18,1.24A6.25,6.25,0,0,1,7.75,14Zm0-14A7.75,7.75,0,1,0,15.5,7.75,7.75,7.75,0,0,0,7.75,0Zm0,7.5A1.5,1.5,0,1,1,9.25,6,1.5,1.5,0,0,1,7.75,7.5Zm0-4.5a3,3,0,1,0,3,3A3,3,0,0,0,7.75,3Z"/></g></g></svg>