<svg xmlns="http://www.w3.org/2000/svg" viewBox="0 0 18.73 29.18"><defs><style>.cls-1{fill:#fff;}</style></defs><g id="Layer_2" data-name="Layer 2"><g id="Layer_1-2" data-name="Layer 1"><path class="cls-1" d="M18.38,13.78a1.09,1.09,0,0,1,.32.52,1.42,1.42,0,0,1,0,.58,1.19,1.19,0,0,1-.32.52L5,28.84a.9.9,0,0,1-.55.29,1,1,0,0,1-.58,0,.91.91,0,0,1-.52-.29l-3-3a.85.85,0,0,1-.29-.52.83.83,0,0,1,0-.58.91.91,0,0,1,.29-.52l9.6-9.61L.34,5a1,1,0,0,1-.29-.55.86.86,0,0,1,0-.59,1,1,0,0,1,.29-.52l3-3A1.32,1.32,0,0,1,3.85,0a1.88,1.88,0,0,1,.58,0A1.23,1.23,0,0,1,5,.35Z"/></g></g></svg>