<svg xmlns="http://www.w3.org/2000/svg" viewBox="0 0 16.43 17.39"><defs><style>.cls-1{fill:#fff;}</style></defs><g id="Layer_2" data-name="Layer 2"><g id="Layer_1-2" data-name="Layer 1"><path class="cls-1" d="M16.43,8.69a1.4,1.4,0,0,1-.41,1L8.75,17a1.45,1.45,0,0,1-1,.41,1.42,1.42,0,0,1-1-.41l-.84-.84a1.44,1.44,0,0,1,0-2l3.27-3.27H1.31a1.19,1.19,0,0,1-.95-.42,1.51,1.51,0,0,1-.36-1V8A1.51,1.51,0,0,1,.36,7a1.19,1.19,0,0,1,1-.42H9.16L5.89,3.27a1.33,1.33,0,0,1-.42-1,1.34,1.34,0,0,1,.42-1L6.73.42a1.42,1.42,0,0,1,2,0L16,7.69A1.34,1.34,0,0,1,16.43,8.69Z"/></g></g></svg>